<?xml version="1.0" encoding="UTF-8"?>
<svg id="Layer_1" xmlns="http://www.w3.org/2000/svg" version="1.1" viewBox="0 0 870.91 346.31">
  <!-- Generator: Adobe Illustrator 29.7.1, SVG Export Plug-In . SVG Version: 2.1.1 Build 8)  -->
  <defs>
    <style>
      .st0, .st1 {
        fill-rule: evenodd;
      }

      .st0, .st2 {
        fill: #67328f;
      }

      .st1 {
        fill: #b9539f;
      }
    </style>
  </defs>
  <g>
    <path class="st1" d="M252.13,206.72c-1.88,2.21-3.93,4.27-6.14,6.1l1.36,8.06c.81,5.12,1.64,10.25,2.47,15.37l-14.68-8.63-8.18-4.82c-4.6,1.26-9.42,1.9-14.3,1.8,0,0-8.42-.16-14.6-2.47-.06-.02-1.01-.38-2.27-.79-24.99-9.44-38.41-37-30.05-62.67,8.2-25.21,34.44-39.55,59.78-33.37,1.22.3,2.47.65,3.69,1.05,1.19.4,2.35.81,3.5,1.28,24.2,9.88,37.04,36.95,28.83,62.19-2.07,6.38-5.31,12.07-9.38,16.89h-.02Z"/>
    <path class="st0" d="M326.46,208.36c-5.43,16.73-15.73,31.51-15.73,31.51-12.9,18.31-28.13,28.81-37.22,34.14-1.36-8.46-2.71-16.89-4.05-25.35l-2.23-13.28c3.64-3.04,7.01-6.42,10.12-10.08,6.72-7.96,12.05-17.33,15.47-27.86,13.55-41.63-7.59-86.22-47.5-102.5-1.88-.75-3.79-1.46-5.75-2.09-2.02-.65-4.05-1.22-6.08-1.74-41.77-10.19-84.99,13.43-98.51,54.98-13.77,42.32,8.32,87.72,49.51,103.29,2.07.69,3.62,1.26,3.73,1.3,10.19,3.81,24.06,4.09,24.06,4.09,8.04.16,15.96-.87,23.57-2.96l13.49,7.92,24.2,14.22c-12.82,7.45-27.01,12.51-41.79,14.78-17.7,2.73-36.27,1.42-54.45-4.48-32.34-10.51-65.91-6.36-93.55,8.77,8.91-19.08,24.5-33.49,42.97-41.27-27.92-30.45-39.06-74.66-25.37-116.72,20.23-62.15,87.05-96.16,149.2-75.94,62.15,20.23,96.18,87.03,75.94,149.18l-.06.08Z"/>
  </g>
  <g>
    <g>
      <path class="st2" d="M387.25,153.52c-2.96-3.14-4.47-7.78-4.47-13.91l-.2-24.76v-15.02h9.54v15.02l-.16,24.76c0,3.83.77,6.56,2.29,8.2,1.52,1.62,3.95,2.45,7.25,2.45h.51l2,.67v6.66l-2,.67h-1.68c-5.77,0-10.14-1.56-13.1-4.72v-.02Z"/>
      <path class="st2" d="M417.28,151.09c-.91,1.96-2.25,3.56-4.03,4.82-2.17,1.56-5.35,2.35-9.54,2.35h-2.04l-2-.67v-6.66l2-.67h2.04c3.02,0,5.33-.83,6.91-2.51,1.58-1.66,2.27-4.25,2.09-7.71v-15.69h9.86v15.69c-.18,3.48.51,6.05,2.09,7.71s3.87,2.51,6.91,2.51h.91l1.96.79v6.54l-2,.67h-2.67c-2.55,0-5.12-.77-7.67-2.31-2.09-1.24-3.69-2.86-4.82-4.86h-.02ZM406.97,117.34c-1.05-1.03-1.56-2.27-1.56-3.69s.51-2.71,1.56-3.73,2.29-1.54,3.75-1.54,2.75.51,3.79,1.54,1.56,2.27,1.56,3.73-.53,2.71-1.58,3.71-2.31,1.52-3.77,1.52-2.71-.51-3.75-1.54ZM419.91,117.34c-1.05-1.03-1.56-2.27-1.56-3.69s.51-2.71,1.56-3.73,2.29-1.54,3.75-1.54,2.75.51,3.79,1.54,1.56,2.27,1.56,3.73-.53,2.71-1.58,3.71-2.31,1.52-3.77,1.52-2.71-.51-3.75-1.54Z"/>
      <path class="st2" d="M497.25,143.34c.51,2.13,1.17,3.62,1.92,4.43,1.58,1.66,3.89,2.51,6.91,2.51h1.09l1.96.79v6.54l-2,.67h-2.75c-3.48,0-6.42-.75-8.87-2.23-.99-.57-1.92-1.32-2.79-2.23-2.71,2.98-6.5,4.47-11.34,4.47-3.42,0-6.22-.75-8.42-2.23-1.8-1.21-3.22-2.73-4.27-4.58-1.07,1.96-2.67,3.58-4.78,4.9-2.11,1.28-4.62,1.92-7.55,1.92h-24.42l-2-.67v-6.66l2-.67h8.77l-.04-3.87v-25.94h9.19v29.81h6.54c2.79,0,4.96-.81,6.54-2.43.65-.63,1.17-1.36,1.52-2.23.57-1.3.85-2.84.85-4.62v-20.55h9.23v20.55c0,3.02.73,5.33,2.21,6.9,1.46,1.58,3.3,2.37,5.49,2.37,1.05,0,2.29-.79,3.77-2.37,1.46-1.58,2.21-3.87,2.21-6.9v-20.55h8.95v22.88l.06.02Z"/>
      <path class="st2" d="M522.21,151.09c-.91,1.96-2.25,3.56-4.03,4.82-2.17,1.56-5.35,2.35-9.54,2.35h-2.04l-2-.67v-6.66l2-.67h2.04c3.02,0,5.33-.83,6.9-2.51,1.58-1.66,2.37-4.25,2.37-7.71v-15.69h9.31v15.69c0,3.48.79,6.05,2.37,7.71,1.58,1.66,3.87,2.51,6.9,2.51h.91l1.96.79v6.54l-2,.67h-2.67c-2.55,0-5.12-.77-7.67-2.31-2.09-1.24-3.69-2.86-4.82-4.86h.02ZM511.88,172.74c-1.05-1.03-1.56-2.27-1.56-3.69s.51-2.71,1.56-3.73,2.29-1.54,3.75-1.54,2.75.51,3.79,1.54,1.56,2.27,1.56,3.73-.53,2.71-1.58,3.71c-1.07,1.01-2.31,1.52-3.77,1.52s-2.71-.51-3.75-1.54ZM524.84,172.74c-1.05-1.03-1.56-2.27-1.56-3.69s.51-2.71,1.56-3.73,2.29-1.54,3.75-1.54,2.75.51,3.79,1.54,1.56,2.27,1.56,3.73-.53,2.71-1.58,3.71-2.31,1.52-3.77,1.52-2.71-.51-3.75-1.54Z"/>
      <path class="st2" d="M545.8,143.8l4.19-20.31,18.89-.16c4.17,0,7.61,1.11,10.33,3.3,2.71,2.21,4.58,4.82,5.59,7.86s1.13,6.28.32,9.76c-.75,3.4-2.25,6.24-4.48,8.55-2.23,2.31-4.96,3.89-8.2,4.76s-6.68.87-10.33,0c-5.24-1.17-8.83-3.5-10.81-6.95l-1.64,2.23c-1.09,1.32-2.31,2.39-3.64,3.16-2.02,1.24-3.89,2-5.67,2.23h-3.2l-2-.67v-6.74l1.84-.59c.87,0,1.72-.06,2.59-.2,1.98-.3,3.5-1.07,4.58-2.35.55-.59,1.09-1.9,1.64-3.91v.02ZM556.17,132.34l-.63,2.67c-.83,3.69-.51,6.7.95,8.97,1.46,2.27,4.01,3.83,7.67,4.68,2.27.49,4.33.57,6.2.24,1.86-.34,3.4-1.05,4.6-2.15s2.02-2.53,2.43-4.31c.63-2.69.08-5.02-1.66-6.99s-4.54-3-8.44-3.04l-11.1-.04-.02-.02Z"/>
      <path class="st2" d="M629.35,158.24c-.89,4.94-2.79,8.81-5.67,11.66-4.23,4.17-10.69,6.26-19.36,6.26h-10.1v-8.38h10.17c4.86,0,8.53-.87,11.02-2.63,2.51-1.74,4.05-4.05,4.66-6.91h-5.75c-6.84,0-11.97-1.62-15.41-4.9-3.44-3.26-5.16-8.16-5.16-14.68,0-3.69.77-7.01,2.31-9.96,1.54-2.92,3.67-5.24,6.44-6.88,2.75-1.66,5.87-2.49,9.36-2.49s6.7.83,9.42,2.49c2.75,1.66,4.86,4.03,6.4,7.13,1.52,3.1,2.29,6.74,2.29,10.91v10.37h7.78l2,.67v6.66l-2,.67h-8.44ZM620.79,150.26v-10.37c0-4.09-.77-7.21-2.31-9.34-1.54-2.13-3.73-3.2-6.62-3.2-1.72,0-3.26.47-4.6,1.4s-2.39,2.27-3.16,3.99-1.15,3.69-1.15,5.95c0,3.93.93,6.86,2.79,8.75,1.86,1.9,4.72,2.84,8.61,2.84h6.46l-.02-.02Z"/>
      <path class="st2" d="M635.3,157.57v-6.66l2-.67h22.58c3.32,0,5.73-.77,7.27-2.33s2.31-3.77,2.31-6.68-.77-5.08-2.31-6.64-3.97-2.33-7.27-2.33h-16.36v-6.22l19.6-25.23,7.27,4.78-15.09,18.69h4.58c6.1,0,10.75,1.5,13.97,4.48,3.2,2.98,4.8,7.13,4.8,12.47s-1.6,9.54-4.8,12.53-7.86,4.47-13.97,4.47h-22.58l-2-.67v.02Z"/>
      <path class="st2" d="M679.55,168.41h6.34c3.48,0,6.05-.91,7.71-2.71s2.51-4.66,2.51-8.57v-36.69h9.19v36.89c0,6.28-1.58,10.98-4.76,14.13-3.16,3.12-7.88,4.7-14.15,4.7h-6.84v-7.74Z"/>
      <path class="st2" d="M720.94,153.52c-2.98-3.14-4.47-7.78-4.47-13.91l-.2-24.76v-15.02h9.54v15.02l-.16,24.76c0,3.83.77,6.56,2.29,8.2,1.52,1.62,3.95,2.45,7.25,2.45h.51l2,.67v6.66l-2,.67h-1.68c-5.77,0-10.14-1.56-13.1-4.72v-.02Z"/>
      <path class="st2" d="M744.29,143.8l4.19-20.31,18.89-.16c4.17,0,7.61,1.11,10.33,3.3,2.71,2.21,4.58,4.82,5.59,7.86s1.13,6.28.32,9.76c-.75,3.4-2.25,6.24-4.48,8.55-2.23,2.31-4.96,3.89-8.2,4.76s-6.68.87-10.33,0c-5.24-1.17-8.83-3.5-10.81-6.95l-1.64,2.23c-1.09,1.32-2.31,2.39-3.64,3.16-2.02,1.24-3.89,2-5.67,2.23h-3.2l-2-.67v-6.74l1.84-.59c.87,0,1.72-.06,2.59-.2,1.98-.3,3.5-1.07,4.58-2.35.55-.59,1.09-1.9,1.64-3.91v.02ZM754.67,132.34l-.63,2.67c-.83,3.69-.51,6.7.95,8.97,1.46,2.27,4.01,3.83,7.67,4.68,2.27.49,4.33.57,6.2.24,1.86-.34,3.4-1.05,4.6-2.15s2.02-2.53,2.43-4.31c.63-2.69.08-5.02-1.66-6.99s-4.54-3-8.44-3.04l-11.1-.04-.02-.02Z"/>
    </g>
    <g>
      <path class="st2" d="M440.08,245.8h-8.71v-41.55h.4l-16.85,41.11h-6.97l-16.87-41.11h.4v41.55h-8.67v-57.2h10.69l18.08,44.53h-.24l18.04-44.53h10.73v57.2h0Z"/>
      <path class="st2" d="M461.67,246.49c-4.05,0-7.39-1.19-10.02-3.56s-3.93-5.45-3.93-9.21,1.34-6.62,4.05-8.81c2.71-2.17,6.52-3.42,11.44-3.73l10.81-.65v-2.79c0-2.21-.67-3.93-2.04-5.14s-3.28-1.8-5.75-1.8-4.23.51-5.61,1.56c-1.4,1.05-2.29,2.53-2.67,4.43h-8.63c.18-2.69.99-5.04,2.43-7.09s3.4-3.65,5.93-4.82c2.51-1.17,5.47-1.76,8.89-1.76,5.02,0,9.03,1.26,12.05,3.79,3.02,2.53,4.52,5.91,4.52,10.14v28.73h-8.79v-6.78h.43c-1.22,2.27-3.02,4.09-5.41,5.43-2.39,1.36-4.96,2.04-7.67,2.04l-.04.02ZM464,239.02c2.84,0,5.22-.85,7.15-2.57,1.92-1.72,2.88-3.87,2.88-6.44v-2.83l-9.6.57c-2.45.18-4.31.77-5.57,1.74-1.26.99-1.9,2.31-1.9,3.99s.63,3.06,1.9,4.05,2.98,1.48,5.16,1.48h-.02Z"/>
      <path class="st2" d="M491.23,245.8v-41.92h8.75v7.01h-.51c.69-2.35,1.94-4.21,3.71-5.59s3.91-2.07,6.38-2.07c1.24,0,2.33.14,3.26.4v8.75c-1.17-.43-2.55-.65-4.15-.65-2.61,0-4.64.81-6.12,2.41-1.46,1.62-2.21,3.83-2.21,6.68v25.01h-9.13l.02-.02Z"/>
      <path class="st2" d="M553.78,218.81h-8.71c-.43-2.33-1.44-4.21-2.98-5.67s-3.64-2.19-6.26-2.19c-3.14,0-5.65,1.22-7.53,3.67-1.88,2.45-2.81,5.87-2.81,10.21s.95,7.86,2.84,10.25c1.9,2.41,4.43,3.6,7.57,3.6,5,0,8.06-2.55,9.17-7.63h8.79c-.53,4.74-2.43,8.52-5.69,11.3s-7.37,4.19-12.35,4.19c-3.95,0-7.39-.87-10.33-2.63s-5.24-4.27-6.86-7.51c-1.62-3.26-2.43-7.11-2.43-11.58,0-6.6,1.78-11.87,5.35-15.83,3.58-3.93,8.3-5.91,14.19-5.91,3.56,0,6.64.71,9.23,2.11s4.64,3.3,6.14,5.65,2.39,5,2.67,7.92v.02Z"/>
      <path class="st2" d="M577.68,246.57c-3.95,0-7.41-.87-10.35-2.63-2.96-1.76-5.26-4.27-6.9-7.51-1.64-3.26-2.45-7.11-2.45-11.58s.83-8.32,2.47-11.58c1.66-3.26,3.95-5.75,6.91-7.51s6.4-2.63,10.31-2.63,7.37.87,10.31,2.63c2.96,1.76,5.26,4.27,6.91,7.51,1.66,3.26,2.47,7.11,2.47,11.58s-.81,8.32-2.45,11.58c-1.64,3.26-3.93,5.75-6.9,7.51s-6.4,2.63-10.35,2.63ZM577.68,238.83c3.2,0,5.73-1.21,7.61-3.62,1.88-2.41,2.81-5.87,2.81-10.35s-.95-7.94-2.83-10.35c-1.88-2.41-4.41-3.62-7.59-3.62s-5.71,1.21-7.59,3.62c-1.88,2.41-2.83,5.87-2.83,10.35s.95,7.94,2.83,10.35c1.88,2.41,4.41,3.62,7.59,3.62Z"/>
      <path class="st2" d="M603.86,245.8v-41.92h8.75v6.93h-.47c.93-2.25,2.43-4.07,4.5-5.49,2.07-1.42,4.52-2.13,7.33-2.13s5.35.71,7.39,2.15c2.04,1.44,3.46,3.4,4.27,5.91h-.36c1.07-2.45,2.75-4.41,5.06-5.87s4.96-2.19,7.92-2.19c4.11,0,7.41,1.28,9.94,3.85,2.51,2.57,3.77,5.95,3.77,10.12v28.65h-9.17v-26.63c0-2.59-.63-4.56-1.9-5.93s-3.1-2.05-5.49-2.05-4.35.79-5.81,2.39c-1.46,1.58-2.21,3.64-2.21,6.14v26.1h-8.99v-27.26c0-2.27-.65-4.07-1.96-5.37-1.3-1.32-3.08-1.98-5.35-1.98-2.39,0-4.35.83-5.85,2.47-1.5,1.66-2.25,3.75-2.25,6.3v25.82h-9.13Z"/>
      <path class="st2" d="M674.87,198.64c-1.42,0-2.65-.51-3.67-1.54s-1.54-2.25-1.54-3.64.51-2.69,1.54-3.71,2.25-1.54,3.67-1.54,2.69.51,3.71,1.54,1.54,2.27,1.54,3.71-.51,2.61-1.54,3.64-2.27,1.54-3.71,1.54ZM670.3,245.8v-41.92h9.13v41.92h-9.13Z"/>
      <path class="st2" d="M687.29,215.91c0-3.77,1.52-6.84,4.54-9.21,3.02-2.37,6.95-3.56,11.79-3.56s8.38,1.21,11.32,3.6c2.96,2.41,4.54,5.61,4.74,9.6h-8.59c-.2-1.96-.97-3.46-2.31-4.47-1.32-1.03-3.12-1.52-5.39-1.52s-3.93.47-5.24,1.4c-1.28.93-1.94,2.15-1.94,3.67,0,2.37,1.98,4.03,5.93,4.96l6.86,1.58c4.13.99,7.09,2.37,8.91,4.19,1.8,1.8,2.71,4.27,2.71,7.39,0,3.85-1.62,6.97-4.86,9.4-3.24,2.43-7.39,3.64-12.45,3.64s-8.85-1.21-11.91-3.6c-3.06-2.41-4.8-5.65-5.22-9.76h9.03c.67,4.07,3.5,6.12,8.48,6.12,2.45,0,4.35-.45,5.71-1.36,1.36-.91,2.04-2.13,2.04-3.67,0-1.24-.41-2.21-1.22-2.94s-2.25-1.34-4.33-1.86l-7.23-1.78c-7.59-1.96-11.38-5.91-11.38-11.81l.02-.02Z"/>
      <path class="st2" d="M729.57,194.16h9.17v9.72h7.74v7.47h-7.74v22.31c0,1.7.36,2.92,1.07,3.65s1.88,1.11,3.5,1.11c.85,0,1.9-.1,3.14-.28v7.47c-1.46.32-3.14.45-5.04.45-4.21,0-7.23-.91-9.09-2.71-1.84-1.8-2.77-4.74-2.77-8.79v-23.23h-5.93v-7.47h5.93v-9.72l.02.02Z"/>
      <path class="st2" d="M765.67,246.49c-4.05,0-7.39-1.19-10.02-3.56s-3.93-5.45-3.93-9.21,1.34-6.62,4.05-8.81c2.69-2.17,6.52-3.42,11.44-3.73l10.81-.65v-2.79c0-2.21-.67-3.93-2.04-5.14s-3.28-1.8-5.75-1.8-4.23.51-5.61,1.56c-1.4,1.05-2.29,2.53-2.67,4.43h-8.63c.18-2.69.99-5.04,2.43-7.09s3.4-3.65,5.93-4.82c2.51-1.17,5.47-1.76,8.89-1.76,5,0,9.03,1.26,12.05,3.79,3.02,2.53,4.52,5.91,4.52,10.14v28.73h-8.79v-6.78h.43c-1.21,2.27-3.02,4.09-5.41,5.43-2.39,1.36-4.96,2.04-7.67,2.04l-.04.02ZM767.98,239.02c2.84,0,5.22-.85,7.15-2.57,1.92-1.72,2.88-3.87,2.88-6.44v-2.83l-9.6.57c-2.45.18-4.31.77-5.57,1.74-1.26.99-1.9,2.31-1.9,3.99s.63,3.06,1.9,4.05,2.98,1.48,5.16,1.48h-.02Z"/>
    </g>
  </g>
</svg>