<svg width="539" height="476" viewBox="0 0 539 476" fill="none" xmlns="http://www.w3.org/2000/svg">
<path style="mix-blend-mode:overlay" opacity="0.5" fill-rule="evenodd" clip-rule="evenodd" d="M268.456 349.983C207.05 324.273 107.488 324.273 46.0821 349.983C-15.3242 375.693 -15.3242 417.374 46.0821 443.084C107.488 468.795 207.05 468.795 268.456 443.084C329.863 417.374 329.863 375.693 268.456 349.983Z" fill="url(#paint0_linear_64_621)"/>
<path style="mix-blend-mode:overlay" opacity="0.5" fill-rule="evenodd" clip-rule="evenodd" d="M476.447 266.983C394.144 232.524 260.705 232.524 178.402 266.983C96.0991 301.442 96.0991 357.308 178.402 391.766C260.705 426.225 394.144 426.225 476.447 391.766C558.749 357.308 558.749 301.442 476.447 266.983Z" fill="url(#paint1_linear_64_621)"/>
<path style="mix-blend-mode:overlay" opacity="0.2" fill-rule="evenodd" clip-rule="evenodd" d="M448.273 381.63C396.939 360.139 313.707 360.139 262.373 381.63C211.04 403.124 211.04 437.969 262.373 459.462C313.707 480.954 396.939 480.954 448.273 459.462C499.607 437.969 499.607 403.124 448.273 381.63Z" fill="url(#paint2_linear_64_621)"/>
<path opacity="0.05" fill-rule="evenodd" clip-rule="evenodd" d="M210.086 337.515C200.388 343.209 177.975 353.745 166.656 349.233C164.095 348.212 161.995 346.4 160.855 343.857C155.803 332.585 173.577 321.032 181.363 316.459C191.061 310.765 213.474 300.229 224.793 304.741C227.354 305.763 229.454 307.574 230.594 310.118C235.646 321.389 217.872 332.942 210.086 337.515Z" fill="url(#paint3_linear_64_621)"/>
<path opacity="0.1" fill-rule="evenodd" clip-rule="evenodd" d="M209.166 335.946C200.093 341.275 177.93 351.77 167.33 347.544C165.21 346.699 163.459 345.221 162.514 343.112C158.048 333.148 175.536 321.991 182.285 318.026C191.358 312.697 213.521 302.202 224.121 306.428C226.241 307.272 227.992 308.751 228.937 310.86C233.403 320.823 215.915 331.981 209.166 335.946Z" fill="url(#paint4_linear_64_621)"/>
<path opacity="0.15" fill-rule="evenodd" clip-rule="evenodd" d="M208.244 334.379C201.256 338.484 193.445 342.076 185.679 344.431C180.813 345.907 172.914 347.814 168 345.857C166.322 345.187 164.919 344.045 164.17 342.372C160.319 333.78 177.516 322.937 183.202 319.597C190.191 315.492 198.002 311.9 205.767 309.545C210.633 308.069 218.533 306.162 223.446 308.119C225.124 308.789 226.527 309.931 227.277 311.605C231.128 320.197 213.93 331.039 208.244 334.379Z" fill="url(#paint5_linear_64_621)"/>
<path opacity="0.2" fill-rule="evenodd" clip-rule="evenodd" d="M207.325 332.812C200.461 336.845 192.78 340.38 185.153 342.692C180.789 344.015 173.089 345.927 168.675 344.168C167.442 343.675 166.384 342.862 165.83 341.627C164.306 338.23 167.574 334.191 169.762 331.906C173.759 327.735 179.163 324.077 184.122 321.164C190.986 317.131 198.667 313.596 206.294 311.285C210.658 309.961 218.358 308.049 222.772 309.809C224.005 310.301 225.063 311.114 225.617 312.35C227.141 315.746 223.873 319.786 221.684 322.07C217.688 326.241 212.284 329.899 207.325 332.812Z" fill="url(#paint6_linear_64_621)"/>
<path opacity="0.2" fill-rule="evenodd" clip-rule="evenodd" d="M206.403 331.243C220.969 322.688 227.997 313.846 222.1 311.496C216.201 309.146 199.612 314.175 185.046 322.731C170.48 331.286 163.452 340.128 169.349 342.478C175.248 344.828 191.837 339.799 206.403 331.243Z" fill="url(#paint7_linear_64_621)"/>
<path fill-rule="evenodd" clip-rule="evenodd" d="M230.308 154.608C225.878 152.051 222.286 148.062 222.286 162.21C222.286 176.358 225.878 189.902 230.308 192.461C234.738 195.018 238.33 185.622 238.33 171.472C238.33 157.321 234.738 157.165 230.308 154.608Z" fill="#2B45A9"/>
<path fill-rule="evenodd" clip-rule="evenodd" d="M232.44 129.427C238.425 131.287 243.28 138.389 243.28 145.292C243.28 152.194 238.428 156.282 232.44 154.422C226.455 152.562 221.6 145.46 221.6 138.557C221.6 131.655 226.452 127.567 232.44 129.427Z" fill="#2B45A9"/>
<path fill-rule="evenodd" clip-rule="evenodd" d="M232.25 192.825C235.744 192.071 238.333 183.486 238.333 171.472C238.333 163.416 237.168 159.896 235.347 157.887C235.108 157.757 234.868 157.626 234.625 157.485C230.192 154.928 226.603 150.939 226.603 165.087C226.603 176.594 228.98 187.702 232.25 192.825Z" fill="#385FC6"/>
<path fill-rule="evenodd" clip-rule="evenodd" d="M237.729 132.656C241.039 135.823 243.278 140.603 243.278 145.289C243.278 152.192 238.426 156.279 232.438 154.42C232.111 154.317 231.786 154.199 231.464 154.068C228.153 150.9 225.915 146.121 225.915 141.434C225.915 134.531 230.767 130.444 236.754 132.304C237.081 132.406 237.406 132.524 237.729 132.656Z" fill="#385FC6"/>
<path fill-rule="evenodd" clip-rule="evenodd" d="M239.266 134.901C238.571 140.569 234.275 147.642 226.375 155.053C209.055 171.304 180.972 183.036 163.652 181.258C155.778 180.45 151.482 176.987 150.769 171.924C148.621 156.681 171.969 130.281 195.236 120.61C218.324 111.012 241.332 118.02 239.263 134.904L239.266 134.901Z" fill="#A9B0B8"/>
<path fill-rule="evenodd" clip-rule="evenodd" d="M239.365 133.441L239.361 133.587C239.361 133.539 239.363 133.491 239.363 133.444L239.365 133.441ZM239.343 134.011C238.718 150.049 234.559 224.284 195.014 241.161C155.444 257.337 151.302 186.476 150.682 171.022C150.998 176.574 155.319 180.4 163.652 181.256C180.972 183.034 209.055 171.302 226.375 155.051C234.692 147.247 239.013 139.82 239.343 134.011ZM150.671 170.695L150.664 170.5H150.666C150.666 170.564 150.669 170.63 150.671 170.695Z" fill="#A9B0B8"/>
<path fill-rule="evenodd" clip-rule="evenodd" d="M239.266 134.901C238.571 140.569 234.275 147.642 226.376 155.053C209.055 171.304 180.972 183.036 163.652 181.258C161.525 181.04 159.658 180.627 158.055 180.043C162.422 143.101 187.716 116.989 218.269 120.093C225.086 120.785 231.639 122.879 237.758 126.132C239.105 128.639 239.674 131.58 239.266 134.904V134.901Z" fill="#C4CED2"/>
<path fill-rule="evenodd" clip-rule="evenodd" d="M239.366 133.441L239.361 133.587C239.361 133.539 239.363 133.491 239.363 133.444L239.366 133.441ZM167.533 235.412C161.125 222.474 157.388 207.352 157.388 191.492C157.388 187.577 157.617 183.756 158.058 180.041C159.663 180.627 161.527 181.04 163.655 181.258C180.975 183.036 209.058 171.304 226.378 155.053C234.695 147.249 239.016 139.822 239.345 134.014C238.721 150.051 234.561 224.286 195.016 241.164C182.782 246.166 173.938 242.842 167.535 235.412H167.533Z" fill="#C4CED2"/>
<path fill-rule="evenodd" clip-rule="evenodd" d="M239.266 134.902C238.571 140.569 234.275 147.642 226.375 155.053C210.745 169.719 186.351 180.702 169.011 181.399C169.174 178.733 169.41 176.056 169.726 173.368C171.947 154.506 177.65 138.069 185.5 125.599C188.701 123.657 191.971 121.968 195.239 120.61C218.326 111.012 241.334 118.02 239.266 134.904V134.902Z" fill="#D9E4E4"/>
<path fill-rule="evenodd" clip-rule="evenodd" d="M239.366 133.441L239.361 133.587C239.361 133.539 239.363 133.491 239.363 133.444L239.366 133.441ZM173.391 225.76C169.678 212.341 168.041 197.125 169.011 181.397C186.351 180.7 210.745 169.717 226.378 155.051C234.695 147.247 239.016 139.82 239.345 134.011C238.764 148.966 235.106 214.518 202.557 236.99C198.338 239.904 192.31 242.467 186.821 241.062C180.891 239.543 175.573 233.641 173.391 225.76Z" fill="#D5E2E2"/>
<path fill-rule="evenodd" clip-rule="evenodd" d="M239.266 134.902C238.571 140.569 234.275 147.642 226.375 155.053C212.077 168.468 190.45 178.801 173.593 180.999C173.756 178.107 174.008 175.193 174.353 172.273C176.71 152.263 182.982 134.979 191.581 122.266C192.798 121.671 194.017 121.117 195.238 120.61C218.326 111.012 241.334 118.02 239.266 134.904V134.902Z" fill="#E4ECEC"/>
<path fill-rule="evenodd" clip-rule="evenodd" d="M239.366 133.441L239.361 133.587C239.361 133.539 239.363 133.491 239.363 133.444L239.366 133.441ZM173.593 180.997C190.45 178.799 212.08 168.466 226.376 155.051C234.693 147.247 239.014 139.82 239.343 134.011C238.846 146.793 235.29 192.925 214.603 221.611C189.578 256.313 171.493 217.949 173.591 180.997H173.593Z" fill="#E0E9E9"/>
<path fill-rule="evenodd" clip-rule="evenodd" d="M239.265 134.901C238.571 140.569 234.275 147.642 226.375 155.053C220.02 161.016 212.213 166.37 204.023 170.673C193.581 176.156 184.878 175.993 191.644 158.25C200.127 136.005 215.926 122.073 234.018 123.909C234.872 123.996 235.719 124.116 236.561 124.27C238.75 127.138 239.779 130.717 239.265 134.901Z" fill="#EFF7F7"/>
<path fill-rule="evenodd" clip-rule="evenodd" d="M236.639 67.3804C240.932 67.3804 244.411 70.8612 244.411 75.1527C244.411 79.4464 240.93 82.925 236.639 82.925C232.347 82.925 228.866 79.4441 228.866 75.1527C228.866 70.859 232.347 67.3804 236.639 67.3804ZM236.639 57.7031C238.478 57.7031 239.969 59.1948 239.969 61.034C239.969 62.8732 238.478 64.365 236.639 64.365C234.799 64.365 233.308 62.8732 233.308 61.034C233.308 59.1948 234.799 57.7031 236.639 57.7031Z" fill="#2B45A9"/>
<path fill-rule="evenodd" clip-rule="evenodd" d="M238.355 69.6078C236.241 69.6078 234.527 71.3221 234.527 73.4361C234.527 75.55 236.241 77.2643 238.355 77.2643C240.469 77.2643 242.183 75.55 242.183 73.4361C242.183 71.3221 240.469 69.6078 238.355 69.6078ZM237.322 58.4228C236.489 58.4228 235.812 59.0972 235.812 59.9328C235.812 60.7684 236.486 61.4427 237.322 61.4427C238.158 61.4427 238.832 60.7684 238.832 59.9328C238.832 59.0972 238.158 58.4228 237.322 58.4228Z" fill="#385FC6"/>
<path fill-rule="evenodd" clip-rule="evenodd" d="M227.238 126.16L208.217 112.422L207.806 112.186L207.379 111.991L206.939 111.837L206.485 111.723L206.017 111.653L205.535 111.625L205.043 111.641L204.539 111.7L204.023 111.805L203.499 111.955L202.965 112.152L202.422 112.395L201.873 112.686L201.317 113.024L174.723 130.292C170.214 135.512 167.514 140.639 167.514 144.77C167.514 154.408 182.214 154.955 200.347 145.989C212.073 140.192 221.816 133.074 227.238 126.16Z" fill="#8F969B"/>
<path fill-rule="evenodd" clip-rule="evenodd" d="M197.511 67.0398C222.427 58.995 240.832 75.4274 240.832 96.7303C240.832 103.644 238.893 110.222 235.421 116.23C228.199 128.725 214.339 138.748 197.511 144.181C172.596 152.226 152.399 141.482 152.399 120.179C152.399 98.876 172.596 75.0868 197.511 67.0421V67.0398Z" fill="#D0DDDD"/>
<path fill-rule="evenodd" clip-rule="evenodd" d="M226.366 69.4239C235.367 74.9688 240.83 85.1275 240.83 96.7303C240.83 103.644 238.891 110.222 235.419 116.23C228.196 128.725 214.337 138.748 197.509 144.181C188.486 147.095 180.084 147.542 173.034 145.918C165.38 141.495 160.682 133.696 160.682 123.442C160.682 102.207 180.818 78.4905 205.654 70.4707C213.285 68.0071 220.302 67.8504 226.364 69.4262L226.366 69.4239Z" fill="#DEE9E9"/>
<path fill-rule="evenodd" clip-rule="evenodd" d="M233.264 86.7169C221.966 96.1785 210.043 105.052 195.357 111.333C192.686 113.067 190.502 117.89 190.502 122.05V134.931C190.502 137.463 191.626 139.227 193.106 139.826C193.831 140.119 195.416 140.158 197.103 139.599C203.236 137.565 213.773 130.839 216.868 128.844C226.686 122.513 231.191 118.655 234.086 113.256C236.593 108.583 238.119 102.959 238.119 91.1287C238.119 86.9689 235.935 84.9821 233.264 86.7169Z" fill="white"/>
<path fill-rule="evenodd" clip-rule="evenodd" d="M232.722 85.1706C221.421 94.6322 209.5 103.506 194.814 109.786C192.144 111.521 189.959 116.344 189.959 120.504C189.959 124.797 189.959 129.091 189.959 133.385C189.959 135.916 191.083 137.681 192.564 138.28C193.288 138.573 194.873 138.612 196.56 138.053C202.693 136.019 213.231 129.293 216.326 127.297C229.595 118.742 237.576 113.848 237.576 89.5824C237.576 85.4226 235.392 83.4359 232.722 85.1706Z" fill="#191477"/>
<path fill-rule="evenodd" clip-rule="evenodd" d="M209.609 75.6681C219.58 72.4484 228.337 73.7858 234.856 77.9773C230.256 77.2575 225.113 77.6435 219.598 79.4237C212.672 81.6602 206.172 85.3114 200.543 89.8435C188.291 99.3824 179.871 113.106 179.948 125.808C179.996 133.823 170.857 136.43 170.78 121.403C170.687 103.065 188.163 82.5935 209.609 75.6681Z" fill="#EFF7F7"/>
<path fill-rule="evenodd" clip-rule="evenodd" d="M164.129 107.164C168.422 107.164 171.901 110.645 171.901 114.936C171.901 119.23 168.42 122.708 164.129 122.708C159.835 122.708 156.356 119.227 156.356 114.936C156.356 110.642 159.837 107.164 164.129 107.164ZM164.129 97.4864C165.968 97.4864 167.46 98.9782 167.46 100.817C167.46 102.657 165.968 104.148 164.129 104.148C162.29 104.148 160.798 102.657 160.798 100.817C160.798 98.9782 162.29 97.4864 164.129 97.4864Z" fill="#2B45A9"/>
<path fill-rule="evenodd" clip-rule="evenodd" d="M165.845 109.391C163.731 109.391 162.017 111.106 162.017 113.219C162.017 115.333 163.731 117.048 165.845 117.048C167.959 117.048 169.674 115.333 169.674 113.219C169.674 111.106 167.959 109.391 165.845 109.391ZM164.812 98.2084C163.979 98.2084 163.302 98.8828 163.302 99.7184C163.302 100.554 163.977 101.228 164.812 101.228C165.648 101.228 166.322 100.554 166.322 99.7184C166.322 98.8828 165.648 98.2084 164.812 98.2084Z" fill="#385FC6"/>
<path fill-rule="evenodd" clip-rule="evenodd" d="M232.722 85.1706C221.423 94.6322 209.5 103.506 194.814 109.786C192.144 111.521 189.959 116.344 189.959 120.504C189.959 124.797 189.959 129.091 189.959 133.385C189.959 135.916 191.083 137.681 192.564 138.28C192.698 138.335 192.859 138.38 193.047 138.414C192.714 137.653 192.516 136.734 192.516 135.678C192.516 131.384 192.516 127.091 192.516 122.797C192.516 118.637 194.701 113.814 197.371 112.08C212.055 105.801 223.978 96.9256 235.279 87.4639C235.951 87.028 236.591 86.8282 237.174 86.8372C236.425 84.6484 234.709 83.8809 232.722 85.1706Z" fill="#181343"/>
<path fill-rule="evenodd" clip-rule="evenodd" d="M231.357 158.82C226.891 162.916 222.338 166.37 217.742 169.285C213.265 172.128 208.68 174.519 204.132 176.692C202.227 177.603 200.647 180.33 200.647 182.877C200.647 185.89 200.647 188.903 200.647 191.914C200.647 226.509 234.845 203.279 234.845 168.906C234.845 165.898 234.845 162.884 234.845 159.869C234.845 157.322 233.351 156.992 231.357 158.82Z" fill="#F2F9F9"/>
<path fill-rule="evenodd" clip-rule="evenodd" d="M230.658 157.428C226.191 161.524 221.639 164.978 217.043 167.893C212.566 170.736 207.981 173.127 203.433 175.3C201.528 176.211 199.948 178.938 199.948 181.485C199.948 184.498 199.948 187.511 199.948 190.522C199.948 225.117 234.145 201.887 234.145 167.514C234.145 164.506 234.145 161.493 234.145 158.477C234.145 155.93 232.651 155.6 230.658 157.428Z" fill="#181343"/>
<path fill-rule="evenodd" clip-rule="evenodd" d="M232.082 158.162C227.615 162.258 223.063 165.711 218.467 168.627C213.989 171.47 209.405 173.861 204.857 176.034C202.952 176.944 201.372 179.671 201.372 182.219C201.372 185.232 201.372 188.245 201.372 191.253C201.372 199.911 203.513 204.945 206.723 207.093C216.694 210.931 234.143 192.069 234.143 167.512C234.143 164.503 234.143 161.49 234.143 158.477C234.143 157.878 234.059 157.401 233.907 157.047C233.383 157.165 232.76 157.537 232.079 158.162H232.082Z" fill="#191477"/>
<path fill-rule="evenodd" clip-rule="evenodd" d="M213.256 181.104V179.494C213.696 179.222 214.137 178.947 214.582 178.674V180.284C214.137 180.557 213.696 180.831 213.256 181.104Z" fill="#FFFF99"/>
<path fill-rule="evenodd" clip-rule="evenodd" d="M215.985 179.392V177.786C216.426 177.507 216.866 177.23 217.311 176.951V178.554C216.866 178.838 216.426 179.117 215.985 179.39V179.392Z" fill="#FFFF99"/>
<path fill-rule="evenodd" clip-rule="evenodd" d="M218.637 177.73V176.124C219.078 175.841 219.518 175.561 219.963 175.273V176.876C219.518 177.164 219.078 177.448 218.637 177.727V177.73Z" fill="#FFFF99"/>
<path fill-rule="evenodd" clip-rule="evenodd" d="M221.341 175.993V174.383C221.782 174.094 222.222 173.806 222.667 173.516V175.125C222.222 175.414 221.782 175.704 221.341 175.993Z" fill="#FFFF99"/>
<path fill-rule="evenodd" clip-rule="evenodd" d="M224.071 174.179V172.564C224.511 172.269 224.952 171.971 225.397 171.66V173.279C224.952 173.584 224.511 173.879 224.071 174.179Z" fill="#FFFF99"/>
<path fill-rule="evenodd" clip-rule="evenodd" d="M226.721 172.382V170.757C227.161 170.448 227.602 170.137 228.047 169.826V171.452C227.602 171.763 227.161 172.071 226.721 172.382Z" fill="#FFFF99"/>
<path fill-rule="evenodd" clip-rule="evenodd" d="M201.943 122.365C201.882 123.439 200.949 124.311 199.861 124.311C198.774 124.311 197.94 123.439 198.002 122.365C198.167 119.489 199.167 116.521 201.056 114.196C202.831 112.011 205.327 110.511 208.138 110.511C209.359 110.511 210.524 110.801 211.584 111.342C212.668 111.891 213.599 112.679 214.355 113.612C215.013 114.423 214.845 115.658 213.982 116.353C213.122 117.048 211.877 116.95 211.221 116.142C210.785 115.606 210.252 115.134 209.627 114.816C209.1 114.548 208.524 114.402 207.915 114.402C206.378 114.402 205.034 115.349 204.08 116.521C202.738 118.172 202.062 120.329 201.943 122.365ZM225.029 108.108C224.97 109.139 224.055 109.941 223.015 109.779C222.102 109.636 221.475 108.796 221.527 107.888C221.661 105.572 222.397 103.097 223.957 101.235C225.419 99.4891 227.495 98.4854 229.727 98.8328C230.721 98.9872 231.632 99.396 232.429 99.9682C233.269 100.572 233.973 101.351 234.538 102.212C235.042 102.979 234.915 104.089 234.102 104.682C233.262 105.295 232.154 105.013 231.634 104.221C231.312 103.728 230.91 103.265 230.428 102.92C230.065 102.659 229.652 102.468 229.2 102.395C228.171 102.236 227.277 102.795 226.616 103.583C225.576 104.825 225.115 106.571 225.026 108.108H225.029Z" fill="#9B9883"/>
<path fill-rule="evenodd" clip-rule="evenodd" d="M200.901 122.365C200.872 122.872 200.431 123.283 199.918 123.283C199.405 123.283 199.012 122.872 199.042 122.365C199.21 119.427 200.272 116.755 201.853 114.811C203.494 112.79 205.699 111.539 208.076 111.539C209.139 111.539 210.145 111.793 211.062 112.261C211.993 112.734 212.824 113.424 213.521 114.282C213.832 114.666 213.753 115.245 213.346 115.572C212.938 115.901 212.356 115.856 212.045 115.472C211.494 114.795 210.851 114.257 210.14 113.896C209.477 113.56 208.746 113.376 207.97 113.376C206.214 113.376 204.548 114.343 203.276 115.908C201.943 117.549 201.044 119.831 200.899 122.365H200.901Z" fill="#FFFF99"/>
<path fill-rule="evenodd" clip-rule="evenodd" d="M223.987 108.108C223.962 108.531 223.625 108.826 223.233 108.765C222.842 108.703 222.542 108.31 222.567 107.888C222.708 105.436 223.53 103.313 224.743 101.864C226.005 100.359 227.692 99.5663 229.504 99.8501C230.315 99.9772 231.082 100.311 231.779 100.813C232.488 101.321 233.119 102 233.648 102.806C233.884 103.167 233.821 103.644 233.509 103.871C233.196 104.101 232.753 103.992 232.517 103.633C232.099 102.997 231.611 102.468 231.071 102.08C230.567 101.719 230.01 101.476 229.418 101.383C228.078 101.174 226.804 101.791 225.828 102.956C224.804 104.18 224.109 105.994 223.987 108.108Z" fill="#FFFF99"/>
<path fill-rule="evenodd" clip-rule="evenodd" d="M173.489 189.01C169.678 192.709 164.15 194.948 182.187 200.581C200.225 206.214 217.936 207.783 221.746 204.082C225.556 200.384 214.021 192.816 195.983 187.182C177.946 181.549 177.299 185.311 173.489 189.01Z" fill="#2B45A9"/>
<path fill-rule="evenodd" clip-rule="evenodd" d="M222.452 202.159C221.923 198.138 211.298 191.962 195.983 187.18C185.713 183.972 181.081 183.81 178.293 184.95C178.1 185.152 177.9 185.357 177.691 185.559C173.881 189.258 168.352 191.496 186.39 197.13C201.06 201.712 215.515 203.603 222.452 202.159Z" fill="#385FC6"/>
<path fill-rule="evenodd" clip-rule="evenodd" d="M162.857 164.12C168.843 165.979 173.697 173.082 173.697 179.984C173.697 186.887 168.845 190.974 162.857 189.115C156.872 187.255 152.018 180.152 152.018 173.25C152.018 166.347 156.87 162.26 162.857 164.12Z" fill="#2B45A9"/>
<path fill-rule="evenodd" clip-rule="evenodd" d="M168.145 167.351C171.456 170.518 173.695 175.298 173.695 179.984C173.695 186.887 168.843 190.974 162.855 189.115C162.528 189.012 162.203 188.894 161.881 188.763C158.57 185.595 156.332 180.815 156.332 176.129C156.332 169.226 161.184 165.139 167.171 166.999C167.498 167.101 167.823 167.219 168.145 167.351Z" fill="#385FC6"/>
<g opacity="0.4">
<path opacity="0.5" fill-rule="evenodd" clip-rule="evenodd" d="M126.539 376.631L123.519 374.728L122.904 374.174L122.438 373.397L122.143 372.414L122.041 371.238V180.523L122.066 179.88L122.143 179.226L122.268 178.565L122.438 177.902L122.65 177.242L122.904 176.588L123.194 175.945L123.519 175.318L123.878 174.714L124.266 174.133L124.682 173.584L125.122 173.068L125.583 172.594L126.065 172.162L126.564 171.781L127.077 171.452L390.754 18.8121L391.767 18.3512L392.711 18.165L393.565 18.2399L394.312 18.5601L397.332 20.4606L396.585 20.1404L395.729 20.0655L394.784 20.2539L393.774 20.7126L130.097 173.352L129.584 173.681L129.084 174.063L128.603 174.494L128.142 174.971L127.702 175.486L127.286 176.036L126.898 176.615L126.539 177.221L126.214 177.846L125.924 178.488L125.669 179.142L125.458 179.803L125.288 180.466L125.163 181.127L125.086 181.781L125.061 182.423V373.141L125.163 374.317L125.458 375.3L125.924 376.074L126.539 376.631Z" fill="#8C45BC"/>
<path opacity="0.5" fill-rule="evenodd" clip-rule="evenodd" d="M130.097 173.352L393.774 20.7126C396.544 19.1095 398.812 20.565 398.812 23.9505V214.666C398.812 218.051 396.546 222.134 393.774 223.737L130.097 376.376C127.327 377.979 125.059 376.524 125.059 373.138V182.423C125.059 179.038 127.325 174.955 130.097 173.352Z" fill="#EAD7FD"/>
<path fill-rule="evenodd" clip-rule="evenodd" d="M130.097 178.667L393.774 26.0281C394.153 25.8101 394.462 26.0077 394.462 26.4709V41.0391C394.462 41.5 394.153 42.0586 393.774 42.2766L130.097 194.916C129.72 195.134 129.409 194.936 129.409 194.473V179.905C129.409 179.442 129.718 178.885 130.097 178.667Z" fill="#191477"/>
<path fill-rule="evenodd" clip-rule="evenodd" d="M131.521 180.423V191.512L370.414 53.2186V42.129L131.521 180.423Z" fill="white"/>
<path fill-rule="evenodd" clip-rule="evenodd" d="M376.445 45.83C377.326 45.3191 378.039 45.7801 378.039 46.8564C378.039 47.9326 377.326 49.2178 376.445 49.7287C375.564 50.2396 374.851 49.7786 374.851 48.7024C374.851 47.6261 375.564 46.3409 376.445 45.83Z" fill="#FFFF99"/>
<path fill-rule="evenodd" clip-rule="evenodd" d="M389.067 38.5232C389.948 38.0123 390.661 38.4733 390.661 39.5495C390.661 40.6258 389.948 41.911 389.067 42.4218C388.186 42.9327 387.473 42.4718 387.473 41.3955C387.473 40.3193 388.186 39.0341 389.067 38.5232Z" fill="white"/>
<path fill-rule="evenodd" clip-rule="evenodd" d="M382.755 42.1766C383.636 41.6657 384.349 42.1267 384.349 43.2029C384.349 44.2792 383.636 45.5644 382.755 46.0753C381.874 46.5861 381.161 46.1252 381.161 45.0489C381.161 43.9727 381.874 42.6875 382.755 42.1766Z" fill="#DF6087"/>
<path fill-rule="evenodd" clip-rule="evenodd" d="M147.565 197.105L249.854 137.89C251.548 136.909 252.935 137.801 252.935 139.87V144.715C252.935 146.786 251.548 149.284 249.854 150.264L147.565 209.48C145.871 210.461 144.484 209.57 144.484 207.497V202.652C144.484 200.581 145.871 198.083 147.565 197.103V197.105Z" fill="#191477"/>
<path fill-rule="evenodd" clip-rule="evenodd" d="M274.017 123.905L376.306 64.6897C378 63.7088 379.387 64.6012 379.387 66.6697V71.5152C379.387 73.586 378 76.0837 376.306 77.0646L274.017 136.28C272.323 137.261 270.936 136.371 270.936 134.3V129.454C270.936 127.384 272.323 124.886 274.017 123.905Z" fill="#191477"/>
<path fill-rule="evenodd" clip-rule="evenodd" d="M163.266 215.476L278.652 148.682C280.564 147.576 282.128 148.582 282.128 150.916C282.128 159.651 282.128 215.515 282.128 223.88C282.128 226.216 280.564 229.034 278.652 230.14L163.266 296.937C161.357 298.042 159.79 297.039 159.79 294.702C159.79 286.338 159.79 230.474 159.79 221.739C159.79 219.402 161.354 216.587 163.266 215.479V215.476Z" fill="white"/>
<path fill-rule="evenodd" clip-rule="evenodd" d="M164.522 216.702L277.398 151.359C279.255 150.285 280.357 151.002 280.357 153.289V165.459L161.563 234.227V222.057C161.563 219.772 162.664 217.776 164.522 216.702Z" fill="#B78DD5"/>
<path fill-rule="evenodd" clip-rule="evenodd" d="M139.062 342.34V346.665L232.234 292.729V288.404L139.062 342.34ZM161.132 320.914L232.234 279.755V284.081L161.132 325.24V320.914ZM139.062 325.04L199.943 289.798V294.123L139.062 329.368V325.042V325.04ZM208.034 285.114L232.234 271.104V275.429L208.034 289.439V285.114ZM139.062 333.689L152.933 325.66V329.985L139.062 338.014V333.689Z" fill="#B78DD5"/>
<path fill-rule="evenodd" clip-rule="evenodd" d="M289.092 171.776V176.102L379.784 123.601V119.275L289.092 171.776ZM310.574 150.689L379.782 110.624V114.95L310.574 155.015V150.689ZM289.092 154.476L348.352 120.172V124.498L289.092 158.804V154.479V154.476ZM356.227 115.613L379.784 101.975V106.301L356.227 119.938V115.613ZM289.092 163.125L302.593 155.31V159.635L289.092 167.451V163.125Z" fill="#B78DD5"/>
<path fill-rule="evenodd" clip-rule="evenodd" d="M161.795 240.176V264.317L218.955 231.228V207.086L161.795 240.176Z" fill="#F6E2AD"/>
<path fill-rule="evenodd" clip-rule="evenodd" d="M222.965 204.766V228.905L280.125 195.815V171.676L222.965 204.766Z" fill="#5EA0F6"/>
<path fill-rule="evenodd" clip-rule="evenodd" d="M161.795 266.501V290.64L218.955 257.551V233.412L161.795 266.501Z" fill="#5EA0F6"/>
<path fill-rule="evenodd" clip-rule="evenodd" d="M222.965 231.089V255.23L280.125 222.141V197.999L222.965 231.089Z" fill="#DADF87"/>
<path opacity="0.7" fill-rule="evenodd" clip-rule="evenodd" d="M243.5 213.265L358.886 146.47C360.798 145.364 362.362 146.37 362.362 148.705C362.362 157.44 362.362 213.303 362.362 221.671C362.362 224.007 360.798 226.825 358.886 227.931L243.5 294.727C241.591 295.833 240.024 294.83 240.024 292.493C240.024 284.128 240.024 228.264 240.024 219.527C240.024 217.191 241.588 214.375 243.5 213.267V213.265Z" fill="#B78DD5"/>
<path opacity="0.8" fill-rule="evenodd" clip-rule="evenodd" d="M245.219 214.012L360.605 147.217C362.516 146.111 364.081 147.117 364.081 149.452C364.081 158.187 364.081 214.05 364.081 222.415C364.081 224.752 362.516 227.57 360.605 228.675L245.219 295.47C243.309 296.576 241.743 295.572 241.743 293.236C241.743 284.871 241.743 229.007 241.743 220.272C241.743 217.935 243.307 215.12 245.219 214.012Z" fill="white"/>
<path fill-rule="evenodd" clip-rule="evenodd" d="M246.448 215.44L359.374 150.067C361.231 148.993 362.335 149.71 362.335 151.995V164.165L243.487 232.965V220.794C243.487 218.51 244.59 216.514 246.448 215.438V215.44Z" fill="#B78DD5"/>
<path fill-rule="evenodd" clip-rule="evenodd" d="M243.746 239.751V263.893L300.906 230.803V206.662L243.746 239.751Z" fill="#5EA0F6"/>
<path fill-rule="evenodd" clip-rule="evenodd" d="M304.916 204.341V228.48L362.076 195.393V171.252L304.916 204.341Z" fill="#F6E2AD"/>
<path fill-rule="evenodd" clip-rule="evenodd" d="M243.746 266.077V290.216L300.906 257.126V232.987L243.746 266.077Z" fill="#B78DD5"/>
<path fill-rule="evenodd" clip-rule="evenodd" d="M304.916 230.664V254.806L362.076 221.716V197.575L304.916 230.664Z" fill="white"/>
<path opacity="0.5" fill-rule="evenodd" clip-rule="evenodd" d="M247.184 267.421V291.562L304.344 258.473V234.331L247.184 267.421Z" fill="#771DAE"/>
<path opacity="0.5" fill-rule="evenodd" clip-rule="evenodd" d="M348.861 182.984L428.096 137.115C429.409 136.355 430.483 137.047 430.483 138.65C430.483 144.649 430.483 183.011 430.483 188.756C430.483 190.359 429.409 192.293 428.096 193.054L348.861 238.923C347.549 239.683 346.475 238.993 346.475 237.388C346.475 231.643 346.475 193.281 346.475 187.282C346.475 185.679 347.549 183.745 348.861 182.984Z" fill="#4C81DC"/>
<g opacity="0.6">
<path fill-rule="evenodd" clip-rule="evenodd" d="M348.35 237.047L427.154 191.428C427.924 190.983 428.605 189.634 428.605 188.753C428.605 172.164 428.605 155.578 428.605 138.989L349.801 184.607C349.031 185.052 348.35 186.401 348.35 187.282V237.047Z" fill="white"/>
<path d="M348.182 237.342V187.282C348.182 186.39 348.852 184.962 349.717 184.462L428.775 138.696V188.756C428.775 189.648 428.105 191.076 427.24 191.576L348.182 237.342ZM428.437 139.284L349.887 184.755C349.211 185.146 348.52 186.422 348.52 187.282V236.754L427.07 191.283C427.747 190.892 428.435 189.616 428.435 188.756V139.284H428.437Z" fill="#E3E3E3"/>
</g>
<path opacity="0.5" fill-rule="evenodd" clip-rule="evenodd" d="M96.322 246.915L175.557 201.047C176.87 200.286 177.944 200.979 177.944 202.582C177.944 208.581 177.944 246.942 177.944 252.687C177.944 254.29 176.867 256.227 175.557 256.985L96.322 302.854C95.0095 303.612 93.9355 302.924 93.9355 301.319C93.9355 295.574 93.9355 257.212 93.9355 251.213C93.9355 249.61 95.0095 247.676 96.322 246.915Z" fill="#4C81DC"/>
<g opacity="0.6">
<path fill-rule="evenodd" clip-rule="evenodd" d="M95.811 300.978L174.615 255.36C175.385 254.915 176.066 253.566 176.066 252.685C176.066 236.096 176.066 219.507 176.066 202.92L97.262 248.539C96.4922 248.984 95.811 250.332 95.811 251.213C95.811 267.803 95.811 284.392 95.811 300.978Z" fill="white"/>
<path d="M95.6406 301.271V251.211C95.6406 250.319 96.3105 248.891 97.1756 248.391L176.234 202.625V252.685C176.234 253.577 175.564 255.005 174.699 255.505L95.6406 301.271ZM175.898 203.215L97.3481 248.686C96.6715 249.077 95.9812 250.353 95.9812 251.213V300.685L174.531 255.214C175.207 254.824 175.898 253.548 175.898 252.687V203.215Z" fill="#E3E3E3"/>
</g>
</g>
<path opacity="0.05" fill-rule="evenodd" clip-rule="evenodd" d="M319.516 381.835C307.974 388.613 281.299 401.153 267.828 395.781C264.781 394.566 262.278 392.407 260.923 389.382C254.91 375.967 276.063 362.219 285.33 356.776C296.871 349.999 323.546 337.458 337.018 342.83C340.065 344.045 342.567 346.204 343.923 349.229C349.935 362.644 328.782 376.392 319.516 381.835Z" fill="url(#paint8_linear_64_621)"/>
<path opacity="0.1" fill-rule="evenodd" clip-rule="evenodd" d="M318.421 379.971C307.622 386.312 281.245 398.803 268.629 393.774C266.106 392.768 264.022 391.008 262.898 388.499C257.583 376.642 278.395 363.361 286.426 358.645C297.225 352.303 323.603 339.813 336.218 344.842C338.741 345.848 340.825 347.608 341.949 350.117C347.265 361.974 326.452 375.254 318.421 379.973V379.971Z" fill="url(#paint9_linear_64_621)"/>
<path opacity="0.15" fill-rule="evenodd" clip-rule="evenodd" d="M317.325 378.104C309.008 382.99 299.712 387.266 290.47 390.066C284.68 391.821 275.278 394.091 269.431 391.762C267.433 390.965 265.764 389.605 264.872 387.613C260.287 377.387 280.754 364.483 287.521 360.509C295.838 355.623 305.134 351.347 314.375 348.548C320.165 346.792 329.568 344.522 335.415 346.851C337.413 347.648 339.082 349.009 339.974 351C344.559 361.227 324.091 374.131 317.325 378.104Z" fill="url(#paint10_linear_64_621)"/>
<path opacity="0.2" fill-rule="evenodd" clip-rule="evenodd" d="M316.228 376.24C308.058 381.038 298.917 385.245 289.841 387.997C284.648 389.571 275.484 391.848 270.23 389.755C268.761 389.169 267.503 388.202 266.845 386.73C265.033 382.686 268.92 377.882 271.527 375.161C276.281 370.198 282.714 365.845 288.617 362.378C296.787 357.58 305.929 353.373 315.004 350.621C320.197 349.047 329.361 346.77 334.615 348.863C336.085 349.449 337.342 350.416 338.001 351.888C339.813 355.932 335.926 360.736 333.319 363.456C328.564 368.42 322.132 372.773 316.228 376.242V376.24Z" fill="url(#paint11_linear_64_621)"/>
<path opacity="0.2" fill-rule="evenodd" clip-rule="evenodd" d="M315.133 374.374C332.469 364.192 340.834 353.668 333.814 350.87C326.793 348.073 307.05 354.058 289.712 364.24C272.376 374.421 264.011 384.945 271.031 387.743C278.052 390.54 297.795 384.555 315.133 374.374Z" fill="url(#paint12_linear_64_621)"/>
<path fill-rule="evenodd" clip-rule="evenodd" d="M431.382 76.5082L413.392 86.8849L413.094 87.0666L412.801 87.2641L412.511 87.4775L412.227 87.7069L411.948 87.9498L411.673 88.2064L411.403 88.4766L411.139 88.7582L410.883 89.0533L410.633 89.3576L410.39 89.6732L410.154 90.0002L409.927 90.334L409.707 90.6768L409.495 91.0265L409.293 91.3852L409.1 91.7508L408.916 92.1209L408.742 92.4979L408.58 92.877L408.428 93.2608L408.287 93.6468L408.158 94.0328L408.042 94.4233L407.938 94.8139L407.845 95.2021L407.767 95.5927L407.702 95.981L407.649 96.367L407.613 96.7507L407.59 97.1299L407.583 97.5068V120.029L407.59 120.397L407.613 120.751L407.649 121.092L407.702 121.419L407.767 121.73L407.845 122.029L407.938 122.313L408.042 122.583L408.158 122.838L408.287 123.076L408.426 123.301L408.578 123.508L408.742 123.701L408.914 123.875L409.096 124.034L409.289 124.175L411.4 125.565L411.21 125.422L411.026 125.263L410.853 125.088L410.69 124.897L410.54 124.688L410.399 124.466L410.27 124.225L410.154 123.971L410.049 123.703L409.959 123.417L409.879 123.119L409.813 122.806L409.763 122.479L409.725 122.138L409.704 121.784L409.695 121.416V98.8964L409.704 98.5195L409.725 98.138L409.763 97.7566L409.813 97.3683L409.879 96.98L409.959 96.5918L410.049 96.2012L410.154 95.8107L410.272 95.4224L410.399 95.0341L410.54 94.6481L410.692 94.2644L410.855 93.8852L411.028 93.5105L411.212 93.1382L411.405 92.7726L411.607 92.4161L411.818 92.0642L412.038 91.7213L412.266 91.3875L412.502 91.0628L412.745 90.7449L412.994 90.4407L413.253 90.1455L413.517 89.8639L413.785 89.5937L414.059 89.3372L414.341 89.0942L414.625 88.8649L414.913 88.6514L415.208 88.4539L415.503 88.2745L433.496 77.8956L433.793 77.7343L434.086 77.5936L434.374 77.4732L434.661 77.3733L434.94 77.2916L435.215 77.2325L435.485 77.1917L435.748 77.1712L436.005 77.169L436.254 77.1849L436.5 77.2212L436.736 77.2757L436.963 77.3461L437.183 77.4369L437.394 77.5436L437.599 77.6685L435.485 76.2812L435.283 76.1563L435.071 76.0473L434.851 75.9587L434.622 75.8861L434.386 75.8339L434.143 75.7975L433.893 75.7794L433.634 75.7816L433.371 75.8043L433.103 75.8452L432.828 75.9042L432.547 75.9837L432.263 76.0836L431.972 76.204L431.679 76.3447L431.382 76.5082Z" fill="#6732A3"/>
<path fill-rule="evenodd" clip-rule="evenodd" d="M408.097 94.2372L408.042 94.4233L407.938 94.8139L407.845 95.2022L407.767 95.5927L407.702 95.981L407.649 96.367L407.613 96.7507L407.59 97.1299L407.583 97.5068V120.029L407.59 120.397L407.613 120.751L407.649 121.092L407.702 121.419L407.767 121.73L407.845 122.029L407.938 122.313L408.042 122.583L408.158 122.838L408.287 123.076L408.426 123.301L408.578 123.508L408.742 123.701L408.914 123.875L409.096 124.034L409.289 124.175L411.4 125.565L411.21 125.422L411.026 125.263L410.853 125.088L410.69 124.897L410.54 124.688L410.399 124.466L410.27 124.225L410.154 123.971L410.049 123.703L409.959 123.417L409.879 123.119L409.813 122.806L409.763 122.479L409.725 122.138L409.704 121.784L409.695 121.416V98.8964L409.704 98.5195L409.725 98.1381L409.763 97.7566L409.813 97.3683L409.879 96.9801L409.959 96.5918L410.049 96.2012L410.154 95.8107L410.254 95.4815L408.097 94.2372Z" fill="#3E0D86"/>
<path fill-rule="evenodd" clip-rule="evenodd" d="M433.496 77.8956L415.504 88.2745C413.91 89.1941 412.459 90.8494 411.405 92.7749C410.349 94.7094 409.695 96.9028 409.695 98.8964V121.419C409.695 123.412 410.349 124.854 411.401 125.567C412.459 126.28 413.91 126.26 415.504 125.34L433.496 114.961C435.088 114.041 436.541 112.386 437.594 110.461C438.65 108.526 439.304 106.333 439.304 104.339V81.8169C439.304 79.821 438.65 78.3815 437.599 77.6708C436.541 76.9578 435.09 76.9783 433.496 77.8978V77.8956Z" fill="#EAD7FD"/>
<path fill-rule="evenodd" clip-rule="evenodd" d="M424.638 112.552C424.177 112.818 423.777 112.854 423.428 112.668C423.078 112.481 422.903 112.046 422.903 111.364C422.903 110.754 423.069 110.145 423.403 109.536C423.737 108.928 424.15 108.481 424.638 108.199C425.135 107.913 425.551 107.881 425.891 108.101C426.232 108.322 426.404 108.735 426.404 109.346C426.404 110.036 426.23 110.674 425.875 111.26C425.521 111.846 425.11 112.277 424.638 112.55V112.552ZM429.863 94.832C429.565 95.3906 429.2 95.7902 428.764 96.0423C428.03 96.4669 427.528 96.208 427.263 95.268C426.986 94.3802 426.643 93.783 426.243 93.4765C425.839 93.1677 425.212 93.2608 424.359 93.7535C423.628 94.1758 423.037 94.7843 422.572 95.5836C422.111 96.3806 421.881 97.1685 421.881 97.945C421.881 98.3424 421.956 98.6716 422.108 98.9214C422.258 99.1712 422.447 99.3733 422.667 99.5231C422.885 99.6707 423.246 99.8751 423.743 100.129C424.306 100.425 424.758 100.702 425.092 100.96C425.426 101.219 425.692 101.589 425.894 102.068C426.096 102.548 426.196 103.197 426.196 104.01C426.196 104.662 426.062 105.225 425.782 105.72C425.508 106.206 425.167 106.567 424.765 106.798C423.986 107.248 423.528 107.012 423.38 106.087C423.296 105.658 423.23 105.365 423.189 105.2C423.146 105.036 423.087 104.882 423.008 104.739C422.933 104.593 422.812 104.453 422.653 104.316C422.494 104.18 422.286 104.037 422.018 103.892C421.066 103.374 420.406 102.993 420.042 102.752C419.672 102.518 419.356 102.164 419.091 101.696C418.825 101.228 418.689 100.581 418.689 99.757C418.689 98.7148 418.923 97.6045 419.391 96.4464C419.858 95.2816 420.521 94.194 421.38 93.1836C422.24 92.1641 423.232 91.3353 424.356 90.6859C425.567 89.9865 426.622 89.6868 427.531 89.7845C428.437 89.8844 429.127 90.2704 429.599 90.9425C430.071 91.6191 430.31 92.4161 430.31 93.3357C430.31 93.783 430.16 94.2825 429.86 94.8366L429.863 94.832Z" fill="#3E0D86"/>
<path fill-rule="evenodd" clip-rule="evenodd" d="M288.486 2.16394L285.918 0.476883L285.664 0.333833L285.387 0.233926L285.091 0.179433L284.778 0.170349L284.449 0.208953L284.106 0.295237L283.749 0.431475L283.384 0.619932L251.278 19.1413L250.912 19.3752L250.555 19.6476L250.213 19.9564L249.883 20.2993L249.57 20.6694L249.275 21.0668L248.998 21.4868L248.741 21.9251L248.51 22.3792L248.303 22.8447L248.124 23.3192L247.971 23.8006L247.851 24.2842L247.763 24.7656L247.708 25.2424L247.69 25.7102V46.1002L247.708 46.5475L247.763 46.9608L247.851 47.34L247.971 47.6828L248.124 47.9871L248.303 48.2528L248.51 48.4798L251.078 50.1669L250.871 49.9398L250.692 49.6742L250.54 49.3699L250.419 49.027L250.331 48.6479L250.276 48.2346L250.258 47.7873V27.3972L250.276 26.9272L250.331 26.4504L250.419 25.969L250.54 25.4854L250.692 25.004L250.871 24.5294L251.078 24.064L251.309 23.6098L251.566 23.1716L251.843 22.7516L252.138 22.3542L252.451 21.9841L252.781 21.6435L253.123 21.3347L253.48 21.0599L253.846 20.8261L285.952 2.30473L286.318 2.11626L286.674 1.98002L287.017 1.89375L287.346 1.85514L287.659 1.86423L287.957 1.91872L288.234 2.01863L288.488 2.16168L288.486 2.16394ZM255.964 48.9884L255.274 60.1144L252.706 58.4274L253.396 47.3014L255.964 48.9884Z" fill="#B274D5"/>
<path fill-rule="evenodd" clip-rule="evenodd" d="M247.683 26.1575V46.098L247.701 46.5453L247.755 46.9585L247.844 47.3377L247.964 47.6806L248.116 47.9848L248.296 48.2505L248.502 48.4776L251.07 50.1646L250.864 49.9376L250.684 49.6719L250.532 49.3677L250.412 49.0248L250.323 48.6456L250.269 48.2324L250.251 47.785V27.6379L247.683 26.1575ZM255.964 48.9885L253.395 47.3014L252.705 58.4274L255.273 60.1145L255.964 48.9885Z" fill="#8C45BC"/>
<path fill-rule="evenodd" clip-rule="evenodd" d="M285.949 2.307L253.843 20.8284C251.868 21.9682 250.251 24.9245 250.251 27.3972V47.7873C250.251 50.26 251.868 51.3521 253.843 50.2123L255.964 48.9884L255.274 60.1144L265.764 43.3346L285.947 31.691C287.923 30.5511 289.539 27.5948 289.539 25.1221V4.73202C289.539 2.25932 287.923 1.16715 285.947 2.307H285.949Z" fill="white"/>
<path fill-rule="evenodd" clip-rule="evenodd" d="M256.361 26.5458L265.5 21.3029V23.6008L256.361 28.8436V26.5458ZM268.44 19.6136L277.827 14.2277V16.5256L268.44 21.9114V19.6136ZM280.77 12.5406L285.166 10.018V12.3159L280.77 14.8385V12.5406ZM256.361 37.808L271.964 28.855V31.1528L256.361 40.1058V37.808ZM274.907 27.1679L278.129 25.3196V27.6175L274.907 29.4658V27.1679ZM281.07 23.6303L285.164 21.2802V23.5781L281.07 25.9282V23.6303ZM256.361 32.3176V34.6155L265.5 29.3727V27.0748L256.361 32.3176ZM268.44 25.3855V27.6833L285.164 18.0877V15.7899L268.44 25.3855Z" fill="#3E0D86"/>
<path fill-rule="evenodd" clip-rule="evenodd" d="M139.175 105.676L136.832 104.137L136.598 104.005L136.346 103.914L136.073 103.865L135.787 103.855L135.487 103.89L135.174 103.969L134.849 104.094L134.513 104.266L105.2 121.176L104.866 121.389L104.541 121.639L104.228 121.923L103.926 122.234L103.64 122.572L103.37 122.935L103.117 123.319L102.884 123.719L102.672 124.132L102.482 124.557L102.318 124.99L102.18 125.431L102.068 125.871L101.987 126.309L101.937 126.745L101.921 127.175V145.789L101.937 146.198L101.987 146.575L102.068 146.922L102.18 147.233L102.318 147.512L102.482 147.755L102.672 147.964L105.016 149.504L104.827 149.297L104.664 149.054L104.523 148.775L104.414 148.462L104.332 148.116L104.282 147.737L104.264 147.331V128.714L104.282 128.285L104.332 127.851L104.414 127.411L104.523 126.97L104.664 126.532L104.827 126.098L105.016 125.674L105.229 125.258L105.463 124.859L105.715 124.475L105.985 124.114L106.271 123.775L106.573 123.462L106.887 123.181L107.211 122.931L107.545 122.717L136.859 105.806L137.193 105.636L137.517 105.511L137.831 105.431L138.133 105.397L138.419 105.404L138.689 105.454L138.941 105.545L139.175 105.676Z" fill="#B274D5"/>
<path fill-rule="evenodd" clip-rule="evenodd" d="M101.921 127.336V145.789L101.937 146.198L101.987 146.575L102.068 146.922L102.18 147.233L102.318 147.512L102.482 147.755L102.672 147.964L105.016 149.504L104.827 149.297L104.664 149.054L104.523 148.775L104.414 148.462L104.332 148.116L104.282 147.737L104.264 147.331V128.714L104.266 128.689L101.921 127.336Z" fill="#8C45BC"/>
<path fill-rule="evenodd" clip-rule="evenodd" d="M136.859 105.806L107.545 122.715C105.742 123.755 104.267 126.455 104.267 128.712V147.329C104.267 149.585 105.742 150.582 107.545 149.542L125.152 139.386L137.361 141.375L134.012 134.275L136.859 132.633C138.664 131.593 140.14 128.893 140.14 126.636V108.02C140.14 105.76 138.664 104.766 136.859 105.806Z" fill="white"/>
<path fill-rule="evenodd" clip-rule="evenodd" d="M108.367 128.703L116.355 124.121V126.418L108.367 131.001V128.703ZM119.298 122.431L137.172 112.175V114.473L119.298 124.729V122.431ZM108.367 139.965L115.794 135.703V138.001L108.367 142.263V139.965ZM118.737 134.016L125.265 130.269V132.567L118.737 136.314V134.016ZM128.208 128.582V130.88L137.172 125.737V123.439L128.208 128.582ZM108.367 134.475V136.772L128.487 125.229V122.931L108.367 134.475ZM131.43 121.241V123.539L137.172 120.245V117.947L131.43 121.241Z" fill="#3E0D86"/>
<path fill-rule="evenodd" clip-rule="evenodd" d="M236.752 179.871C245.669 176.424 252.708 180.711 254.154 190.466L251.043 192.266C249.665 184.487 243.975 181.022 236.752 183.565V179.869V179.871ZM249.145 171.05C248.051 170.757 246.908 170.598 245.732 170.566C245.426 170.559 245.115 170.559 244.804 170.566H244.779C244.645 170.571 244.513 170.575 244.379 170.584L244.165 170.598L243.952 170.611C243.823 170.62 243.693 170.632 243.564 170.645L243.527 170.65C240.251 170.984 236.761 172.221 233.267 174.258L233.217 174.287C233.083 174.365 232.949 174.446 232.815 174.526L232.651 174.626C232.556 174.685 232.461 174.742 232.365 174.803C232.272 174.862 232.177 174.921 232.081 174.98L231.918 175.084C231.786 175.168 231.654 175.255 231.523 175.341L231.464 175.38C227.985 177.684 224.559 180.745 221.391 184.417L221.305 184.519C221.196 184.646 221.087 184.775 220.978 184.905C220.896 185.002 220.815 185.1 220.733 185.198L220.567 185.398C220.431 185.561 220.297 185.727 220.163 185.893L220.149 185.908C219.85 186.281 219.55 186.66 219.255 187.044C218.682 187.786 218.122 188.549 217.572 189.33L219.911 190.754C228.006 179.535 238.718 173.332 246.813 175.178L249.152 171.045L249.145 171.05ZM255.541 212.456C256.322 210.704 257.013 208.948 257.612 207.205C257.769 206.748 257.919 206.294 258.064 205.842L258.08 205.79C258.139 205.604 258.198 205.418 258.255 205.231C258.291 205.116 258.325 205 258.359 204.884C258.386 204.795 258.414 204.707 258.439 204.618C258.493 204.432 258.548 204.244 258.602 204.057L258.618 204.003C259.935 199.348 260.593 194.821 260.582 190.677V190.618C260.582 190.461 260.58 190.304 260.577 190.148L260.573 189.941C260.571 189.834 260.568 189.73 260.564 189.623C260.562 189.51 260.557 189.396 260.552 189.283L260.543 189.094C260.537 188.942 260.53 188.79 260.521 188.64L260.516 188.57C260.273 184.576 259.363 181.031 257.816 178.163L257.778 178.091C257.723 177.991 257.669 177.893 257.612 177.796C257.569 177.718 257.523 177.643 257.478 177.569L257.394 177.428C257.321 177.307 257.246 177.187 257.169 177.067C257.001 176.803 256.829 176.549 256.647 176.299C256.302 175.818 255.932 175.366 255.541 174.939L253.203 179.072C258.702 185.504 258.702 198.229 253.203 211.028L255.541 212.452V212.456ZM217.565 242.038L219.904 237.905C227.999 239.751 238.711 233.548 246.806 222.329L249.145 223.753C248.595 224.536 248.035 225.297 247.462 226.039C247.165 226.425 246.868 226.804 246.566 227.179V227.184C246.427 227.352 246.293 227.515 246.157 227.681L245.964 227.912C245.889 228.001 245.816 228.09 245.741 228.178C245.626 228.314 245.51 228.453 245.392 228.587L245.326 228.664C242.156 232.338 238.727 235.403 235.247 237.708L235.187 237.746C235.056 237.833 234.924 237.919 234.792 238.003L234.631 238.105C234.538 238.164 234.443 238.223 234.35 238.282C234.252 238.344 234.152 238.405 234.054 238.464L233.902 238.557C233.766 238.639 233.63 238.721 233.491 238.8L233.453 238.823C229.961 240.857 226.473 242.097 223.196 242.431L223.121 242.438C223.001 242.449 222.883 242.46 222.765 242.469L222.545 242.485L222.336 242.499C222.202 242.506 222.068 242.51 221.934 242.515H221.909C221.598 242.524 221.289 242.524 220.98 242.515C219.804 242.485 218.662 242.326 217.568 242.033L217.565 242.038ZM211.171 200.631L213.51 202.055C208.011 214.854 208.011 227.579 213.51 234.011L211.171 238.144C210.781 237.717 210.411 237.265 210.065 236.786C209.886 236.539 209.711 236.284 209.546 236.023L209.536 236.007C209.464 235.894 209.391 235.778 209.321 235.66L209.23 235.505C209.187 235.435 209.146 235.365 209.105 235.292C209.048 235.192 208.991 235.09 208.935 234.988L208.898 234.922C207.35 232.054 206.442 228.507 206.199 224.513L206.194 224.445C206.185 224.291 206.176 224.134 206.169 223.977L206.162 223.814C206.158 223.696 206.153 223.578 206.149 223.46C206.144 223.353 206.142 223.246 206.14 223.137L206.135 222.942C206.133 222.785 206.131 222.626 206.131 222.468V222.408C206.119 218.267 206.778 213.746 208.09 209.096L208.12 208.996C208.17 208.823 208.219 208.651 208.269 208.478L208.36 208.172L208.453 207.865C208.512 207.672 208.574 207.479 208.635 207.284L208.646 207.248C208.792 206.794 208.942 206.339 209.098 205.883C209.698 204.137 210.388 202.382 211.169 200.631H211.171ZM233.357 188.729C230.446 190.413 227.729 192.975 225.428 196.01L227.497 197.271C229.236 195.127 231.232 193.322 233.357 192.091C235.483 190.861 237.481 190.352 239.218 190.484L241.286 186.83C238.986 186.458 236.268 187.044 233.357 188.729ZM246.089 189.753L244.02 193.406C244.978 194.916 245.523 196.973 245.523 199.498C245.523 202.023 244.978 204.711 244.02 207.332L246.089 208.59C247.524 205.027 248.355 201.317 248.355 197.859C248.355 194.401 247.524 191.653 246.089 189.753ZM241.284 217.077L239.216 215.819C237.476 217.963 235.48 219.768 233.355 220.998C231.23 222.229 229.232 222.738 227.495 222.606L225.426 226.259C227.726 226.632 230.444 226.046 233.355 224.361C236.266 222.676 238.984 220.115 241.284 217.079V217.077ZM220.624 223.335L222.692 219.681C221.734 218.172 221.189 216.114 221.189 213.589C221.189 211.065 221.734 208.376 222.692 205.758L220.624 204.5C219.189 208.063 218.358 211.773 218.358 215.231C218.358 218.689 219.189 221.437 220.624 223.337V223.335ZM254.154 198.535C252.71 209.963 245.669 222.402 236.752 229.282V225.585C243.972 219.765 249.663 209.711 251.043 200.336L254.154 198.535ZM229.961 233.217V229.52C222.74 232.063 217.05 228.598 215.669 220.819L212.559 222.62C214.003 232.374 221.044 236.661 229.961 233.214V233.217ZM212.559 214.552C214.003 203.124 221.044 190.686 229.961 183.806V187.502C222.74 193.322 217.05 203.376 215.669 212.752L212.559 214.552Z" fill="url(#paint13_radial_64_621)"/>
<path fill-rule="evenodd" clip-rule="evenodd" d="M238.498 211.48L234.461 208.338C232.222 206.625 233.448 204.344 235.026 205.368L244.236 210.445C244.254 210.454 244.247 210.449 244.259 210.467C246.123 213.401 247.987 216.335 249.851 219.268C260.693 221.798 262.101 223.398 258.541 227.59C255.348 231.346 254.083 231.325 245.853 224.793C243.639 224.014 242.015 222.906 240.635 221.661C239.107 222.027 235.776 220.646 235.846 216.773C234.654 215.138 235.158 210.513 238.496 211.482L238.498 211.48Z" fill="#E5C1AF"/>
<path fill-rule="evenodd" clip-rule="evenodd" d="M244.086 210.647L235.635 205.987C234.552 205.286 233.857 206.221 235.263 207.318L240.78 211.498C236.959 214.132 239.098 216.78 240.798 218.09C241.452 218.594 242.529 219.037 243.366 218.837L243.48 218.81L243.566 218.889C244.786 219.99 246.402 222.44 247.876 220.594C248.643 219.634 248.709 217.924 247.601 216.18C246.432 214.339 245.26 212.497 244.086 210.649V210.647Z" fill="#EBD1C4"/>
<path fill-rule="evenodd" clip-rule="evenodd" d="M257.178 229.041C254.799 231.187 252.823 230.324 245.855 224.793C243.641 224.014 242.017 222.906 240.637 221.661C239.109 222.027 235.778 220.646 235.848 216.773C234.804 215.34 235.063 211.607 237.392 211.362C234.954 212.186 235.746 214.977 236.491 215.996C236.418 219.87 240.628 221.08 242.156 220.715C243.534 221.959 245.16 223.069 247.374 223.846C252.857 228.199 255.251 229.659 257.181 229.039L257.178 229.041Z" fill="#D7B3A2"/>
<path fill-rule="evenodd" clip-rule="evenodd" d="M305.075 238.046C314.486 238.226 326.243 237.731 335.51 238.834C336.334 238.873 337.074 238.755 337.735 238.518L337.821 238.493C340.149 237.796 342.483 235.53 343.278 230.807C344.838 221.539 339.801 203.992 338.5 198.385C336.039 187.775 328.41 185.693 324.874 188.345C321.269 191.051 318.712 197.282 320.226 203.771C321.146 207.704 323.13 216.979 325.428 224.595C316.659 224.402 308.839 224.395 304.298 224.679C302.652 224.35 302.536 235.998 305.077 238.046H305.075Z" fill="#ECF8F9"/>
<path fill-rule="evenodd" clip-rule="evenodd" d="M334.461 190.266C331.239 186.898 327.184 186.61 324.875 188.345C321.269 191.051 318.712 197.282 320.227 203.771C321.146 207.704 323.131 216.979 325.429 224.595C316.66 224.402 308.84 224.395 304.298 224.679C302.752 224.368 302.557 234.618 304.639 237.567C313.59 237.553 323.301 237.465 331.375 238.428C332.327 238.473 333.185 238.337 333.948 238.062L334.048 238.035C336.739 237.229 339.434 234.611 340.353 229.152C342.156 218.439 336.334 198.163 334.831 191.685C334.718 191.197 334.593 190.724 334.461 190.268V190.266Z" fill="#DEEBF1"/>
<path fill-rule="evenodd" clip-rule="evenodd" d="M328.398 368.815C325.694 372.927 316.961 369.775 316.966 369.728C316.416 368.42 314.752 367.105 312.068 365.693C309.42 364.301 305.763 362.821 303.494 360.125C300.02 356.506 298.982 354.161 299.409 352.744C299.736 354.161 300.976 356.116 303.494 358.738C305.763 361.433 309.42 362.914 312.068 364.306C314.752 365.718 316.416 367.033 316.966 368.34C316.961 368.388 325.694 371.542 328.398 367.428C328.448 366.819 328.544 366.02 328.582 365.118C328.65 366.583 328.471 367.911 328.398 368.815Z" fill="#3E0D87"/>
<path fill-rule="evenodd" clip-rule="evenodd" d="M305.654 377.305C305.742 378.622 305.599 379.975 305.023 381.401C305.166 382.761 295.129 383.388 294.239 381.614C293.492 381.188 293.706 380.118 289.542 381.401C285.377 382.682 276.731 382.682 275.021 382.148C268.468 380.1 266.656 378.374 267.56 376.976C268.227 378.081 270.491 379.344 275.021 380.758C276.728 381.292 285.377 381.292 289.542 380.011C293.706 378.731 293.492 379.798 294.239 380.225C295.129 381.998 305.168 381.369 305.023 380.011C305.399 379.083 305.59 378.181 305.654 377.305Z" fill="#3E0D87"/>
<path fill-rule="evenodd" clip-rule="evenodd" d="M328.398 367.428C325.694 371.54 316.961 368.388 316.966 368.341C316.416 367.033 314.752 365.716 312.068 364.306C309.421 362.914 305.763 361.433 303.494 358.738C295.77 350.689 300.082 348.929 305.822 349.706C308.844 350.114 312.47 350.986 315.118 352.203C320.072 354.481 325.385 357.989 327.181 359.056C329.136 361.99 328.548 365.589 328.401 367.432L328.398 367.428Z" fill="#781DAF"/>
<path fill-rule="evenodd" clip-rule="evenodd" d="M308.873 362.684C306.93 361.665 304.932 360.446 303.494 358.736C295.77 350.687 300.082 348.927 305.822 349.703C308.844 350.112 312.47 350.984 315.118 352.201C320.072 354.478 325.385 357.987 327.181 359.054C327.842 360.048 328.214 361.115 328.408 362.169C324.647 362.712 320.599 363.007 316.38 363.007C313.805 363.007 311.296 362.896 308.873 362.687V362.684Z" fill="#5F1B98"/>
<path fill-rule="evenodd" clip-rule="evenodd" d="M305.023 372.539C305.661 374.923 306.101 377.343 305.023 380.011C305.166 381.372 295.13 381.998 294.239 380.225C293.492 379.798 293.706 378.729 289.542 380.011C285.377 381.294 276.731 381.294 275.021 380.758C262.342 376.796 267.414 374.037 275.555 372.537C279.742 371.765 289.869 367.618 292.959 367.519C296.98 369.192 301.001 370.865 305.025 372.537L305.023 372.539Z" fill="#9F67C9"/>
<path fill-rule="evenodd" clip-rule="evenodd" d="M274.61 380.631C262.455 376.739 267.503 374.024 275.555 372.541C279.742 371.769 289.868 367.623 292.959 367.523L301.346 371.011C297.307 375.865 287.155 379.575 274.612 380.631H274.61Z" fill="#8D45BD"/>
<path fill-rule="evenodd" clip-rule="evenodd" d="M306.258 260.073C308.272 260.073 310.284 260.073 312.298 260.073C316.278 260.073 324.191 254.801 328.171 254.801C328.689 258.339 328.771 268.484 328.726 271.871C328.548 285.014 325.088 297.266 325.722 310.311C326.064 317.386 327.347 324.17 327.679 330.998C328.285 343.502 329.114 350.771 329.72 363.275C329.965 364.828 313.637 365.77 311.859 361.822C310.947 343.012 309.634 326.153 306.408 310.706C305.032 294.748 306.076 276.742 306.26 260.071L306.258 260.073Z" fill="#130B3C"/>
<path fill-rule="evenodd" clip-rule="evenodd" d="M285.793 253.859C293.009 253.859 316.975 248.604 316.789 265.602C317.927 286.253 310.504 281.219 309.119 300.949C308.635 307.829 305.836 315.281 305.836 322.138C305.836 329.318 306.982 336.198 306.982 343.125C306.982 355.811 306.558 361.94 306.558 374.623C306.88 377.096 291.474 377.459 289.916 374.199C289.916 355.119 288.318 332.36 285.334 316.691C285.087 309.327 283.184 300.393 282.993 291.539C282.843 284.539 283.395 277.537 283.936 270.888C284.197 267.678 285.616 256.869 285.793 253.863V253.859Z" fill="#1E145A"/>
<path fill-rule="evenodd" clip-rule="evenodd" d="M328.728 271.874C328.551 285.014 325.09 297.268 325.724 310.313C326.067 317.388 327.349 324.173 327.681 331C328.23 342.342 328.964 349.376 329.547 359.917C329.843 365.241 319.527 363.316 319.4 360.534C318.487 341.727 318.646 325.233 315.417 309.786C314.341 290.089 319.218 281.987 320.665 272.714C321.278 268.788 328.814 265.33 328.728 271.869V271.874Z" fill="#1E145A"/>
<path fill-rule="evenodd" clip-rule="evenodd" d="M316.026 278.122C314.207 285.386 310.109 286.812 309.119 300.947C308.635 307.824 305.835 315.279 305.835 322.136C305.835 329.316 306.982 336.195 306.982 343.123C306.982 355.319 306.417 361.454 306.557 373.179C306.594 376.074 301.206 375.463 300.397 373.829C300.397 354.749 298.799 331.993 295.815 316.321C295.568 308.957 293.665 300.025 293.474 291.169C293.381 286.853 293.558 282.536 293.831 278.302C294.092 274.249 301.512 272.332 307.815 271.708C310.166 271.474 312.411 270.704 314.116 271.256C316.575 272.055 316.505 276.204 316.024 278.125L316.026 278.122Z" fill="#2B2467"/>
<path fill-rule="evenodd" clip-rule="evenodd" d="M329.507 258.291C329.57 260.341 329.64 262.351 329.706 264.194C326.432 271.613 283.729 275.184 283.858 268.327C283.999 266.872 284.246 264.699 284.526 262.301C298.308 262.678 316.927 261.122 329.507 258.293V258.291Z" fill="#CEDEE8"/>
<path fill-rule="evenodd" clip-rule="evenodd" d="M303.96 271.735C293.467 272.491 283.795 271.594 283.858 268.325C283.972 267.144 284.158 265.491 284.371 263.625C285.661 263.545 286.998 263.504 288.372 263.504C298.731 263.504 307.13 265.87 307.13 268.792C307.13 269.882 305.96 270.893 303.958 271.735H303.96Z" fill="#B9CCDD"/>
<path fill-rule="evenodd" clip-rule="evenodd" d="M295.234 195.513C303.204 191.796 311.373 190.102 319.738 187.704C335.553 183.172 339.25 194.607 337.37 205.84C335.067 219.593 330.937 225.744 329.699 234.69C329.143 238.707 329.54 251.229 329.827 260.169C326.532 268.379 283.558 272.332 283.688 264.742C284.119 259.803 285.577 247.383 285.84 243.2C286.263 236.445 283.499 220.322 283.713 213.281C284.001 203.867 285.427 200.084 295.232 195.511L295.234 195.513Z" fill="#DEEBF1"/>
<path fill-rule="evenodd" clip-rule="evenodd" d="M302.641 195.125C303.245 192.818 303.306 190.409 302.641 187.863C301.353 187.68 300.023 187.493 298.649 187.305C294.676 186.758 295.118 185.407 294.448 181.313C294.194 179.757 293.997 178.145 293.869 176.653C293.513 172.398 294.989 172.319 295.032 171.102C295.075 169.926 294.178 168.207 294.29 167.219C294.923 161.686 296.592 158.934 298.71 157.396C304.621 159.063 310.533 160.73 316.444 162.394C316.646 172.396 316.85 182.398 319.3 191.435C319.645 192.312 315.844 194.071 311.732 194.911C307.202 195.838 302.316 195.779 302.639 195.125H302.641Z" fill="#EBD1C4"/>
<path fill-rule="evenodd" clip-rule="evenodd" d="M301.801 175.638C302.9 175.114 303.479 175.566 303.944 176.233C304.739 172.948 306.328 172.242 308.126 174.106C310.061 176.113 310.322 180.663 307.198 179.81C308.789 182.221 309.493 184.732 309.657 187.303C312.872 187.418 315.701 187.035 318.122 186.117C318.955 181.358 322.415 178.254 323.583 176.233C326.319 171.497 326.294 166.849 325.008 163.064C322.947 156.985 319.082 154.097 312.87 153.393C307.795 152.819 300.629 153.296 297.502 155.257C294.591 157.088 296.054 160.064 301.356 162.517C298.667 168.865 302.854 171.433 301.801 175.638Z" fill="#934C23"/>
<path fill-rule="evenodd" clip-rule="evenodd" d="M301.8 175.638C302.899 175.114 303.478 175.566 303.942 176.233C304.736 172.948 306.326 172.242 308.124 174.106C310.059 176.113 310.32 180.663 307.195 179.81C308.787 182.221 309.491 184.732 309.652 187.303C310.088 187.318 310.52 187.325 310.942 187.323C312.302 184.246 314.107 181.98 314.888 180.311C317.624 174.455 317.599 168.713 316.314 164.033C314.738 158.298 312.113 154.86 308.197 153.169C304.062 153.207 299.741 153.85 297.5 155.257C294.589 157.085 296.051 160.064 301.353 162.517C298.665 168.865 302.852 171.431 301.8 175.638Z" fill="#844018"/>
<path fill-rule="evenodd" clip-rule="evenodd" d="M297.491 187.012C303.506 186.676 309.005 186.217 308.928 183.39C309.346 184.675 309.57 185.981 309.654 187.303C312.87 187.418 315.699 187.035 318.119 186.117V186.113C318.201 186.569 318.287 187.023 318.376 187.477C315.245 189.503 307.07 190.656 303.099 190.831C303.054 189.862 302.902 188.874 302.638 187.863C300.951 187.625 299.3 187.262 297.491 187.012Z" fill="#E5C1AF"/>
<path fill-rule="evenodd" clip-rule="evenodd" d="M321.044 156.672C320.435 156.132 319.809 155.689 319.107 155.278C317.458 154.352 315.86 153.872 314.007 153.552C312.96 153.387 311.936 153.291 310.881 153.23C309.175 153.141 307.495 153.15 305.792 153.262C304.561 153.348 303.369 153.484 302.155 153.7C301.151 153.886 300.206 154.113 299.241 154.447C298.519 154.71 297.877 154.996 297.243 155.435C296.521 155.973 295.972 156.654 296.035 157.599C296.097 158.255 296.351 158.734 296.737 159.261C297.364 160.067 298.12 160.657 298.967 161.216C299.745 161.715 300.522 162.126 301.358 162.519C302.947 161.992 307.89 158.159 313.907 158.214C316.241 158.234 319.427 157.744 321.048 156.674L321.044 156.672Z" fill="#6F3818"/>
<path fill-rule="evenodd" clip-rule="evenodd" d="M301.962 196.226C302.01 195.354 302.021 195.4 302.132 194.464C303.377 194.959 307.922 195.073 312.08 194.167C315.536 193.413 318.678 191.789 319.852 190.606C319.981 191.469 319.918 191.394 320.068 192.248C320.147 193.61 316.594 195.649 312.087 196.617C307.123 197.682 301.944 197.234 301.962 196.228V196.226Z" fill="#CEDEE8"/>
<path fill-rule="evenodd" clip-rule="evenodd" d="M274.295 379.571C267.203 377.457 267.328 375.425 270.532 374.203C271.191 373.951 270.966 374.376 270.793 374.621C269.901 375.895 270.757 377.416 274.44 379.214C274.98 379.478 274.973 379.775 274.295 379.573V379.571Z" fill="#781DAF"/>
<path fill-rule="evenodd" clip-rule="evenodd" d="M334.243 189.734C337.74 193.331 338.412 199.616 337.369 205.842C335.067 219.595 330.937 225.746 329.699 234.692C329.143 238.709 329.54 251.232 329.827 260.171C327.849 265.103 311.562 268.495 298.892 268.777C298.626 260.266 298.37 250.005 298.865 246.443C300.102 237.499 304.232 231.346 306.535 217.593C307.05 214.511 307.145 211.416 306.687 208.64C305.429 201.019 313.426 198.531 318.074 196.546C320.092 195.683 321.827 194.516 323.099 193.061C324.942 190.949 324.768 188.408 328.117 187.884C330.646 187.489 333.491 188.962 334.241 189.732L334.243 189.734Z" fill="#F1FBFC"/>
<path fill-rule="evenodd" clip-rule="evenodd" d="M289.501 268.248C285.94 267.637 283.661 266.499 283.69 264.744C284.122 259.805 285.579 247.385 285.843 243.203C286.265 236.448 283.502 220.324 283.715 213.283C283.999 204.035 285.38 200.222 294.723 195.756C290.482 199.528 289.662 203.86 289.453 211.555C289.237 219.436 292.003 237.485 291.581 245.049C291.331 249.49 290.007 262.23 289.503 268.248H289.501Z" fill="#CEDEE8"/>
<path fill-rule="evenodd" clip-rule="evenodd" d="M248.707 230.41C256.493 235.701 266.611 241.709 273.77 247.694C279.907 253.888 288.211 240.803 282.119 236.52C271.592 229.114 260.921 221.941 255.358 218.789C254.159 217.613 247.699 227.308 248.707 230.41Z" fill="#DEEBF1"/>
<path fill-rule="evenodd" clip-rule="evenodd" d="M299.362 216.155C297.309 221.532 291.689 238.902 285.218 245.719C281.921 249.193 278.722 249.769 276.399 249.047C273.159 248.039 271.417 244.284 271.647 240.464C272.076 233.282 279.031 216.123 281.194 210.42C283.563 204.191 289.162 200.449 293.665 200.218C298.079 199.991 303.244 205.978 299.362 216.155Z" fill="#DEEBF1"/>
<path fill-rule="evenodd" clip-rule="evenodd" d="M297.7 218.848C295.861 223.283 289.828 239.906 284.467 245.221C280.18 249.47 279.867 244.751 280.986 240.185C282.342 234.658 287.995 222.311 289.943 217.611C292.071 212.475 295.345 208.676 297.532 207.727C299.675 206.798 301.185 210.456 297.702 218.848H297.7Z" fill="#E8F4F7"/>
<path fill-rule="evenodd" clip-rule="evenodd" d="M101.873 343.105L83.881 353.484L83.5858 353.663L83.2906 353.861L83.0023 354.074L82.7184 354.304L82.4369 354.547L82.1621 354.803L81.8942 355.073L81.6308 355.355L81.372 355.65L81.1222 355.954L80.8792 356.27L80.6431 356.597L80.416 356.931L80.1958 357.274L79.9846 357.625L79.7825 357.982L79.5895 358.348L79.4056 358.72L79.233 359.095L79.0696 359.474L78.9174 359.858L78.7789 360.244L78.6495 360.632L78.5314 361.02L78.427 361.411L78.3361 361.801L78.2567 362.189L78.1931 362.578L78.1409 362.966L78.1045 363.347L78.0818 363.729L78.0728 364.106V386.626L78.0818 386.994L78.1045 387.348L78.1409 387.688L78.1908 388.015L78.2567 388.329L78.3361 388.626L78.427 388.91L78.5314 389.18L78.6472 389.434L78.7766 389.675L78.9174 389.898L79.0696 390.104L79.2308 390.297L79.4033 390.472L79.5872 390.631L79.7803 390.774L81.8919 392.161L81.6989 392.021L81.5173 391.862L81.3447 391.685L81.1812 391.494L81.0291 391.285L80.8906 391.063L80.7612 390.824L80.6454 390.57L80.5386 390.3L80.4478 390.016L80.3706 389.716L80.3048 389.403L80.2525 389.076L80.2162 388.735L80.1935 388.381L80.1867 388.015V365.493L80.1935 365.116L80.2162 364.737L80.2525 364.353L80.3048 363.967L80.3706 363.579L80.4478 363.188L80.5409 362.798L80.6454 362.41L80.7612 362.019L80.8906 361.631L81.0314 361.245L81.1835 360.863L81.3447 360.482L81.5195 360.107L81.7035 359.737L81.8965 359.372L82.0985 359.013L82.3097 358.663L82.5277 358.32L82.757 357.984L82.9932 357.66L83.2361 357.344L83.4859 357.037L83.7425 356.745L84.0059 356.461L84.2761 356.19L84.5508 355.934L84.8301 355.691L85.1139 355.464L85.4045 355.25L85.6975 355.053L85.9949 354.871L103.985 344.492L104.282 344.331L104.575 344.19L104.866 344.07L105.15 343.97L105.431 343.891L105.706 343.829L105.974 343.788L106.237 343.768L106.494 343.766L106.746 343.784L106.989 343.818L107.225 343.872L107.454 343.945L107.675 344.034L107.886 344.143L108.088 344.268L105.976 342.878L105.774 342.753L105.561 342.646L105.341 342.555L105.113 342.485L104.877 342.431L104.632 342.394L104.382 342.378L104.126 342.381L103.862 342.401L103.592 342.442L103.317 342.501L103.038 342.583L102.752 342.683L102.464 342.803L102.171 342.944L101.873 343.105Z" fill="#6732A3"/>
<path fill-rule="evenodd" clip-rule="evenodd" d="M78.5882 360.836L78.5314 361.02L78.427 361.411L78.3361 361.801L78.2567 362.189L78.1931 362.578L78.1409 362.966L78.1045 363.347L78.0818 363.729L78.0728 364.106V386.626L78.0818 386.994L78.1045 387.348L78.1409 387.688L78.1908 388.015L78.2567 388.329L78.3361 388.626L78.427 388.91L78.5314 389.18L78.6472 389.434L78.7766 389.675L78.9174 389.898L79.0696 390.104L79.2308 390.297L79.4033 390.472L79.5872 390.631L79.7803 390.774L81.8919 392.161L81.6989 392.021L81.5173 391.862L81.3447 391.685L81.1812 391.494L81.0291 391.285L80.8906 391.062L80.7612 390.824L80.6454 390.57L80.5386 390.3L80.4478 390.016L80.3706 389.716L80.3048 389.403L80.2525 389.076L80.2162 388.735L80.1935 388.381L80.1867 388.015V365.493L80.1935 365.116L80.2162 364.737L80.2525 364.353L80.3048 363.967L80.3706 363.579L80.4478 363.188L80.5409 362.798L80.6454 362.41L80.743 362.078L78.5882 360.836Z" fill="#3E0D86"/>
<path fill-rule="evenodd" clip-rule="evenodd" d="M103.985 344.492L85.9928 354.871C84.3988 355.791 82.9479 357.446 81.8943 359.372C80.8385 361.306 80.1846 363.5 80.1846 365.493V388.015C80.1846 390.009 80.8385 391.451 81.8898 392.164C82.9479 392.877 84.3988 392.856 85.9928 391.937L103.985 381.558C105.577 380.638 107.03 378.983 108.084 377.057C109.139 375.123 109.793 372.929 109.793 370.936V348.414C109.793 346.418 109.139 344.978 108.088 344.268C107.03 343.555 105.579 343.575 103.985 344.495V344.492Z" fill="#EAD7FD"/>
<path fill-rule="evenodd" clip-rule="evenodd" d="M95.13 379.149C94.669 379.414 94.2694 379.451 93.9197 379.264C93.5701 379.078 93.3952 378.642 93.3952 377.961C93.3952 377.35 93.561 376.742 93.8948 376.133C94.2285 375.525 94.6418 375.077 95.13 374.796C95.6272 374.51 96.0428 374.478 96.3834 374.698C96.724 374.918 96.8942 375.332 96.8942 375.942C96.8942 376.633 96.7194 377.271 96.3652 377.857C96.011 378.442 95.6 378.874 95.1277 379.146L95.13 379.149ZM100.352 361.429C100.055 361.987 99.6894 362.387 99.2534 362.639C98.52 363.064 98.0182 362.805 97.7525 361.865C97.4755 360.977 97.1327 360.38 96.733 360.073C96.3289 359.764 95.7022 359.857 94.8484 360.35C94.1173 360.773 93.5269 361.381 93.0615 362.18C92.6005 362.977 92.3712 363.765 92.3712 364.542C92.3712 364.939 92.4461 365.268 92.5982 365.52C92.7481 365.77 92.9366 365.972 93.1568 366.122C93.3748 366.27 93.7358 366.474 94.2331 366.728C94.7962 367.024 95.2481 367.301 95.5818 367.559C95.9156 367.818 96.1813 368.188 96.3834 368.667C96.5854 369.147 96.6853 369.796 96.6853 370.609C96.6853 371.261 96.5514 371.824 96.2721 372.319C95.9974 372.805 95.6568 373.166 95.2549 373.397C94.476 373.847 94.0174 373.611 93.8698 372.686C93.7858 372.257 93.7199 371.964 93.6791 371.799C93.6359 371.635 93.5769 371.481 93.4974 371.338C93.4225 371.192 93.3021 371.052 93.1432 370.915C92.9843 370.779 92.7754 370.636 92.5074 370.491C91.556 369.973 90.8953 369.592 90.532 369.351C90.1619 369.117 89.8463 368.763 89.5806 368.295C89.315 367.827 89.1787 367.18 89.1787 366.356C89.1787 365.314 89.4126 364.203 89.8803 363.045C90.3481 361.881 91.0111 360.793 91.8694 359.783C92.73 358.763 93.7222 357.934 94.8462 357.285C96.0564 356.586 97.1122 356.286 98.0205 356.383C98.9264 356.483 99.6167 356.869 100.089 357.541C100.561 358.218 100.8 359.015 100.8 359.935C100.8 360.382 100.65 360.882 100.35 361.436L100.352 361.429Z" fill="#3E0D86"/>
<defs>
<linearGradient id="paint0_linear_64_621" x1="314.513" y1="396.532" x2="0.0273438" y2="396.532" gradientUnits="userSpaceOnUse">
<stop stop-color="#B52E94"/>
<stop offset="1" stop-color="#4C0A7C"/>
</linearGradient>
<linearGradient id="paint1_linear_64_621" x1="538.173" y1="329.375" x2="116.675" y2="329.375" gradientUnits="userSpaceOnUse">
<stop stop-color="#B52E94"/>
<stop offset="1" stop-color="#4C0A7C"/>
</linearGradient>
<linearGradient id="paint2_linear_64_621" x1="486.775" y1="420.546" x2="223.873" y2="420.546" gradientUnits="userSpaceOnUse">
<stop stop-color="#B52E94"/>
<stop offset="1" stop-color="#4C0A7C"/>
</linearGradient>
<linearGradient id="paint3_linear_64_621" x1="159.965" y1="326.988" x2="231.484" y2="326.988" gradientUnits="userSpaceOnUse">
<stop stop-color="#1F3642"/>
<stop offset="1" stop-color="#1F3642"/>
</linearGradient>
<linearGradient id="paint4_linear_64_621" x1="161.792" y1="326.988" x2="229.656" y2="326.988" gradientUnits="userSpaceOnUse">
<stop stop-color="#1F3642"/>
<stop offset="1" stop-color="#1F3642"/>
</linearGradient>
<linearGradient id="paint5_linear_64_621" x1="163.616" y1="326.988" x2="227.833" y2="326.988" gradientUnits="userSpaceOnUse">
<stop stop-color="#1F3642"/>
<stop offset="1" stop-color="#1F3642"/>
</linearGradient>
<linearGradient id="paint6_linear_64_621" x1="165.439" y1="326.988" x2="226.01" y2="326.988" gradientUnits="userSpaceOnUse">
<stop stop-color="#1F3642"/>
<stop offset="1" stop-color="#1F3642"/>
</linearGradient>
<linearGradient id="paint7_linear_64_621" x1="167.26" y1="326.988" x2="224.187" y2="326.988" gradientUnits="userSpaceOnUse">
<stop stop-color="#1F3642"/>
<stop offset="1" stop-color="#1F3642"/>
</linearGradient>
<linearGradient id="paint8_linear_64_621" x1="259.865" y1="369.308" x2="344.981" y2="369.308" gradientUnits="userSpaceOnUse">
<stop stop-color="#1F3642"/>
<stop offset="1" stop-color="#1F3642"/>
</linearGradient>
<linearGradient id="paint9_linear_64_621" x1="262.04" y1="369.308" x2="342.805" y2="369.308" gradientUnits="userSpaceOnUse">
<stop stop-color="#1F3642"/>
<stop offset="1" stop-color="#1F3642"/>
</linearGradient>
<linearGradient id="paint10_linear_64_621" x1="264.209" y1="369.308" x2="340.637" y2="369.308" gradientUnits="userSpaceOnUse">
<stop stop-color="#1F3642"/>
<stop offset="1" stop-color="#1F3642"/>
</linearGradient>
<linearGradient id="paint11_linear_64_621" x1="266.379" y1="369.308" x2="338.466" y2="369.308" gradientUnits="userSpaceOnUse">
<stop stop-color="#1F3642"/>
<stop offset="1" stop-color="#1F3642"/>
</linearGradient>
<linearGradient id="paint12_linear_64_621" x1="268.547" y1="369.308" x2="336.298" y2="369.308" gradientUnits="userSpaceOnUse">
<stop stop-color="#1F3642"/>
<stop offset="1" stop-color="#1F3642"/>
</linearGradient>
<radialGradient id="paint13_radial_64_621" cx="0" cy="0" r="1" gradientUnits="userSpaceOnUse" gradientTransform="translate(233.355 206.544) scale(31.9043 31.9043)">
<stop offset="0.39" stop-color="white"/>
<stop offset="1" stop-color="white"/>
</radialGradient>
</defs>
</svg>
