<svg width="309" height="308" viewBox="0 0 309 308" fill="none" xmlns="http://www.w3.org/2000/svg">
<g style="mix-blend-mode:screen" opacity="0.7">
<path opacity="0.3" d="M308.299 153.706C308.299 238.612 239.448 307.464 154.542 307.464C69.6353 307.464 0.844238 238.612 0.844238 153.706C0.844238 68.7996 69.6954 0.00857544 154.542 0.00857544C239.388 0.00857544 308.299 68.8597 308.299 153.706Z" fill="#6D6E70"/>
<mask id="mask0_61_128" style="mask-type:luminance" maskUnits="userSpaceOnUse" x="0" y="0" width="309" height="308">
<path d="M308.299 153.706C308.299 238.612 239.448 307.464 154.542 307.464C69.6353 307.464 0.844238 238.612 0.844238 153.706C0.844238 68.7996 69.6954 0.00857544 154.542 0.00857544C239.388 0.00857544 308.299 68.8597 308.299 153.706Z" fill="white"/>
</mask>
<g mask="url(#mask0_61_128)">
<path fill-rule="evenodd" clip-rule="evenodd" d="M326.46 310.109C324.295 304.457 321.288 299.225 317.56 294.475C311.667 286.958 303.85 281.607 295.311 277.578C292.846 276.375 290.381 274.992 287.675 274.331C279.136 272.406 270.657 270.121 262.239 267.596C259.232 267.776 256.707 266.694 254.422 264.83C248.168 262.304 241.674 260.44 235.841 256.953C233.796 256.652 231.872 256.111 230.429 254.427C229.347 254.126 228.505 253.465 227.422 253.164C224.416 252.443 221.89 250.879 219.906 248.414C218.763 247.632 217.501 246.971 216.418 246.069C215.035 245.347 214.193 244.385 213.772 242.701C213.291 240.476 212.63 238.312 212.029 236.147C211.247 233.982 211.187 231.637 210.766 229.352C210.465 228.089 210.164 227.007 208.781 226.646C207.459 225.985 206.136 226.646 204.873 226.887C202.287 227.428 200.904 226.646 200.423 223.88C200.122 221.896 199.581 219.911 199.521 217.987C199.281 213.597 198.619 209.027 202.828 205.78C207.759 195.858 211.307 185.516 214.253 174.933C214.915 172.527 215.997 170.543 219.244 170.423C221.109 170.423 222.672 169.04 223.333 166.995C225.197 160.741 227.001 154.488 229.888 148.595C230.79 144.325 232.894 140.296 233.075 135.847C233.075 134.945 233.255 134.043 233.195 133.201C233.075 132.84 232.955 132.539 232.714 132.239C232.534 132.119 232.353 131.998 232.233 131.878C232.353 129.954 232.473 128.03 232.413 126.165C232.293 123.52 231.03 121.295 228.445 120.633C226.039 120.032 225.618 118.709 225.739 116.544C226.28 108.186 226.761 99.7675 227.242 91.349C227.362 91.0484 227.302 90.8078 227.122 90.5673C227.242 90.447 227.242 90.2666 227.122 90.0862C226.881 87.5607 226.641 84.975 226.34 82.4495C225.679 76.3762 225.017 70.2427 221.83 64.8308C215.697 54.428 207.158 46.4906 196.454 41.0185C187.375 36.3884 177.513 34.1033 167.591 32.119C146.966 27.9699 128.626 32.6 112.63 46.25C112.691 46.3703 112.751 46.5507 112.751 46.6709C110.947 47.8134 109.504 49.3769 108.481 51.241C106.557 54.8489 103.791 57.7352 100.905 60.4412C95.5529 65.4321 92.6665 71.2649 93.5084 78.6011C93.328 78.6612 93.0875 78.7814 92.9071 78.9618C92.6666 79.2625 92.4261 79.5632 92.2457 79.8638C90.9829 85.877 92.6064 91.8301 92.5462 97.7831C93.9894 102.834 94.0496 108.066 94.4705 113.237C94.711 116.063 93.9293 117.988 91.1632 118.95C87.6756 120.212 86.2925 122.978 85.8115 126.346C85.3304 129.894 85.2102 133.381 86.1723 136.929C87.5553 141.86 88.9384 146.791 90.562 151.601C93.0875 155.69 94.6509 160.26 95.5528 164.89C96.1542 167.957 97.417 169.701 100.123 170.723C102.348 171.505 103.55 173.008 104.031 175.293C104.813 178.901 106.136 182.329 107.279 185.816C108.541 188.643 110.646 191.168 110.646 194.475C110.646 194.836 110.766 195.137 110.887 195.498C116.96 205.179 120.207 215.341 116.238 226.706C114.194 228.931 112.149 226.586 110.045 226.586C108 226.586 106.256 226.345 105.775 228.871C104.212 233.802 103.37 238.973 101.807 243.904C100.965 246.61 99.5817 248.594 96.996 249.857C91.3436 252.683 85.6311 255.329 79.5578 257.013C75.529 259.899 70.6582 260.741 66.0882 262.425C57.2488 265.672 48.0486 267.536 38.9687 269.941C27.8442 272.888 17.0806 276.616 7.82027 283.711C3.06984 289.484 -3.12375 294.234 -5.4689 301.811C-5.4689 305.058 -5.2885 308.305 -5.4689 311.492C-5.64929 314.018 -4.9277 314.559 -2.40215 314.559C107.098 314.499 216.599 314.499 326.099 314.499C327.723 313.176 327.302 311.673 326.64 309.989L326.46 310.109Z" fill="#6D6E70"/>
</g>
</g>
</svg>
