<svg width="119" height="152" viewBox="0 0 119 152" fill="none" xmlns="http://www.w3.org/2000/svg">
<path d="M116.239 152H2.28137C1.02153 152 0 150.978 0 149.719C0 148.459 1.02153 147.437 2.28137 147.437H116.239C117.499 147.437 118.52 148.459 118.52 149.719C118.52 150.978 117.499 152 116.239 152H116.239Z" fill="white"/>
<path d="M105.006 142.729H100.444V54.9849H18.0764V142.729H13.5137V50.4221H105.006V142.729Z" fill="white"/>
<path d="M73.6297 142.729H69.067V124.154H49.4531V142.729H44.8904V119.591H73.6297V142.729Z" fill="white"/>
<path d="M43.1484 110.527H24.4521V91.8306H43.1484V110.527ZM29.0149 105.964H38.5857V96.3933H29.0149V105.964Z" fill="white"/>
<path d="M68.6084 110.527H49.9121V91.8306H68.6084V110.527ZM54.4749 105.964H64.0456V96.3933H54.4749V105.964Z" fill="white"/>
<path d="M94.0681 110.527H75.3718V91.8306H94.0681V110.527ZM79.935 105.964H89.5058V96.3933H79.935V105.964Z" fill="white"/>
<path d="M43.1484 83.1772H24.4521V64.481H43.1484V83.1772ZM29.0149 78.6145H38.5857V69.0437H29.0149V78.6145Z" fill="white"/>
<path d="M68.6084 83.1772H49.9121V64.481H68.6084V83.1772ZM54.4749 78.6145H64.0456V69.0437H54.4749V78.6145Z" fill="white"/>
<path d="M94.0681 83.1772H75.3718V64.481H94.0681V83.1772ZM79.935 78.6145H89.5058V69.0437H79.935V78.6145Z" fill="white"/>
<path d="M48.5713 37.4603C48.0981 37.4603 47.6275 37.3135 47.2303 37.0245C46.5278 36.514 46.1757 35.6492 46.3226 34.7929L48.1612 24.0727L40.3725 16.4806C39.7507 15.8743 39.527 14.9678 39.7954 14.1421C40.0637 13.3164 40.7778 12.7144 41.637 12.5894L52.4006 11.0256L57.2142 1.27187C57.5985 0.492944 58.3916 0 59.2598 0C60.128 0 60.9211 0.492944 61.3059 1.27187L66.1194 11.0256L76.883 12.5894C77.7422 12.7144 78.4563 13.3164 78.7247 14.1421C78.993 14.9678 78.7693 15.8747 78.1476 16.481L70.3588 24.0731L72.1974 34.7934C72.3443 35.6492 71.9922 36.5144 71.2897 37.0249C70.5872 37.5355 69.6554 37.6025 68.8872 37.1984L59.2598 32.1371L49.6323 37.1984C49.2987 37.374 48.9342 37.4603 48.5709 37.4603H48.5713ZM46.8679 16.4402L52.2053 21.6428C52.7429 22.167 52.9885 22.9219 52.8614 23.6622L51.6015 31.0083L58.1988 27.54C58.8635 27.1905 59.6574 27.1905 60.3221 27.54L66.9193 31.0083L65.6595 23.6622C65.5324 22.9219 65.778 22.167 66.3156 21.6428L71.653 16.4402L64.2768 15.3684C63.5336 15.2607 62.8912 14.7939 62.5588 14.1206L59.2602 7.43668L55.9616 14.1206C55.6293 14.7939 54.9869 15.2607 54.244 15.3684L46.8679 16.4402Z" fill="white"/>
<path d="M83.4471 46.6802C82.9739 46.6802 82.5032 46.5334 82.1056 46.2444C81.4031 45.7338 81.051 44.869 81.1979 44.0128L82.5878 35.908L76.6991 30.1683C76.0774 29.562 75.8536 28.6555 76.122 27.8298C76.3904 27.0041 77.1045 26.4021 77.9637 26.2771L86.1016 25.0946L89.7407 17.7206C90.125 16.9417 90.9181 16.4487 91.7867 16.4487C92.6554 16.4487 93.4481 16.9417 93.8324 17.7206L97.4715 25.0946L105.609 26.2771C106.469 26.4021 107.183 27.0041 107.451 27.8298C107.719 28.6555 107.496 29.5624 106.874 30.1683L100.985 35.908L102.375 44.0128C102.522 44.8686 102.17 45.7338 101.467 46.2444C100.765 46.7549 99.8336 46.8219 99.065 46.4179L91.7863 42.5911L84.5077 46.4179C84.174 46.5935 83.8095 46.6798 83.4462 46.6798L83.4471 46.6802ZM83.1946 30.1279L86.6319 33.4785C87.1695 34.0028 87.4151 34.7577 87.288 35.4979L86.4764 40.229L90.7249 37.9953C91.3896 37.6458 92.1835 37.6458 92.8482 37.9953L97.0966 40.229L96.2851 35.4979C96.158 34.7581 96.4036 34.0028 96.9412 33.4785L100.378 30.1279L95.6285 29.4375C94.8852 29.3297 94.2429 28.8629 93.9105 28.1897L91.7863 23.8854L89.6621 28.1897C89.3297 28.8629 88.6874 29.3297 87.9441 29.4375L83.1941 30.1279H83.1946Z" fill="white"/>
<path d="M35.0736 46.6803C34.7104 46.6803 34.3462 46.5935 34.0122 46.4183L26.7335 42.5916L19.4549 46.4183C18.6862 46.8224 17.7549 46.755 17.0524 46.2449C16.3499 45.7343 15.9978 44.8695 16.1447 44.0133L17.5346 35.9085L11.6459 30.1688C11.0241 29.5625 10.8004 28.656 11.0688 27.8303C11.3372 27.0046 12.0512 26.4026 12.9105 26.2776L21.0483 25.0951L24.6875 17.7211C25.0718 16.9422 25.8649 16.4492 26.7331 16.4492C27.6013 16.4492 28.3944 16.9422 28.7787 17.7211L32.4183 25.0951L40.5561 26.2776C41.4154 26.4026 42.1294 27.0046 42.3978 27.8303C42.6662 28.656 42.4425 29.5629 41.8207 30.1688L35.932 35.9085L37.3219 44.0133C37.4688 44.8691 37.1167 45.7343 36.4142 46.2449C36.0166 46.5339 35.546 46.6807 35.0732 46.6807L35.0736 46.6803ZM26.7335 37.733C27.0981 37.733 27.4626 37.8202 27.795 37.9949L32.0434 40.2286L31.2318 35.4976C31.1047 34.7573 31.3504 34.0024 31.888 33.4781L35.3253 30.1276L30.5753 29.4371C29.832 29.3293 29.1896 28.8626 28.8577 28.1893L26.7335 23.885L24.6093 28.1893C24.277 28.8626 23.6346 29.3293 22.8917 29.4371L18.1418 30.1276L21.5791 33.4781C22.1167 34.0024 22.3623 34.7573 22.2352 35.4976L21.4236 40.2286L25.6721 37.9949C26.0044 37.8202 26.369 37.733 26.7335 37.733Z" fill="white"/>
</svg>
