<svg width="125" height="91" viewBox="0 0 125 91" fill="none" xmlns="http://www.w3.org/2000/svg">
<path d="M85.1889 46.0091H68.6411L68.7702 45.3315C69.5723 41.1248 72.6933 38.5132 76.9208 38.5132C81.1482 38.5132 84.3314 41.1294 85.0714 45.3407L85.1889 46.0114V46.0091ZM70.0495 44.8658H83.8036C82.9692 41.5881 80.4405 39.6542 76.9208 39.6542C73.401 39.6542 70.93 41.5881 70.0495 44.8658Z" fill="white"/>
<path d="M119.711 83.097H111.443L111.413 82.5576C111.167 78.0536 107.435 74.5269 102.922 74.5269C98.4083 74.5269 94.6903 78.0559 94.4413 82.5576L94.4113 83.097H61.0322L61.0023 82.5576C60.7533 78.0536 57.0284 74.5269 52.5221 74.5269C48.0158 74.5269 44.277 78.0559 44.0281 82.5576L43.9981 83.097H5.85679C4.69045 83.097 3.60709 82.6337 2.80263 81.79C1.99587 80.9418 1.58097 79.8262 1.6386 78.646C1.75385 76.4424 3.73617 74.6514 6.05964 74.6514H25.5118C26.3462 74.6514 27.1322 74.3425 27.7246 73.7801C28.3285 73.2153 28.6904 72.4478 28.748 71.6179C28.8103 70.7144 28.5014 69.8523 27.8836 69.1884C27.2636 68.5246 26.4223 68.1604 25.5141 68.1604H20.2909C19.166 68.1604 18.1057 67.7201 17.3036 66.918C16.5106 66.1251 16.0727 65.0648 16.0727 63.9307C16.0727 61.6049 17.9651 59.7148 20.2909 59.7148H26.496C27.3304 59.7148 28.1164 59.4036 28.7088 58.8435C29.3128 58.2788 29.6746 57.5112 29.7323 56.6814C29.7945 55.7755 29.4856 54.9134 28.8679 54.2496C28.2478 53.5857 27.4065 53.2215 26.4983 53.2215H4.22253C3.07002 53.2215 1.95208 52.7398 1.15684 51.9007C0.350084 51.0502 -0.0579056 49.9369 0.00663518 48.7682C0.121887 46.53 2.06502 44.7759 4.42768 44.7759H27.4803C28.3124 44.7759 29.103 44.4647 29.7069 43.9C30.3062 43.3307 30.6704 42.5608 30.7257 41.7425C30.7834 40.832 30.4699 39.9607 29.8429 39.2945C29.2229 38.6353 28.3838 38.2711 27.478 38.2711H26.4153C25.249 38.2711 24.1633 37.8055 23.3589 36.9619C22.5544 36.1159 22.1418 35.0049 22.1994 33.8316C22.3147 31.5911 24.2578 29.837 26.6205 29.837H28.4714C29.2966 29.837 30.0826 29.5258 30.6866 28.9634C31.2859 28.3941 31.6501 27.6219 31.7077 26.7921C31.7699 25.8908 31.461 25.0287 30.841 24.3649C30.2209 23.701 29.3796 23.3345 28.4737 23.3345H14.8718C13.7146 23.3345 12.5967 22.8528 11.7992 22.0138C10.997 21.1655 10.5913 20.0591 10.6559 18.8927C10.7688 16.6868 12.7534 14.8889 15.0769 14.8889H60.2785L60.2531 15.6427L59.9581 19.8101C59.9327 20.2688 60.0918 20.7229 60.3961 21.0456C60.7095 21.3845 61.1475 21.5758 61.6039 21.5758C62.4614 21.5758 63.1805 20.905 63.2405 20.0499L63.5816 14.8912H89.5708V15.4606L89.9119 20.0476C89.9719 20.905 90.6887 21.5758 91.5462 21.5758C91.9934 21.5758 92.4336 21.3822 92.754 21.0456C93.0583 20.716 93.215 20.2665 93.1805 19.8125L92.8278 14.8889H115.991C118.529 14.8889 120.679 17.134 120.993 20.1098L124.72 76.4193C124.916 78.291 124.34 80.1811 123.173 81.4766C122.233 82.5207 121.002 83.097 119.707 83.097H119.711ZM112.51 81.9537H119.711C120.679 81.9537 121.611 81.5134 122.33 80.7113C123.284 79.651 123.754 78.0859 123.588 76.5277V76.5046L119.861 20.2066C119.61 17.837 117.948 16.0322 115.998 16.0322H94.061L94.3261 19.7295C94.3837 20.4947 94.114 21.26 93.5908 21.827C93.0514 22.3964 92.3069 22.7191 91.5485 22.7191C90.094 22.7191 88.8747 21.5827 88.7732 20.1305L88.469 16.0322H64.6742L64.3814 20.1305C64.28 21.5804 63.0607 22.7168 61.6039 22.7168C60.8294 22.7168 60.0849 22.3918 59.5616 21.8247C59.0453 21.2785 58.7733 20.5155 58.8171 19.7364L59.0868 16.0299H15.0769C13.3527 16.0299 11.8798 17.3392 11.7969 18.9527C11.7508 19.8032 12.0458 20.6123 12.6313 21.2277C13.2191 21.8501 14.0143 22.1912 14.8718 22.1912H28.4737C29.6816 22.1912 30.8502 22.6983 31.6777 23.5835C32.5052 24.4663 32.9316 25.6649 32.851 26.8704C32.7749 27.9861 32.2862 29.0256 31.4726 29.7955C30.652 30.5608 29.5894 30.9803 28.4737 30.9803H26.6228C24.8963 30.9803 23.4257 32.2873 23.3404 33.8916C23.2989 34.7444 23.5986 35.5581 24.1887 36.1735C24.7742 36.789 25.5671 37.1278 26.4176 37.1278H27.4803C28.7042 37.1278 29.8406 37.6188 30.6773 38.5108C31.5094 39.396 31.9428 40.5992 31.8667 41.8162C31.7907 42.9273 31.302 43.9622 30.4906 44.7321C29.67 45.4997 28.6005 45.9192 27.4803 45.9192H4.42768C2.70121 45.9192 1.2306 47.2238 1.14532 48.8281C1.09922 49.681 1.39657 50.4924 1.98435 51.1147C2.57444 51.7371 3.36737 52.0782 4.22023 52.0782H26.496C27.7062 52.0782 28.8748 52.5853 29.7023 53.4682C30.539 54.3625 30.9562 55.5312 30.8733 56.7551C30.7972 57.8777 30.3085 58.9126 29.4925 59.671C28.6904 60.434 27.6255 60.8535 26.496 60.8535H20.2909C18.5944 60.8535 17.216 62.2319 17.216 63.9284C17.216 64.7559 17.5341 65.5304 18.1126 66.1066C18.6981 66.6921 19.4726 67.0148 20.2909 67.0148H25.5141C26.7242 67.0148 27.8929 67.5219 28.7204 68.4047C29.5571 69.3014 29.972 70.4677 29.889 71.6917C29.8129 72.812 29.3243 73.8492 28.5083 74.6076C27.7062 75.3682 26.6412 75.79 25.5141 75.79H6.06194C4.33548 75.79 2.86487 77.097 2.77958 78.7013C2.73809 79.5611 3.04005 80.3794 3.63014 80.9971C4.21562 81.6125 5.00624 81.9514 5.85679 81.9514H42.9309C43.4702 77.1039 47.5824 73.379 52.5198 73.379C57.4571 73.379 61.5578 77.1016 62.0972 81.9514H93.3441C93.8835 77.1039 97.9887 73.379 102.922 73.379C107.854 73.379 111.971 77.1016 112.51 81.9514V81.9537ZM78.2116 68.7182C65.0683 68.7182 55.8897 60.5792 55.8897 48.9226C55.8897 37.2661 64.7065 29.2769 76.8516 29.2769C88.9968 29.2769 97.2511 37.2269 97.2511 49.061C97.2511 49.6994 97.1935 50.4463 97.1382 51.17C97.1059 51.5642 97.076 51.9538 97.0575 52.3156L97.0275 52.855H70.3353C71.5524 55.9576 74.4682 57.6541 78.6357 57.6541C81.9504 57.6541 84.2416 56.792 86.8117 54.5815L87.222 54.2288L94.7986 62.1097L94.4459 62.5039C90.751 66.6276 85.2904 68.7182 78.2139 68.7182H78.2116ZM76.8516 30.4202C65.368 30.4202 57.033 38.202 57.033 48.925C57.033 59.6479 65.7414 67.5772 78.2116 67.5772C84.8132 67.5772 89.7344 65.7954 93.2312 62.1328L87.1413 55.7962C84.5274 57.9238 82.0264 58.7997 78.6334 58.7997C73.6684 58.7997 70.1532 56.4831 68.9869 52.4447L68.7748 51.714H95.9488C95.9626 51.5066 95.9811 51.2945 95.9972 51.0825C96.0525 50.3817 96.1078 49.658 96.1078 49.0633C96.1078 37.9138 88.3699 30.4225 76.8516 30.4225V30.4202Z" fill="white"/>
<path d="M91.5507 21.6405C90.6541 21.6405 89.9026 20.942 89.8404 20.05L89.5177 15.5045C89.0429 8.91901 83.7459 3.74883 77.1881 3.44226C76.9853 3.43304 76.7847 3.42613 76.5865 3.42613C69.9642 3.42613 64.28 8.73691 63.6484 15.5183C63.6322 15.6336 63.6207 15.7188 63.6161 15.8018L63.3095 20.05C63.2519 20.9397 62.5028 21.6405 61.6038 21.6405C61.129 21.6405 60.6726 21.4422 60.3499 21.0942C60.0272 20.7461 59.8635 20.2782 59.8981 19.8057L60.2001 15.5644C60.2093 15.4584 60.2139 15.4054 60.2277 15.3477C60.8662 7.27091 67.0967 0.816834 75.0329 0.0746153C84.283 -0.8036 92.2791 6.18063 92.9291 15.2186L93.2565 19.8103C93.291 20.2805 93.1251 20.7507 92.8024 21.0988C92.4797 21.4445 92.0233 21.6428 91.5507 21.6428V21.6405ZM76.5865 2.28283C76.8055 2.28283 77.0245 2.28744 77.2457 2.30127C84.3775 2.6332 90.1424 8.25977 90.6541 15.3846L90.9814 19.9693C91.0137 20.428 91.6522 20.6562 91.9679 20.3174C92.0763 20.2021 92.1293 20.05 92.1178 19.8909L91.7905 15.3039C91.1865 6.89289 83.7551 0.37888 75.1436 1.2133C67.7605 1.9025 61.9657 7.91632 61.3595 15.5114L60.774 15.6059L61.3434 15.6451L61.0414 19.8886C61.0299 20.05 61.0806 20.2021 61.1889 20.3174C61.5001 20.6516 62.1432 20.4234 62.1709 19.9739L62.4774 15.7304C62.4843 15.6197 62.4959 15.4999 62.5143 15.3777C63.1966 8.05001 69.381 2.28283 76.5865 2.28283Z" fill="white"/>
<path d="M52.5152 90.7865C48.2439 90.7865 44.7703 87.3105 44.7703 83.0393C44.7703 78.7681 48.2439 75.2944 52.5152 75.2944C56.7864 75.2944 60.2624 78.7681 60.2624 83.0393C60.2624 87.3105 56.7864 90.7865 52.5152 90.7865ZM52.5152 76.4377C48.8755 76.4377 45.9112 79.3997 45.9112 83.0416C45.9112 86.6836 48.8732 89.6455 52.5152 89.6455C56.1571 89.6455 59.1191 86.6836 59.1191 83.0416C59.1191 79.3997 56.1571 76.4377 52.5152 76.4377Z" fill="white"/>
<path d="M102.926 90.7865C98.6549 90.7865 95.179 87.3105 95.179 83.0393C95.179 78.7681 98.6549 75.2944 102.926 75.2944C107.197 75.2944 110.671 78.7681 110.671 83.0393C110.671 87.3105 107.197 90.7865 102.926 90.7865ZM102.926 76.4377C99.2842 76.4377 96.3223 79.3997 96.3223 83.0416C96.3223 86.6836 99.2842 89.6455 102.926 89.6455C106.568 89.6455 109.53 86.6836 109.53 83.0416C109.53 79.3997 106.568 76.4377 102.926 76.4377Z" fill="white"/>
</svg>
