<svg width="120" height="79" viewBox="0 0 120 79" fill="none" xmlns="http://www.w3.org/2000/svg">
<path d="M59.997 11.2662H59.9504C59.4447 11.2662 59.0349 10.8565 59.0349 10.3508C59.0349 9.84506 59.4447 9.4353 59.9504 9.4353C60.4561 9.4353 60.8888 9.84506 60.8888 10.3508C60.8888 10.8565 60.5024 11.2662 59.9967 11.2662H59.997Z" fill="white"/>
<path d="M119.688 78.8246H0V9.43564H14.2432C14.7489 9.43564 15.1587 9.84539 15.1587 10.3511C15.1587 10.8568 14.7489 11.2666 14.2432 11.2666H1.83059V76.9944H117.857V11.2662H105.712C105.206 11.2662 104.796 10.8565 104.796 10.3508C104.796 9.84506 105.206 9.4353 105.712 9.4353H119.688V78.8243V78.8246Z" fill="white"/>
<path d="M59.1255 78.3787C58.8873 78.3787 58.6478 78.3294 58.4216 78.2305C33.3284 67.2343 14.5612 69.8357 14.3756 69.8634L13.3266 70.0183L13.3259 68.9579V0.602001L14.1181 0.494398C14.341 0.464749 36.6258 -2.38557 60.3611 9.53405L60.8655 9.78724V76.6407C60.8655 77.2287 60.5717 77.7717 60.0796 78.0932C59.7905 78.2821 59.4593 78.3784 59.1252 78.3784L59.1255 78.3787ZM20.2222 67.7103C27.8114 67.7103 41.8507 68.9936 59.0349 76.5005V10.9189C38.4897 0.776564 19.2421 1.85226 15.1568 2.22504V67.9299C16.1756 67.8309 17.8959 67.7103 20.2222 67.7103Z" fill="white"/>
<path d="M51.4676 61.8485C51.3653 61.8485 51.2613 61.8312 51.1594 61.7949C39.0699 57.4731 28.9922 56.2928 22.6666 56.0636C22.1612 56.0453 21.7668 55.6209 21.7848 55.1158C21.8031 54.6105 22.2365 54.2257 22.7325 54.234C29.1874 54.4679 39.4653 55.6705 51.7754 60.0709C52.2514 60.2411 52.4993 60.7648 52.3294 61.2409C52.1955 61.615 51.843 61.8485 51.4672 61.8485H51.4676Z" fill="white"/>
<path d="M51.4675 51.6261C51.3652 51.6261 51.2613 51.6088 51.1593 51.5725C39.0511 47.2443 28.9821 46.0704 22.6675 45.8475C22.1621 45.8295 21.767 45.4058 21.785 44.9007C21.8027 44.395 22.2194 43.9956 22.7318 44.0183C29.1763 44.2455 39.4466 45.4414 51.7756 49.8485C52.2517 50.0187 52.4995 50.5424 52.3296 51.0184C52.1957 51.3926 51.8432 51.6261 51.4675 51.6261Z" fill="white"/>
<path d="M51.4675 41.7136C51.3652 41.7136 51.2613 41.6963 51.1593 41.66C39.0505 37.3315 28.9818 36.1576 22.6675 35.935C22.1621 35.917 21.767 35.4933 21.785 34.9883C21.8027 34.4829 22.2194 34.0885 22.7318 34.1058C29.176 34.333 39.4456 35.5289 51.7756 39.9363C52.2517 40.1066 52.4995 40.6303 52.3296 41.1063C52.1957 41.4804 51.8432 41.7139 51.4675 41.7139V41.7136Z" fill="white"/>
<path d="M52.3829 30.1022L51.1596 29.6651C39.0515 25.337 28.9824 24.1631 22.6678 23.9402L21.7847 23.9092V12.0815L22.7321 12.1149C29.1766 12.3421 39.4469 13.538 51.7759 17.9451L52.3832 18.1623V30.1019L52.3829 30.1022ZM23.6149 22.1469C29.8689 22.4401 39.3096 23.6417 50.552 27.5118V19.4539C39.3006 15.5072 29.8542 14.2832 23.6149 13.9838V22.1469Z" fill="white"/>
<path d="M68.1808 50.9642C67.805 50.9642 67.4525 50.731 67.3186 50.3566C67.1484 49.8805 67.3962 49.3565 67.8726 49.1866C80.1827 44.7862 90.4606 43.5836 96.9154 43.3497C97.4158 43.3361 97.8449 43.7258 97.8632 44.2315C97.8815 44.7366 97.4868 45.1613 96.9814 45.1793C90.6558 45.4085 80.5781 46.5891 68.4886 50.9106C68.3866 50.9469 68.2827 50.9642 68.1804 50.9642H68.1808Z" fill="white"/>
<path d="M68.1808 62.3486C67.805 62.3486 67.4525 62.1154 67.3186 61.741C67.1484 61.2649 67.3962 60.7409 67.8726 60.571C80.1833 56.1703 90.4613 54.9677 96.9154 54.7338C97.4158 54.7115 97.8449 55.1102 97.8632 55.6156C97.8815 56.1206 97.4868 56.5454 96.9814 56.5634C90.6565 56.7926 80.5788 57.9732 68.4886 62.295C68.3866 62.3313 68.2827 62.3486 68.1804 62.3486H68.1808Z" fill="white"/>
<path d="M68.1808 40.742C67.805 40.742 67.4525 40.5088 67.3186 40.1343C67.1484 39.6583 67.3962 39.1343 67.8726 38.9644C80.2016 34.5573 90.4716 33.361 96.9164 33.1341C97.4258 33.1268 97.8459 33.5112 97.8632 34.0166C97.8812 34.5216 97.4861 34.9457 96.9807 34.9634C90.6661 35.1859 80.5967 36.3599 68.4889 40.6883C68.387 40.7246 68.283 40.742 68.1808 40.742Z" fill="white"/>
<path d="M68.1808 30.8295C67.805 30.8295 67.4525 30.5963 67.3186 30.2218C67.1484 29.7458 67.3962 29.2218 67.8726 29.0519C80.2026 24.6445 90.4722 23.4482 96.9164 23.2213C97.4258 23.2133 97.8459 23.5984 97.8632 24.1038C97.8812 24.6088 97.4861 25.0329 96.9807 25.0506C90.6661 25.2731 80.5974 26.4471 68.4889 30.7755C68.387 30.8118 68.283 30.8291 68.1808 30.8291V30.8295Z" fill="white"/>
<path d="M68.1808 20.8335C67.805 20.8335 67.4525 20.6003 67.3186 20.2259C67.1484 19.7498 67.3962 19.2258 67.8726 19.0559C80.2036 14.6482 90.4729 13.4522 96.9164 13.2257C97.4258 13.2187 97.8459 13.6028 97.8632 14.1082C97.8812 14.6132 97.4861 15.0373 96.9807 15.0549C90.6668 15.2771 80.5984 16.4508 68.4889 20.7799C68.387 20.8162 68.283 20.8335 68.1808 20.8335Z" fill="white"/>
<path d="M60.8247 78.3787C60.4909 78.3787 60.1598 78.2825 59.8706 78.0936C59.3782 77.7721 59.0847 77.2287 59.0847 76.6411V9.78761L59.5891 9.53443C83.3241 -2.38486 105.61 0.464122 105.832 0.49477L106.624 0.602374V70.0187L105.575 69.8638C105.388 69.8361 86.6218 67.235 61.5286 78.2308C61.3024 78.3298 61.0632 78.3791 60.8247 78.3791V78.3787ZM60.9153 10.9189V76.5005C83.366 66.693 100.45 67.5095 104.794 67.9296V2.22575C100.706 1.8543 81.4378 0.787598 60.9153 10.9189Z" fill="white"/>
</svg>
