<svg width="716" height="202" viewBox="0 0 716 202" fill="none" xmlns="http://www.w3.org/2000/svg">
<path d="M71.0008 107.335C72.2541 105.519 73.9735 103.688 73.8288 101.486C73.7485 100.169 73.0093 98.9955 72.2863 97.9028C67.3693 90.3345 62.388 82.3806 61.3436 73.4144C60.2991 64.4481 64.4448 54.2124 72.9451 51.2237C69.6831 40.1685 69.0083 28.1974 71.9006 17.0297C72.5433 14.5391 73.4271 11.936 75.3714 10.2488C76.2552 9.47756 77.2675 8.99548 78.3602 8.72231C78.3602 8.72231 78.3762 8.72231 78.3923 8.72231C78.3923 8.72231 78.4084 8.72231 78.4244 8.72231C79.4368 8.25633 80.5455 8.01529 81.7185 8.0635C84.2895 8.19205 86.5873 9.67036 88.644 11.229C97.8353 18.1867 104.745 28.0046 109.035 38.7063C117.567 35.7818 127.16 41.2451 131.901 48.9258C136.641 56.6066 137.669 65.9264 138.505 74.9087C138.633 76.2263 138.778 77.5922 139.517 78.6848C140.787 80.5006 143.245 80.8701 145.366 81.529C154.284 84.2606 159.33 93.8053 161.258 102.932C164.455 118.005 161.627 134.282 153.529 147.394C148.901 154.882 140.063 158.69 131.242 160.876C122.966 164.619 113.663 167.126 105.404 164.105C90.9258 158.835 78.6173 147.828 71.7721 134.025C67.6264 125.669 65.666 115.048 70.9686 107.383L71.0008 107.335Z" fill="#400B64"/>
<g style="mix-blend-mode:screen" opacity="0.5">
<path d="M79.3566 13.0447C79.7743 12.9 80.2403 13.1089 80.3849 13.5267L98.2853 62.1984C100.23 53.441 112.458 45.4549 113.084 45.0532C113.454 44.8122 113.952 44.9247 114.193 45.2943C114.434 45.6638 114.322 46.162 113.952 46.403C113.775 46.5155 96.6303 57.6831 100.085 67.0993L114.804 107.142C117.632 95.4764 134.954 91.4432 135.741 91.2664C136.175 91.17 136.609 91.4432 136.705 91.877C136.802 92.3109 136.528 92.7447 136.095 92.8411C135.886 92.8893 116.025 97.501 116.009 110.452L132.367 154.93C132.511 155.348 132.302 155.814 131.885 155.958C131.74 156.007 131.595 156.023 131.451 155.991C131.194 155.942 130.953 155.75 130.856 155.476L126.18 142.75C121.713 130.602 93.529 125.701 93.2559 125.653C93.2559 125.653 93.2398 125.653 93.2237 125.653C92.8059 125.573 92.5167 125.155 92.5971 124.737C92.6774 124.303 93.0791 123.998 93.529 124.078C94.5413 124.255 114.82 127.774 123.979 136.724L114.466 110.87L102.286 77.7527C98.4781 67.3724 79.453 64.1588 79.2601 64.1266C78.7942 64.0624 78.521 63.6446 78.6013 63.2107C78.6656 62.7769 79.0834 62.4715 79.5173 62.5519C80.1761 62.6644 92.9988 64.8336 100.037 71.6306L78.8745 14.1052C78.7299 13.6874 78.9388 13.2214 79.3566 13.0768V13.0447Z" fill="#6376BF"/>
</g>
<path d="M147.76 191.358C147.76 191.358 103.604 84.3088 47.6048 62.4876C42.6717 60.5755 37.4655 64.6569 38.1082 69.8953C41.6112 98.6259 59.2545 177.812 147.76 191.358Z" fill="#4F0B7D"/>
<g style="mix-blend-mode:screen" opacity="0.5">
<path d="M54.3058 109.954C53.888 109.793 53.6952 109.311 53.8719 108.91C54.0326 108.492 54.5147 108.299 54.9164 108.476L84.7878 120.672L45.2753 71.4378C45.0021 71.0843 45.0503 70.5862 45.4038 70.313C45.7573 70.0399 46.2554 70.0881 46.5286 70.4416L73.6523 104.25L73.7487 84.4373C73.7487 83.9874 74.1183 83.6339 74.5522 83.6339C75.0021 83.6339 75.3556 84.0034 75.3556 84.4373L75.2592 106.242L103.717 141.706L103.62 120.784C103.62 120.334 103.974 119.981 104.424 119.981C104.874 119.981 105.227 120.334 105.227 120.784L105.323 143.73L125.907 169.376L126.904 154.705C126.936 154.255 127.321 153.934 127.755 153.95C128.205 153.982 128.526 154.368 128.494 154.802L127.402 171.015C127.402 171.015 127.353 171.127 127.337 171.175L136.111 182.118C136.384 182.472 136.336 182.97 135.982 183.243C135.918 183.291 135.87 183.323 135.806 183.355C135.484 183.5 135.082 183.42 134.857 183.13L115.109 158.529L84.9003 153.339C84.4665 153.259 84.1772 152.841 84.2415 152.407C84.3218 151.973 84.7396 151.668 85.1735 151.749L113.583 156.633L86.8285 123.291L54.2736 110.002L54.3058 109.954Z" fill="#B4CBDD"/>
</g>
<path d="M148.306 189.944C148.306 189.944 66.9835 107.496 6.8871 108.444C1.60054 108.524 -1.67745 114.277 0.893524 118.888C14.9857 144.164 61.231 210.833 148.306 189.944Z" fill="#4F0B7D"/>
<g style="mix-blend-mode:screen" opacity="0.5">
<path d="M31.0222 149.869C30.5723 149.869 30.2188 149.515 30.2188 149.065C30.2188 148.615 30.5723 148.262 31.0222 148.262H63.2879L8.10848 117.603C7.72284 117.394 7.57822 116.896 7.80318 116.51C8.02814 116.125 8.51019 115.98 8.89584 116.205L46.7855 137.271L39.3779 118.888C39.2172 118.471 39.41 118.005 39.8278 117.844C40.2456 117.683 40.7116 117.876 40.8723 118.294L49.019 138.524L88.7566 160.618L80.7705 141.288C80.5938 140.886 80.8026 140.404 81.2044 140.244C81.6221 140.067 82.0881 140.276 82.2488 140.677L91.0062 161.888L119.737 177.86L115.109 163.896C114.964 163.479 115.205 163.013 115.623 162.884C116.041 162.739 116.507 162.981 116.636 163.398L121.745 178.824C121.745 178.824 121.745 178.937 121.745 179.001L134.006 185.814C134.391 186.023 134.536 186.521 134.311 186.907C134.279 186.971 134.231 187.035 134.182 187.083C133.941 187.34 133.54 187.405 133.218 187.228L105.645 171.899L75.725 178.487C75.2911 178.583 74.8573 178.31 74.7609 177.876C74.6644 177.442 74.9376 177.008 75.3715 176.912L103.524 170.709L66.1642 149.949H31.0062L31.0222 149.869Z" fill="#B4CBDD"/>
</g>
<path d="M636.421 160.442C636.421 160.442 633.995 44.6676 676.577 2.24659C680.321 -1.48132 686.732 0.173717 688.242 5.23531C696.55 32.9697 712.104 112.589 636.421 160.442Z" fill="#87246F"/>
<g style="mix-blend-mode:screen" opacity="0.5">
<path d="M689.448 48.4276C689.753 48.1062 689.753 47.6081 689.448 47.2867C689.126 46.9814 688.628 46.9814 688.307 47.2867L665.827 70.4254L682.297 9.49349C682.41 9.05964 682.168 8.62576 681.735 8.51328C681.301 8.4008 680.867 8.65791 680.754 9.07569L669.442 50.9182L661.424 32.7929C661.247 32.3912 660.765 32.1984 660.363 32.3912C659.962 32.5679 659.769 33.05 659.962 33.4517L668.783 53.3928L656.925 97.276L648.633 78.0741C648.457 77.6724 647.975 77.4795 647.573 77.6563C647.171 77.833 646.978 78.299 647.155 78.7168L656.25 99.7827L647.669 131.518L640.872 118.47C640.663 118.069 640.181 117.924 639.796 118.133C639.394 118.342 639.249 118.824 639.458 119.21L646.962 133.623C646.962 133.623 647.043 133.703 647.075 133.752L643.411 147.297C643.299 147.731 643.54 148.165 643.974 148.278C644.038 148.294 644.118 148.31 644.182 148.31C644.536 148.31 644.857 148.069 644.954 147.715L653.181 117.265L678.778 100.409C679.148 100.168 679.244 99.6702 679.003 99.3006C678.762 98.9311 678.264 98.8347 677.894 99.0757L653.824 114.935L664.975 73.6713L689.48 48.4597L689.448 48.4276Z" fill="#B4CBDD"/>
</g>
<path d="M698.221 152.873C697.353 150.832 696.036 148.711 696.614 146.574C696.952 145.305 697.916 144.309 698.832 143.361C705.147 136.917 711.622 130.12 714.434 121.556C717.246 112.975 715.222 102.129 707.493 97.4849C712.892 87.2974 715.945 75.6959 715.334 64.1748C715.19 61.6038 714.852 58.8882 713.277 56.8314C712.57 55.8995 711.671 55.2245 710.658 54.7425C710.658 54.7425 710.642 54.7425 710.626 54.7265C710.626 54.7265 710.61 54.7264 710.594 54.7104C709.694 54.0516 708.65 53.5856 707.509 53.4088C704.954 53.0071 702.415 54.0034 700.085 55.1282C689.689 60.1255 680.964 68.3526 674.633 77.9777C666.855 73.4142 656.363 76.8528 650.192 83.4249C644.022 89.9969 641.162 98.931 638.543 107.576C638.157 108.829 637.739 110.163 636.791 111.063C635.184 112.589 632.694 112.461 630.492 112.67C621.205 113.57 614.375 121.909 610.648 130.474C604.509 144.614 604.043 161.116 609.362 175.578C612.399 183.837 620.305 189.333 628.5 193.237C635.859 198.556 644.472 202.863 653.181 201.561C668.43 199.279 682.683 190.956 692.131 178.792C697.852 171.432 701.901 161.422 698.237 152.841L698.221 152.873Z" fill="#B52E94"/>
<g style="mix-blend-mode:screen" opacity="0.5">
<path d="M708.842 58.7918C708.473 58.5668 707.975 58.6793 707.734 59.0489L680.481 103.173C680.321 94.2069 669.94 83.9391 669.41 83.4249C669.089 83.1196 668.591 83.1196 668.269 83.4249C667.964 83.7462 667.964 84.2444 668.269 84.5658C668.414 84.7104 682.988 99.0757 677.718 107.608L655.302 143.907C654.852 131.92 638.687 124.512 637.948 124.175C637.546 123.982 637.064 124.175 636.887 124.576C636.711 124.978 636.887 125.46 637.289 125.637C637.482 125.717 656.025 134.202 653.454 146.896L628.564 187.212C628.339 187.597 628.451 188.079 628.821 188.32C628.95 188.401 629.094 188.433 629.239 188.433C629.512 188.433 629.769 188.304 629.93 188.047L637.048 176.51C643.845 165.503 672.431 166.323 672.72 166.339H672.752C673.186 166.339 673.54 166.001 673.556 165.567C673.556 165.117 673.218 164.748 672.785 164.732C671.756 164.7 651.188 164.121 640.439 171.047L654.916 147.603L673.459 117.587C679.26 108.187 698.542 108.813 698.751 108.829C699.217 108.845 699.571 108.508 699.587 108.058C699.603 107.608 699.266 107.238 698.816 107.222C698.141 107.206 685.157 106.773 676.898 112.027L709.099 59.8684C709.324 59.4827 709.212 59.0007 708.842 58.7596V58.7918Z" fill="#6376BF"/>
</g>
</svg>
