<svg width="243" height="168" viewBox="0 0 243 168" fill="none" xmlns="http://www.w3.org/2000/svg">
<path d="M42.234 106.746C41.9358 106.746 41.633 106.67 41.3556 106.511L17.4547 92.8104C17.0448 92.5755 16.7455 92.1864 16.6246 91.7293C16.5037 91.2723 16.5705 90.7853 16.8099 90.3789L54.1499 26.9275C54.6323 26.1078 55.6777 25.8165 56.5147 26.2678L81.1674 39.5699C81.5922 39.799 81.9042 40.1916 82.0331 40.6567C82.1609 41.1218 82.0942 41.6192 81.8466 42.0337L43.7549 105.883C43.4244 106.438 42.8373 106.747 42.234 106.747V106.746ZM20.7681 90.631L41.6077 102.576L77.862 41.8057L56.3351 30.1903L20.7681 90.6299V90.631Z" fill="#4C0A7C"/>
<path d="M37.4978 91.9623C34.1947 91.9623 31.5076 89.2752 31.5076 85.9721C31.5076 82.6691 34.1947 79.9819 37.4978 79.9819C40.8008 79.9819 43.4879 82.6691 43.4879 85.9721C43.4879 89.2752 40.8008 91.9623 37.4978 91.9623ZM37.4978 83.521C36.1461 83.521 35.0466 84.6205 35.0466 85.9721C35.0466 87.3237 36.1461 88.4232 37.4978 88.4232C38.8494 88.4232 39.9489 87.3237 39.9489 85.9721C39.9489 84.6205 38.8494 83.521 37.4978 83.521Z" fill="#4C0A7C"/>
<path d="M221.043 85.3378C217.74 85.3378 215.053 82.6507 215.053 79.3476C215.053 76.0445 217.74 73.3574 221.043 73.3574C224.346 73.3574 227.033 76.0445 227.033 79.3476C227.033 82.6507 224.346 85.3378 221.043 85.3378ZM221.043 76.8954C219.691 76.8954 218.592 77.9948 218.592 79.3465C218.592 80.6981 219.691 81.7976 221.043 81.7976C222.395 81.7976 223.494 80.6981 223.494 79.3465C223.494 77.9948 222.395 76.8954 221.043 76.8954Z" fill="#4C0A7C"/>
<path d="M216.85 100.634C216.247 100.634 215.659 100.325 215.329 99.7701L177.237 35.9204C176.99 35.5059 176.923 35.0086 177.051 34.5435C177.179 34.0783 177.492 33.6857 177.917 33.4566L202.569 20.1546C203.407 19.7021 204.452 19.9945 204.934 20.8143L242.274 84.2656C242.513 84.6732 242.58 85.159 242.459 85.6161C242.338 86.0731 242.039 86.4623 241.629 86.6971L217.728 100.398C217.451 100.556 217.148 100.632 216.85 100.632V100.634ZM181.223 35.6947L217.477 96.4647L238.317 84.52L202.75 24.0805L181.223 35.6959V35.6947Z" fill="#4C0A7C"/>
<path d="M145.168 167.815C142.713 167.815 140.166 167.138 137.704 165.823L123.011 158.852C122.128 158.433 121.752 157.379 122.171 156.496C122.59 155.613 123.644 155.236 124.527 155.655L139.259 162.645C139.286 162.657 139.312 162.671 139.339 162.685C144.831 165.638 149.21 164.017 151.291 161.731C152.978 159.877 153.971 156.677 151.696 153.257C151.193 152.499 151.345 151.484 152.048 150.908C152.752 150.332 153.777 150.383 154.42 151.026C158.06 154.666 162.978 153.064 166.008 150.035C167.683 148.359 168.793 146.247 169.05 144.239C169.334 142.04 168.643 140.092 166.999 138.448C166.308 137.757 166.308 136.637 166.999 135.946C167.69 135.255 168.81 135.255 169.501 135.946C172.024 138.47 175.118 139.403 178.209 138.575C181.59 137.668 184.471 134.788 185.376 131.408C186.205 128.315 185.271 125.223 182.747 122.699C182.091 122.043 182.053 120.992 182.661 120.291C183.268 119.59 184.314 119.476 185.058 120.031C187.936 122.18 191.209 122.633 194.276 121.307C197.621 119.861 200.231 116.45 200.621 113.011C200.842 111.067 200.461 108.277 197.41 105.991L174.149 92.5238C169.255 89.6905 163.673 87.3338 157.559 85.5205C147.23 82.4558 139.415 77.5271 134.677 73.9316C131.48 71.5046 129.227 69.3598 127.949 68.0473L119.169 76.0177C119.13 76.0534 119.089 76.0879 119.046 76.1202C112.009 81.43 105.727 83.2812 100.37 81.6234C93.3193 79.4417 90.7519 72.0135 90.646 71.6981C90.4273 71.0476 90.6046 70.3292 91.1008 69.8548C91.2608 69.7017 107.194 54.4724 116.287 45.1687C118.642 42.7579 121.804 41.1392 125.681 40.3563C128.676 39.7519 132.106 39.6437 135.879 40.0363C142.213 40.6948 147.314 42.5208 147.528 42.5979C161.598 47.743 169.707 46.8278 174.033 45.1561C178.53 43.4176 179.874 40.5993 179.929 40.4795L179.921 40.4979L183.168 41.9071C183.096 42.0729 181.345 45.985 175.682 48.3095C172.502 49.615 168.699 50.178 164.377 49.9846C159.118 49.7498 153.042 48.3832 146.319 45.9251C146.135 45.8584 127.128 39.1406 118.818 47.644C110.921 55.725 97.9118 68.2315 94.4269 71.5726C95.2788 73.3605 97.4605 77.0332 101.443 78.2524C105.631 79.5349 110.816 77.8851 116.853 73.3456L126.87 64.2515C127.226 63.928 127.698 63.7633 128.178 63.7956C128.658 63.8278 129.104 64.0534 129.414 64.4219C129.438 64.4506 132.032 67.4947 136.912 71.1857C141.4 74.5786 148.799 79.2321 158.568 82.1299C164.949 84.0227 170.789 86.4911 175.925 89.4637L199.273 102.981C199.329 103.013 199.384 103.049 199.435 103.087C202.933 105.662 204.604 109.329 204.14 113.413C203.604 118.123 200.206 122.601 195.682 124.557C193.669 125.428 191.582 125.756 189.478 125.533C189.182 125.502 188.887 125.459 188.595 125.406C189.351 127.612 189.431 129.961 188.796 132.326C187.555 136.959 183.759 140.755 179.127 141.996C176.887 142.596 174.662 142.557 172.56 141.91C172.683 142.81 172.684 143.74 172.561 144.695C172.199 147.504 170.761 150.291 168.51 152.542C166.26 154.793 163.474 156.231 160.663 156.592C159.215 156.779 157.818 156.679 156.502 156.302C156.806 159.108 155.93 161.895 153.907 164.118C152.139 166.061 149.651 167.334 146.902 167.706C146.331 167.783 145.75 167.821 145.167 167.821L145.168 167.815Z" fill="#4C0A7C"/>
<path d="M183.999 123.216C183.687 123.216 183.372 123.135 183.086 122.962L163.379 111.062C162.542 110.557 162.274 109.47 162.779 108.633C163.285 107.796 164.373 107.528 165.209 108.033L184.915 119.933C185.752 120.438 186.021 121.525 185.515 122.362C185.183 122.912 184.598 123.218 183.999 123.218V123.216Z" fill="#4C0A7C"/>
<path d="M168.362 139.038C168.03 139.038 167.696 138.945 167.398 138.752L153.931 129.985C153.113 129.452 152.88 128.355 153.413 127.537C153.946 126.718 155.042 126.487 155.861 127.019L169.328 135.786C170.146 136.319 170.379 137.415 169.846 138.234C169.506 138.754 168.94 139.038 168.362 139.038Z" fill="#4C0A7C"/>
<path d="M153.169 154.046C152.845 154.046 152.517 153.957 152.223 153.77L143.797 148.418C142.971 147.894 142.727 146.801 143.251 145.976C143.775 145.151 144.869 144.907 145.693 145.431L154.119 150.782C154.945 151.306 155.189 152.399 154.665 153.224C154.328 153.755 153.755 154.045 153.169 154.045V154.046Z" fill="#4C0A7C"/>
<path d="M105.456 60.2059C105.362 60.2059 105.267 60.1978 105.17 60.1829C96.7412 58.8082 89.6538 56.2155 85.1914 54.2825C82.2049 52.9884 80.1648 51.8924 78.9801 51.2016C76.4231 49.7095 76.0121 49.0602 75.8095 48.5214C75.5677 47.879 75.6782 47.1847 76.1065 46.6655C76.7282 45.9114 77.8427 45.8032 78.5968 46.4249C78.8097 46.5999 78.9709 46.8152 79.0791 47.05C79.8344 47.651 82.5215 49.3261 87.365 51.3628C91.497 53.1001 98.0387 55.4349 105.74 56.691C106.704 56.8487 107.358 57.7582 107.201 58.7219C107.059 59.5899 106.308 60.207 105.456 60.207V60.2059ZM79.0688 48.549C79.0078 48.6757 78.9318 48.7977 78.8385 48.9117C78.9352 48.7931 79.0112 48.6722 79.0688 48.549Z" fill="#4C0A7C"/>
<path d="M53.7816 115.451C53.2647 115.451 52.7524 115.225 52.4024 114.791C46.1946 107.084 44.2501 100.028 44.1706 99.7309C43.9173 98.7868 44.4757 97.8163 45.4198 97.563C46.3627 97.3097 47.3321 97.8681 47.5877 98.8098C47.6061 98.8754 49.447 105.479 55.1586 112.571C55.7711 113.332 55.6514 114.447 54.8903 115.059C54.5634 115.323 54.1708 115.451 53.7816 115.451Z" fill="#4C0A7C"/>
<path d="M56.92 140.047C54.7775 140.047 52.6809 139.435 50.8446 138.253L49.9144 137.653C47.3884 136.025 45.6465 133.502 45.0076 130.547C44.3686 127.593 44.9132 124.576 46.5411 122.05L56.9177 105.949C60.2899 100.717 67.2886 99.2045 72.5212 102.576L73.4515 103.175C78.683 106.547 80.1969 113.546 76.8248 118.779L66.4481 134.88C64.8202 137.406 62.2966 139.148 59.3423 139.787C58.5353 139.96 57.7248 140.047 56.92 140.047ZM52.7615 135.278C54.4931 136.394 56.5643 136.767 58.594 136.328C60.6249 135.889 62.3576 134.694 63.4732 132.963L73.8498 116.862C76.1651 113.27 75.1255 108.464 71.5346 106.15L70.6043 105.55C67.0123 103.235 62.2079 104.275 59.8927 107.866L49.516 123.967C48.4004 125.698 48.0274 127.769 48.4672 129.8C48.9058 131.831 50.1009 133.563 51.8324 134.679L52.7627 135.279L52.7615 135.278Z" fill="#4C0A7C"/>
<path d="M112.491 166.558C110.348 166.558 108.252 165.947 106.415 164.764L105.485 164.164C100.254 160.792 98.7398 153.794 102.112 148.561L112.489 132.46C114.116 129.934 116.64 128.192 119.594 127.553C122.549 126.914 125.566 127.459 128.092 129.087L129.022 129.687C134.254 133.059 135.767 140.057 132.396 145.29L122.019 161.391C120.391 163.917 117.867 165.659 114.913 166.298C114.107 166.472 113.296 166.558 112.491 166.558ZM122.01 130.832C121.456 130.832 120.898 130.891 120.342 131.012C118.311 131.45 116.578 132.645 115.462 134.377L105.086 150.478C102.77 154.07 103.81 158.875 107.401 161.189L108.331 161.789C110.063 162.905 112.134 163.278 114.164 162.839C116.195 162.401 117.927 161.206 119.043 159.474L129.419 143.373C130.535 141.642 130.908 139.57 130.469 137.54C130.031 135.509 128.836 133.777 127.104 132.66L126.174 132.061C124.917 131.25 123.479 130.832 122.009 130.832H122.01Z" fill="#4C0A7C"/>
<path d="M74.6741 149.998C72.5523 149.998 70.4063 149.409 68.494 148.176L67.6363 147.624C65.0769 145.974 63.3097 143.417 62.6627 140.422C62.0156 137.428 62.5671 134.369 64.2169 131.809L79.2459 108.491C80.8957 105.932 83.4539 104.164 86.4484 103.517C89.443 102.87 92.5019 103.422 95.0613 105.072L95.919 105.624C98.4783 107.274 100.246 109.832 100.893 112.827C101.54 115.821 100.988 118.88 99.3383 121.44L84.3093 144.758C82.1242 148.149 78.4366 149.998 74.6741 149.998ZM70.4109 145.202C74.0732 147.563 78.9742 146.503 81.3344 142.841L96.3634 119.523C97.5009 117.758 97.8808 115.645 97.4341 113.574C96.9862 111.503 95.7682 109.737 94.0021 108.599L93.1444 108.047C91.3794 106.909 89.2668 106.529 87.1956 106.976C85.1256 107.424 83.3584 108.642 82.2209 110.408L67.1919 133.726C66.0544 135.491 65.6745 137.604 66.1212 139.675C66.569 141.745 67.7871 143.512 69.5532 144.65L70.412 145.204L70.4109 145.202Z" fill="#4C0A7C"/>
<path d="M91.9956 160.613C89.807 160.613 87.5942 160.006 85.622 158.735L85.3676 158.57C79.8978 155.045 78.317 147.729 81.8411 142.259L98.3772 116.601C100.079 113.961 102.716 112.14 105.805 111.472C108.893 110.804 112.049 111.374 114.689 113.076L114.943 113.24C117.583 114.942 119.404 117.58 120.072 120.669C120.74 123.758 120.17 126.912 118.468 129.552L101.932 155.21C99.6793 158.706 95.8754 160.614 91.9956 160.614V160.613ZM108.33 114.739C107.74 114.739 107.144 114.803 106.553 114.931C104.388 115.398 102.541 116.672 101.351 118.518L84.8149 144.176C82.3477 148.005 83.4541 153.127 87.2833 155.595L87.5378 155.76C88.9182 156.65 90.4678 157.075 92.0002 157.075C94.7172 157.075 97.379 155.739 98.9575 153.292L115.494 127.634C116.683 125.788 117.08 123.58 116.613 121.416C116.145 119.251 114.871 117.405 113.025 116.214L112.771 116.05C111.429 115.185 109.897 114.739 108.33 114.739Z" fill="#4C0A7C"/>
<path d="M196.944 105.405L196.815 101.868H196.794C196.853 101.866 202.756 101.418 211.887 92.8048C212.597 92.1336 213.717 92.167 214.387 92.8774C215.057 93.5877 215.025 94.7079 214.315 95.378C204.074 105.036 197.231 105.392 196.944 105.402V105.405Z" fill="#4C0A7C"/>
<path d="M15.0025 37.7456H1.76954C0.792091 37.7456 0 36.9535 0 35.9761C0 34.9986 0.792091 34.2065 1.76954 34.2065H15.0025C15.98 34.2065 16.7721 34.9986 16.7721 35.9761C16.7721 36.9535 15.98 37.7456 15.0025 37.7456Z" fill="#4C0A7C"/>
<path d="M8.386 44.3619C7.40855 44.3619 6.61646 43.5698 6.61646 42.5924V29.3594C6.61646 28.3819 7.40855 27.5898 8.386 27.5898C9.36345 27.5898 10.1555 28.3819 10.1555 29.3594V42.5924C10.1555 43.5698 9.36345 44.3619 8.386 44.3619Z" fill="#4C0A7C"/>
<path d="M238.98 10.1553H225.747C224.77 10.1553 223.978 9.3632 223.978 8.38575C223.978 7.4083 224.77 6.61621 225.747 6.61621H238.98C239.958 6.61621 240.75 7.4083 240.75 8.38575C240.75 9.3632 239.958 10.1553 238.98 10.1553Z" fill="#4C0A7C"/>
<path d="M232.364 16.7721C231.386 16.7721 230.594 15.98 230.594 15.0025V1.76954C230.594 0.792092 231.386 0 232.364 0C233.341 0 234.133 0.792092 234.133 1.76954V15.0025C234.133 15.98 233.341 16.7721 232.364 16.7721Z" fill="#4C0A7C"/>
</svg>
