<svg width="93" height="217" viewBox="0 0 93 217" fill="none" xmlns="http://www.w3.org/2000/svg">
<path d="M47.3131 185.044C48.5183 186.571 49.6591 188.097 50.8321 189.559L36.9971 201.53L29.5574 193.834C29.5574 193.834 34.9403 187.695 42.589 179.276C44.1958 181.172 45.7866 183.084 47.3131 185.044Z" fill="#FFC68A"/>
<path d="M47.7952 216.233C47.988 216.394 48.2612 216.394 48.4379 216.233C49.2413 215.382 49.4663 214.048 49.1931 212.891C48.8718 211.605 48.0201 210.497 47.0721 209.549C46.124 208.601 45.0956 207.749 44.2601 206.705C42.846 204.953 42.1069 202.752 41.3999 200.615C41.191 199.972 40.8053 199.313 40.5482 198.67C40.4518 198.429 40.2911 198.188 40.0662 198.06C38.9092 197.369 37.3506 197.465 36.1455 196.822C34.9725 196.196 34.2654 194.974 33.5745 193.85C33.0442 192.998 32.4015 192.098 31.5659 191.536C31.116 191.231 30.5054 191.263 30.0715 191.6C28.2879 193.014 26.4079 195.087 25.267 197.112C25.1545 197.32 25.2028 197.578 25.3956 197.722L47.7952 216.217V216.233Z" fill="#040404"/>
<path d="M92.1763 152.055C89.1554 159.286 44.8223 196.63 44.8223 196.63L38.1699 190.186L37.0129 189.061L35.0365 187.133L70.5962 148.231L28.4163 94.5782L39.3429 94.3211L41.2872 94.289L64.8437 93.7427C64.8437 93.7427 95.1812 144.825 92.1763 152.055Z" fill="#143C4A"/>
<g style="mix-blend-mode:screen">
<path d="M78.2127 148.038L38.1699 190.186L37.0129 189.061L76.156 147.878L39.3429 94.321L41.2872 94.2889L78.2127 148.038Z" fill="#143C4A"/>
</g>
<path d="M46.0276 185.044C44.8224 186.571 43.6815 188.097 42.5085 189.559L56.3436 201.53L63.7833 193.834C63.7833 193.834 58.4004 187.695 50.7517 179.276C49.1449 181.172 47.5541 183.084 46.0276 185.044Z" fill="#FFC68A"/>
<path d="M45.5458 216.233C45.353 216.394 45.0798 216.394 44.9031 216.233C44.0997 215.382 43.8747 214.048 44.1479 212.891C44.4692 211.605 45.3209 210.497 46.2689 209.549C47.217 208.601 48.2453 207.749 49.0809 206.705C50.4949 204.953 51.2341 202.752 51.9411 200.615C52.15 199.972 52.5357 199.313 52.7927 198.67C52.8892 198.429 53.0498 198.188 53.2748 198.06C54.4317 197.369 55.9904 197.465 57.1955 196.822C58.3685 196.196 59.0755 194.974 59.7665 193.85C60.2968 192.998 60.9395 192.098 61.759 191.536C62.2089 191.231 62.8195 191.263 63.2534 191.6C65.037 193.014 66.917 195.087 68.0579 197.112C68.1704 197.32 68.1222 197.578 67.9294 197.722L45.5298 216.217L45.5458 216.233Z" fill="black"/>
<path d="M1.16417 152.055C4.18506 159.286 48.5182 196.63 48.5182 196.63L55.1706 190.186L56.3276 189.061L58.304 187.133L22.7442 148.231L64.9242 94.5782L53.9976 94.3211L52.0533 94.289L28.4968 93.7427C28.4968 93.7427 -1.84065 144.825 1.16417 152.055Z" fill="#143C4A"/>
<g style="mix-blend-mode:screen">
<path d="M15.1277 148.038L55.1706 190.186L56.3275 189.061L17.1845 147.878L53.9975 94.321L52.0533 94.2889L15.1277 148.038Z" fill="#143C4A"/>
</g>
<path d="M39.5518 41.4073H52.8404L52.1816 24.7603H40.548L39.5518 41.4073Z" fill="#FFC68A"/>
<path d="M40.2109 30.4164C40.2109 30.4164 46.2206 35.6226 52.407 30.2557L52.5355 33.6301C52.5355 33.6301 46.9115 36.8438 40.0181 33.6301L40.2109 30.4164Z" fill="#EDA14E"/>
<path d="M38.5718 40.636C38.5718 40.636 29.477 46.4368 25.4277 52.7839C25.4277 52.7839 24.0458 55.4995 24.5279 58.44C25.0099 61.3806 28.4004 93.7587 28.4004 93.7587H64.86C64.86 93.7587 68.0897 60.1433 68.0094 56.7368C67.929 53.3463 61.7748 44.7014 53.2906 40.6521H38.5718V40.636Z" fill="#904298"/>
<path d="M31.4212 88.5364C30.0393 90.5289 28.7056 92.5536 27.3879 94.5943L35.2776 100.17L40.6606 94.4336L32.4816 87.0421C32.1281 87.5402 31.7746 88.0383 31.4372 88.5364H31.4212Z" fill="#FFC68A"/>
<path d="M46.0596 96.1689C46.2685 96.3457 46.4774 96.5546 46.5738 96.8277C46.6702 97.0848 46.622 97.4223 46.397 97.583C46.1881 97.7276 45.9149 97.6954 45.6579 97.6633C44.758 97.5669 43.8582 97.6633 42.9905 97.9365C43.9546 99.7844 45.931 100.813 47.6664 101.954C48.1163 102.243 48.5984 102.773 48.3413 103.223C48.1164 103.625 47.5218 103.56 47.0719 103.416C45.9953 103.062 44.9669 102.548 44.0671 101.857L47.2486 104.444C47.57 104.701 47.9235 105.119 47.7146 105.489C47.5539 105.778 47.1522 105.794 46.8148 105.746C45.0794 105.521 43.4243 104.717 42.1549 103.512C43.1833 104.525 44.2117 105.553 45.2401 106.565C45.3686 106.694 45.4972 106.838 45.5132 107.015C45.5293 107.256 45.3044 107.465 45.0794 107.513C44.8384 107.562 44.5973 107.497 44.3724 107.417C42.8137 106.903 41.3515 106.148 40.0339 105.167C40.4034 105.714 40.7891 106.26 41.1587 106.806C41.3836 107.128 41.5925 107.594 41.3193 107.883C41.0622 108.14 40.6123 107.979 40.307 107.787C38.7323 106.774 37.5593 105.248 36.6916 103.593C35.8239 101.938 35.2615 100.138 34.6991 98.3703C34.6027 98.0811 34.5224 97.7919 34.5384 97.4866C34.5545 97.133 34.7313 96.8117 34.9401 96.5385C35.6311 95.5583 36.7077 94.8834 37.8325 94.5139C40.6927 93.5658 43.7939 94.1925 46.0596 96.2011V96.1689Z" fill="#FFC68A"/>
<path d="M20.5747 75.8101L38.3465 91.0752L37.6555 91.734L34.249 95.012L32.9475 96.2654L31.5977 97.5669L31.2442 97.9044C31.2442 97.9044 -6.64544 82.2375 4.20083 68.5793C11.978 58.7935 26.4236 48.4614 33.9919 43.3677C35.6148 42.2911 36.9325 41.4395 37.7841 40.8931C38.2662 40.5878 38.8446 40.5557 39.3428 40.7806C39.5517 40.8771 39.7445 41.0217 39.9052 41.1984C52.8886 55.3709 20.5586 75.8101 20.5586 75.8101H20.5747Z" fill="#904298"/>
<g style="mix-blend-mode:screen" opacity="0.5">
<path d="M29.284 91.6537C31.0194 92.8588 32.6905 93.9997 34.2491 95.012L32.9476 96.2654C31.9513 95.5905 30.3284 94.4818 28.352 93.0999C20.4945 87.6205 7.18972 77.8347 6.11313 74.155C4.94012 70.1218 23.4029 52.8642 33.992 43.3677C35.615 42.2911 36.9326 41.4395 37.7842 40.8931C38.2663 40.5878 38.8448 40.5557 39.3429 40.7806C22.8726 55.2263 6.90047 71.0859 7.65569 73.7051C8.45912 76.4528 19.7071 84.9852 29.284 91.6537Z" fill="#904298"/>
</g>
<g style="mix-blend-mode:multiply" opacity="0.5">
<path d="M26.054 71.9215C26.054 71.9215 31.9993 67.6634 35.422 63.4855C35.422 63.4855 31.8065 75.4245 26.5842 76.8224L26.054 71.9215Z" fill="#904298"/>
</g>
<path d="M60.8107 88.5364C62.1926 90.5289 63.5263 92.5536 64.8439 94.5943L56.9543 100.17L51.5713 94.4336L59.7502 87.0421C60.1037 87.5402 60.4572 88.0383 60.7947 88.5364H60.8107Z" fill="#FFC68A"/>
<path d="M46.1722 96.1689C45.9633 96.3457 45.7544 96.5546 45.658 96.8277C45.5615 97.0848 45.6098 97.4223 45.8347 97.583C46.0436 97.7276 46.3168 97.6954 46.5739 97.6633C47.4737 97.5669 48.3736 97.6633 49.2413 97.9365C48.2772 99.7844 46.3007 100.813 44.5653 101.954C44.1154 102.243 43.6333 102.773 43.8904 103.223C44.1154 103.625 44.7099 103.56 45.1598 103.416C46.2364 103.062 47.2648 102.548 48.1646 101.857L44.9831 104.444C44.6617 104.701 44.3082 105.119 44.5171 105.489C44.6778 105.778 45.0795 105.794 45.4169 105.746C47.1523 105.521 48.8074 104.717 50.0768 103.512C49.0484 104.525 48.0201 105.553 46.9917 106.565C46.8631 106.694 46.7346 106.838 46.7185 107.015C46.7024 107.256 46.9274 107.465 47.1523 107.513C47.3934 107.562 47.6344 107.497 47.8593 107.417C49.418 106.903 50.8803 106.148 52.1979 105.167C51.8283 105.714 51.4426 106.26 51.0731 106.806C50.8481 107.128 50.6392 107.594 50.9124 107.883C51.1695 108.14 51.6194 107.979 51.9247 107.787C53.4994 106.774 54.6885 105.248 55.5401 103.593C56.4078 101.938 56.9702 100.138 57.5326 98.3703C57.6291 98.0811 57.7094 97.7919 57.6933 97.4866C57.6772 97.133 57.5005 96.8117 57.2916 96.5385C56.6006 95.5583 55.5241 94.8834 54.3993 94.5139C51.5391 93.5658 48.4378 94.1925 46.1722 96.2011V96.1689Z" fill="#FFC68A"/>
<path d="M71.6409 75.8101L53.869 91.0752L54.56 91.734L57.9665 95.012L59.2681 96.2654L60.6178 97.5669L60.9713 97.9044C60.9713 97.9044 98.861 82.2375 88.0147 68.5793C80.2376 58.7935 65.7919 48.4614 58.2236 43.3677C56.6007 42.2911 55.283 41.4395 54.4314 40.8931C53.9494 40.5878 53.3709 40.5557 52.8728 40.7806H52.8567C52.6478 40.8771 52.455 41.0217 52.2943 41.1984C39.3109 55.3709 71.6409 75.8101 71.6409 75.8101Z" fill="#904298"/>
<g style="mix-blend-mode:screen" opacity="0.5">
<path d="M62.9317 91.6537C61.1963 92.8588 59.5252 93.9997 57.9666 95.012L59.2681 96.2654C60.2644 95.5905 61.8873 94.4818 63.8637 93.0999C71.7213 87.6205 85.026 77.8347 86.1026 74.155C87.2756 70.1218 68.8128 52.8642 58.2237 43.3677C56.6007 42.2911 55.2831 41.4395 54.4315 40.8931C53.9494 40.5878 53.3709 40.5557 52.8728 40.7806C69.3431 55.2263 85.3152 71.0859 84.56 73.7051C83.7566 76.4528 72.5086 84.9852 62.9317 91.6537Z" fill="#904298"/>
</g>
<g style="mix-blend-mode:multiply" opacity="0.5">
<path d="M66.804 72.3554C66.804 72.3554 60.8586 68.0973 57.436 63.9194C57.436 63.9194 61.1318 76.1476 66.3701 77.5456L66.8201 72.3554H66.804Z" fill="#904298"/>
</g>
<path d="M69.3751 110.374H23.0012V113.78H69.3751V110.374Z" fill="#90ABC2"/>
<path d="M69.3912 83.6195V110.374H23.0173V83.6195C23.0173 82.7678 23.7083 82.0448 24.576 82.0287H67.8004C68.6681 82.0287 69.3912 82.7518 69.3912 83.6195Z" fill="#B4CBDD"/>
<path d="M50.0607 97.5509C50.0607 99.688 48.3253 101.423 46.1882 101.423C44.0511 101.423 42.3157 99.688 42.3157 97.5509C42.3157 95.4138 44.0511 93.6784 46.1882 93.6784C48.3253 93.6784 50.0607 95.4138 50.0607 97.5509Z" fill="#E6F3FF"/>
<g style="mix-blend-mode:multiply" opacity="0.5">
<path d="M69.3912 107.787V110.374H23.0173V83.6195C23.0173 82.7678 23.7083 82.0448 24.576 82.0287C25.2348 87.5563 28.0307 104.541 37.5433 105.328C46.6381 106.083 63.1084 107.321 69.3912 107.787Z" fill="#B4CBDD"/>
</g>
<path d="M58.9625 17.2723C58.4322 16.8706 57.8859 16.7742 57.3717 16.8545C57.195 15.312 56.8897 13.8176 56.5683 12.4839C56.1666 10.7806 55.0257 9.49514 53.5635 9.02915C53.3707 8.96488 53.1618 8.90061 52.9529 8.83634C50.88 7.51872 48.4858 7.21341 46.188 7.37409C43.8581 7.19734 41.4638 7.51871 39.3749 8.8524C39.3749 8.8524 39.3642 8.85776 39.3428 8.86847C39.15 8.91667 38.9732 8.98095 38.7965 9.02915C37.3503 9.49514 36.1934 10.7806 35.7917 12.4839C35.4703 13.8337 35.165 15.312 34.9882 16.8545C34.4901 16.7903 33.9438 16.8706 33.4135 17.2723C31.7263 18.5257 32.819 23.1213 35.6631 24.3425C35.9202 25.0816 36.2255 25.8047 36.6433 26.5118C36.7558 26.7528 36.9165 26.9777 37.0771 27.2188C38.3948 29.147 40.2266 30.6414 42.2351 31.7019C44.7097 33.0034 47.7145 33.0034 50.173 31.7019C52.1655 30.6414 53.9973 29.1631 55.315 27.2348C55.4596 27.0099 55.6042 26.7849 55.7488 26.56C56.1666 25.8369 56.4719 25.0977 56.745 24.3586C59.5731 23.1213 60.6497 18.5578 58.9786 17.3045L58.9625 17.2723Z" fill="#FFC68A"/>
<path d="M47.2002 17.1278C46.8466 17.7063 46.7663 18.4454 46.8627 19.1203C46.9431 19.8113 47.2002 20.454 47.5055 21.0646C47.6661 21.3699 47.8429 21.6431 47.9233 21.8841C48.0197 22.1251 47.9875 22.3501 47.8751 22.6072C47.6501 23.1053 47.0555 23.4106 46.3967 23.491C47.0234 23.6998 47.8751 23.5552 48.3411 22.8804C48.566 22.5751 48.6624 22.1091 48.5499 21.7073C48.4374 21.3217 48.2446 21.0325 48.1161 20.7593C47.8268 20.1969 47.5698 19.6184 47.393 19.0239C47.2163 18.4294 47.1359 17.8027 47.2002 17.1278Z" fill="#EDA14E"/>
<path d="M44.838 15.9547C44.5809 15.7137 44.2756 15.6012 43.9542 15.553C43.6328 15.5209 43.2954 15.553 42.974 15.6334C42.6527 15.7137 42.3474 15.8905 42.1063 16.1154C41.8492 16.3243 41.6886 16.6135 41.56 16.8867C41.5118 16.9831 41.56 17.0956 41.6403 17.1438C41.7046 17.1759 41.785 17.1599 41.8492 17.1117H41.8653C42.0742 16.9188 42.267 16.7582 42.4759 16.6457C42.6848 16.5332 42.9097 16.4689 43.1347 16.4368C43.6007 16.3564 44.0506 16.5332 44.5809 16.5011H44.6451C44.8219 16.485 44.9504 16.3404 44.9344 16.1636C44.9344 16.0833 44.8862 16.019 44.838 15.9547Z" fill="#523329"/>
<path d="M48.6785 16.485C49.1927 16.5172 49.6587 16.3404 50.1247 16.4207C50.3496 16.4529 50.5746 16.5172 50.7835 16.6296C50.9924 16.7421 51.2013 16.9028 51.3941 17.0796H51.4102C51.4905 17.1599 51.603 17.1599 51.6833 17.0796C51.7315 17.0153 51.7476 16.9349 51.7154 16.8707C51.5869 16.5975 51.4262 16.3083 51.1691 16.0994C50.9281 15.8744 50.6228 15.6977 50.3014 15.6173C49.9801 15.537 49.6426 15.5048 49.3212 15.537C48.9999 15.5852 48.6946 15.6816 48.4375 15.9387C48.3089 16.0512 48.3089 16.244 48.4375 16.3725C48.4857 16.4368 48.566 16.469 48.6464 16.469H48.7106L48.6785 16.485Z" fill="#523329"/>
<path d="M47.1037 25.5798C46.2682 25.5637 45.4969 25.5155 44.8863 25.2262C44.581 25.0816 44.3078 24.8727 44.0668 24.5996C43.8097 24.3264 43.6329 23.989 43.3919 23.6194C43.3598 24.0372 43.3919 24.4871 43.6169 24.8888C43.7936 25.3066 44.1632 25.644 44.581 25.8368C44.9988 26.0297 45.4647 26.0939 45.8986 26.0297C46.3324 25.9815 46.7503 25.8368 47.0877 25.5798H47.1037Z" fill="#EDA14E"/>
<path d="M43.3916 19.6987C43.3916 20.4539 43.7612 21.0806 44.2111 21.0806C44.661 21.0806 45.0306 20.47 45.0306 19.6987C45.0306 18.9274 44.661 18.3168 44.2111 18.3168C43.7612 18.3168 43.3916 18.9274 43.3916 19.6987Z" fill="#523329"/>
<path d="M49.2249 19.6987C49.2249 20.4539 49.5944 21.0806 50.0444 21.0806C50.4943 21.0806 50.8638 20.47 50.8638 19.6987C50.8638 18.9274 50.4943 18.3168 50.0444 18.3168C49.5944 18.3168 49.2249 18.9274 49.2249 19.6987Z" fill="#523329"/>
<path d="M33.6706 19.7791C33.8313 19.4738 34.1526 19.3292 34.4419 19.2971C34.7472 19.2649 35.0364 19.3613 35.2935 19.522C35.8077 19.8434 36.2737 20.3415 36.6433 20.8557C36.7397 20.9843 36.9165 21.0164 37.045 20.92C37.1575 20.8396 37.1896 20.6789 37.1253 20.5504C36.8682 20.0844 36.3862 19.8916 35.9684 19.8112C35.7434 19.7791 35.5185 19.763 35.2775 19.8112C35.0364 19.8594 34.7793 19.988 34.6347 20.213C34.3455 20.6629 34.4579 21.2092 34.7632 21.5467C35.0685 21.8841 35.4864 22.0126 35.8881 22.0448C35.5185 21.8841 35.181 21.6752 35.0043 21.3699C34.8275 21.0967 34.8436 20.695 35.0043 20.5022C35.165 20.3094 35.5024 20.2933 35.8399 20.3576C36.1773 20.4219 36.4665 20.5986 36.6111 20.8396L37.0932 20.5343C36.6594 19.9719 36.1612 19.4738 35.4703 19.1524C35.1328 19.0078 34.7311 18.9436 34.3615 19.056C34.008 19.1685 33.6866 19.4577 33.6384 19.7952L33.6706 19.7791Z" fill="#EDA14E"/>
<path d="M58.7214 19.7791C58.5607 19.4738 58.2393 19.3292 57.9501 19.2971C57.6448 19.2649 57.3555 19.3613 57.0984 19.522C56.5842 19.8434 56.1183 20.3415 55.7487 20.8557C55.6523 20.9843 55.4755 21.0164 55.347 20.92C55.2345 20.8396 55.2024 20.6789 55.2667 20.5504C55.5237 20.0844 56.0058 19.8916 56.4236 19.8112C56.6485 19.7791 56.8735 19.763 57.1145 19.8112C57.3556 19.8594 57.6126 19.988 57.7573 20.213C58.0465 20.6629 57.934 21.2092 57.6287 21.5467C57.3234 21.8841 56.9056 22.0126 56.5039 22.0448C56.8735 21.8841 57.2109 21.6752 57.3877 21.3699C57.5644 21.0967 57.5483 20.695 57.3877 20.5022C57.227 20.3094 56.8896 20.2933 56.5521 20.3576C56.2147 20.4219 55.9254 20.5986 55.7808 20.8396L55.2988 20.5343C55.7326 19.9719 56.2308 19.4738 56.9217 19.1524C57.2591 19.0078 57.6609 18.9436 58.0304 19.056C58.384 19.1685 58.7053 19.4577 58.7535 19.7952L58.7214 19.7791Z" fill="#EDA14E"/>
<path d="M55.9419 6.47428C55.9258 6.3618 55.8776 6.26538 55.8454 6.1529C55.7972 5.54229 55.7169 4.94777 55.5562 4.35323C55.267 3.32484 54.7207 2.32858 53.8208 1.62157C53.0335 1.01096 52.0212 0.673526 51.0088 0.432498C49.4502 0.062921 47.8112 -0.113835 46.2204 0.0789875C44.7099 0.255742 43.2316 0.786001 42.0747 1.66977C41.9783 1.70191 41.8819 1.73405 41.7855 1.76619C40.0661 0.834215 37.6719 1.18772 36.1615 2.37679C34.6189 3.58193 33.944 5.46196 34.0244 7.27771C32.9317 7.87224 32.4978 9.07738 32.305 10.1861C32.1122 11.3109 32.0961 12.4518 32.2407 13.5927C32.3211 14.2033 33.3013 17.4009 33.3013 17.4009C33.3013 17.4009 37.9933 16.6778 37.7201 22.4625L37.9933 21.9804C38.3468 21.3698 38.636 20.7432 38.861 20.0683C39.4555 18.3007 40.4839 14.7656 40.1786 12.3554C40.1786 12.3554 40.6607 12.5 41.4641 12.6928C42.8299 13.0142 44.2439 13.1749 45.6419 13.1749H46.7346C48.1326 13.1749 49.5466 13.0142 50.9124 12.6928C51.7319 12.5 52.1979 12.3554 52.1979 12.3554C51.8926 14.7656 52.921 18.3007 53.5155 20.0683C53.7405 20.7271 54.0297 21.3698 54.3832 21.9804L54.6564 22.4625C54.3832 16.6939 59.0752 17.4009 59.0752 17.4009C59.0752 17.4009 59.9751 15.1352 60.0233 12.4357C60.1358 7.56694 55.9258 6.49034 55.9258 6.49034L55.9419 6.47428Z" fill="#523329"/>
</svg>
