<svg width="45" height="54" viewBox="0 0 45 54" fill="none" xmlns="http://www.w3.org/2000/svg">
<path d="M44.9714 53.0826C44.9714 52.9029 44.9666 52.5671 44.9523 52.1131C44.9523 52.1037 44.9523 52.0942 44.9523 52.0848C44.9523 51.9807 44.9476 51.8767 44.9428 51.7632C44.9428 51.7301 44.9428 51.6923 44.9428 51.6544C44.9428 51.5173 44.9333 51.3754 44.9285 51.2288C44.9285 51.1342 44.919 51.0397 44.9142 50.9404C44.9142 50.8836 44.9094 50.8221 44.9047 50.7607C44.8999 50.6614 44.8951 50.5573 44.8904 50.4533C44.8904 50.3965 44.8856 50.3398 44.8809 50.283C44.8761 50.1743 44.8666 50.0702 44.8618 49.9567C44.8618 49.8905 44.8523 49.8243 44.8475 49.7628C44.8427 49.6588 44.8332 49.55 44.8237 49.446C44.8189 49.3751 44.8141 49.3089 44.8094 49.2379C44.7998 49.1292 44.7951 49.0251 44.7855 48.9164C44.7808 48.8454 44.776 48.7745 44.7665 48.7036C44.7569 48.5948 44.7474 48.486 44.7379 48.3773C44.7331 48.3063 44.7236 48.2354 44.7188 48.1645C44.7093 48.051 44.695 47.9422 44.6854 47.8287C44.6759 47.7625 44.6712 47.6963 44.6616 47.6301C44.6473 47.5071 44.633 47.3889 44.6187 47.266C44.614 47.2092 44.6044 47.1572 44.5997 47.1004C44.5758 46.9255 44.552 46.7552 44.5282 46.585C43.9324 42.7072 43.2175 41.1845 38.0131 40.5839L37.6652 40.5461C37.5461 40.5319 37.4126 40.5177 37.2696 40.5035C37.2125 40.4988 37.1457 40.4894 37.0838 40.4799C36.9694 40.4657 36.8502 40.4515 36.7263 40.4373C36.6787 40.4326 36.6262 40.4232 36.5738 40.4184C36.4356 40.3995 36.2879 40.3853 36.1401 40.3664C36.0972 40.3617 36.0543 40.3569 36.0114 40.3522C35.8399 40.3286 35.6635 40.3097 35.4872 40.286C35.4634 40.286 35.4395 40.2813 35.4109 40.2766C34.5483 40.1631 33.6142 40.0165 32.7182 39.8462C32.7182 39.8462 32.7134 39.8462 32.7086 39.8462C31.4933 39.6098 30.3733 39.3166 29.6775 38.9666L28.8578 37.8695C28.8149 37.7466 28.7672 37.6283 28.7291 37.4865C28.7291 37.477 28.7195 37.4723 28.7195 37.4628C28.5146 36.7298 28.3955 35.8219 28.3526 34.9328C28.4288 34.8572 28.5051 34.7862 28.5861 34.7106C29.6441 33.7033 30.6259 32.7433 31.4409 31.8448C32.6419 31.3152 33.6571 30.6106 34.453 29.7168C35.1965 28.8798 35.6635 27.9907 35.959 27.1584C37.5222 26.6855 38.6375 24.4393 38.6375 21.5688C38.6375 18.6983 37.5699 16.5514 36.0591 16.0123C35.9971 15.1232 35.8542 14.2578 35.6397 13.4208C36.2783 7.30624 34.9963 3.74534 31.684 2.29827C30.4829 1.77336 29.3677 1.50854 28.3812 1.50854C27.9904 1.50854 27.6806 1.5511 27.4423 1.60312C26.6178 0.893774 25.0355 0 22.276 0C21.6326 0 20.9415 0.0472903 20.2314 0.146598C17.3194 0.539102 15.6942 1.04983 14.5075 1.42342C13.3542 1.78755 12.768 1.96252 11.8577 1.74972C11.5336 1.67405 11.2 1.81592 11.0379 2.10439C10.995 2.17532 10.018 3.89193 9.55094 6.10036C8.96473 8.89045 8.83605 11.5576 9.14584 14.2247C9.03145 14.8111 8.96473 15.4117 8.92184 16.0217C7.41104 16.5608 6.34347 18.774 6.34347 21.583C6.34347 24.7656 7.71606 27.1868 9.55094 27.2672C9.57477 27.2672 9.60337 27.2672 9.63196 27.2672H9.92269C10.1086 27.3476 10.304 27.3949 10.5137 27.3949H10.8473C11.0141 27.5131 11.1809 27.5888 11.3382 27.6313C11.362 27.8914 11.3858 28.1279 11.4049 28.3312C11.5574 29.9816 13.7545 32.2042 16.3948 34.72C16.4759 34.7957 16.5521 34.8714 16.6284 34.947C16.5855 35.7888 16.4759 36.6447 16.2947 37.3588L14.9698 39.1274C14.274 39.4159 13.3065 39.6571 12.2675 39.8604C12.2675 39.8604 12.2628 39.8604 12.258 39.8604C11.586 39.9928 10.8902 40.1063 10.2229 40.2009C10.1896 40.2056 10.1562 40.2104 10.1229 40.2151C9.95605 40.2387 9.78924 40.2624 9.6272 40.286C9.53188 40.3002 9.43656 40.3097 9.34124 40.3238C9.24592 40.338 9.15537 40.3475 9.06005 40.3617C8.9409 40.3759 8.82652 40.39 8.71214 40.4042C8.65495 40.4137 8.59775 40.4184 8.54056 40.4232C8.41188 40.4373 8.2832 40.4563 8.16405 40.4657C8.14023 40.4657 8.11639 40.4704 8.0878 40.4752C7.80184 40.5083 7.53495 40.5366 7.31095 40.565H7.30142L6.9678 40.6029C1.7634 41.2034 1.04851 42.7262 0.452764 46.6039C0.0238296 49.4271 0 53.1015 0 53.2575C0 53.4562 0.076255 53.6453 0.219233 53.7825C0.362211 53.9196 0.548083 54 0.748252 54H44.2374C44.2374 54 44.247 54 44.2517 54C44.6616 54 45 53.669 45 53.2575C45 53.2055 44.9952 53.1535 44.9809 53.1062L44.9714 53.0826ZM23.4675 52.4962H21.4992L20.7509 51.4085L22.4809 44.7927L24.211 51.4038L23.4627 52.4962H23.4675ZM18.1439 33.9066H21.9996C22.2093 33.9918 22.4333 34.0391 22.6716 34.0391H26.1698C26.4033 34.0391 26.6225 33.9918 26.8275 33.9114C26.8275 34.0391 26.8275 34.1809 26.8275 34.3275C26.5129 34.6302 26.2556 34.8903 26.0745 35.0936C25.7456 35.4719 25.2738 35.6469 24.5922 35.6469C24.2825 35.6469 23.987 35.6091 23.7439 35.5807C23.5819 35.5618 23.4437 35.5429 23.3436 35.5381L22.5238 35.4956C22.5238 35.4956 22.4952 35.4956 22.4809 35.4956C22.4666 35.4956 22.4523 35.4956 22.438 35.4956L21.6183 35.5381C21.5135 35.5381 21.38 35.5571 21.218 35.5807C20.9797 35.6091 20.6842 35.6469 20.3696 35.6469C19.6881 35.6469 19.2163 35.4719 18.8874 35.0936C18.7111 34.8903 18.449 34.6302 18.1392 34.3275C18.1392 34.1809 18.1392 34.0343 18.1392 33.9066H18.1439ZM22.3951 32.2515C22.3951 32.1002 22.5191 31.9772 22.6716 31.9772H24.3015C24.2634 32.0671 24.2396 32.1664 24.2396 32.2704C24.2396 32.3272 24.2586 32.3745 24.2729 32.4312H22.4476C22.419 32.3839 22.3951 32.3272 22.3951 32.2562V32.2515ZM23.0528 42.0168C22.9099 41.8513 22.7097 41.752 22.4857 41.752C22.2617 41.752 22.0377 41.8608 21.8947 42.0405L21.6564 41.7898L22.114 41.3264L22.3809 41.0568L23.2006 41.8891L23.0576 42.0215L23.0528 42.0168ZM16.5092 39.9361C16.5616 39.8888 16.6141 39.8368 16.6665 39.7847C16.7141 39.7375 16.7618 39.6949 16.8047 39.6429C16.8619 39.5814 16.9143 39.5105 16.9667 39.4395C17.0049 39.3875 17.043 39.3355 17.0764 39.2835C17.1193 39.2125 17.1669 39.1416 17.2098 39.0659C17.267 38.9666 17.3147 38.8626 17.3671 38.7586C17.3814 38.7255 17.3957 38.7018 17.41 38.6687L21.094 40.2435L18.8112 42.5606L16.3424 40.0543C16.3996 40.0165 16.4568 39.9786 16.5092 39.9361ZM22.3761 39.1889L17.8484 37.25C17.9199 36.9285 17.9724 36.6069 18.0105 36.2853C18.6062 36.8339 19.3926 37.1271 20.3744 37.1271C20.7795 37.1271 21.1417 37.0798 21.4086 37.0467C21.523 37.0325 21.6135 37.0183 21.6898 37.0183L22.4857 36.9805L23.2816 37.0183C23.3531 37.0183 23.4484 37.0325 23.558 37.0467C23.8249 37.0798 24.1871 37.1271 24.5922 37.1271C25.574 37.1271 26.3604 36.8339 26.9562 36.2853C26.9943 36.5785 27.0419 36.8764 27.1039 37.1696L22.3761 39.1936V39.1889ZM25.1689 41.7709C25.1689 41.5628 25.0736 41.3642 24.9163 41.2223L23.7725 40.2245L27.5662 38.664C27.5805 38.6971 27.5948 38.7207 27.6091 38.7491C27.6615 38.8579 27.7139 38.9666 27.7711 39.0659C27.814 39.1416 27.8569 39.2078 27.8998 39.2787C27.9379 39.3355 27.9761 39.3922 28.019 39.449C28.0714 39.5152 28.119 39.5861 28.1715 39.6476C28.2191 39.7043 28.2716 39.7516 28.3192 39.7989C28.3669 39.8462 28.4145 39.8982 28.467 39.9408C28.4813 39.9503 28.4956 39.9644 28.5099 39.9739L25.9553 42.5701L25.1689 41.7709ZM14.8936 40.7069L18.2726 44.1401C18.4108 44.282 18.6062 44.3624 18.8064 44.3624C19.0066 44.3624 19.202 44.282 19.3402 44.1401L20.6127 42.8444L21.2704 43.5348L19.6357 49.777L13.6401 41.0474C14.0834 40.9433 14.5028 40.8251 14.8888 40.7022L14.8936 40.7069ZM23.6772 43.4544L24.2396 42.9437L25.4168 44.1401C25.555 44.282 25.7504 44.3624 25.9505 44.3624C26.1507 44.3624 26.3461 44.282 26.4843 44.1401L29.9206 40.6501C30.3495 40.7967 30.8261 40.9292 31.3313 41.0521L25.3357 49.7818L23.6772 43.4544ZM28.2954 32.9136C28.2763 32.8568 28.2382 32.8143 28.2048 32.7622C28.3097 32.7433 28.4098 32.7197 28.5146 32.7008C28.4431 32.7717 28.3716 32.8426 28.2954 32.9088V32.9136ZM33.5093 23.2239C33.5236 23.1955 33.5522 23.1672 33.5617 23.1341C33.5903 23.0584 33.9573 22.0417 34.3577 20.5521C34.3815 20.5379 34.4101 20.5331 34.4291 20.5142C34.5245 20.4433 34.6007 20.4007 34.6531 20.3771V23.2665C34.3005 23.8198 34.1146 24.1461 33.9573 24.496C33.7714 24.1319 33.6142 23.7063 33.4998 23.2287L33.5093 23.2239ZM10.3087 23.2618V20.3724C10.3659 20.4007 10.4374 20.4386 10.5375 20.5095C10.5613 20.5284 10.5899 20.5331 10.6137 20.5473C11.0189 22.0606 11.3906 23.0773 11.4097 23.1293C11.424 23.1624 11.443 23.1908 11.4621 23.2192C11.3477 23.6968 11.1904 24.1272 11.0046 24.4866C10.8473 24.1366 10.6614 23.8103 10.3087 23.257V23.2618ZM11.9673 12.6216C11.7099 13.2742 11.5383 14.1301 11.424 15.0665C11.3811 13.9741 11.4144 12.6925 11.648 11.3968C13.6401 7.26841 17.7436 4.41685 22.4857 4.41685C27.2278 4.41685 31.3313 7.26368 33.3234 11.3968C33.557 12.6925 33.5903 13.9693 33.5474 15.0617C33.4331 14.1254 33.2615 13.2695 33.0041 12.6169C32.9374 12.4466 32.8564 12.2906 32.7754 12.1298C32.7611 12.1014 32.7468 12.0778 32.7325 12.0541L32.2178 11.3069C32.2178 11.3069 32.1892 11.2644 32.1701 11.2455C31.1549 10.0632 29.5155 9.33024 27.8998 9.33024C26.899 9.33024 26.0459 9.61871 25.4978 10.1436C24.6304 10.9712 23.1482 11.0327 22.7097 11.0327C22.6144 11.0327 22.5524 11.0327 22.5429 11.0327C22.5143 11.0327 22.4809 11.0327 22.4476 11.0327C22.438 11.0327 22.3761 11.0327 22.276 11.0327C21.8423 11.0327 20.3553 10.9665 19.4879 10.1389C18.9351 9.61398 18.082 9.32551 17.0764 9.32551C15.2415 9.32551 12.8633 10.3517 11.972 12.6121L11.9673 12.6216ZM33.5665 28.317C33.5856 28.1137 33.6094 27.8772 33.6332 27.6171C33.7905 27.5746 33.9621 27.4989 34.1241 27.3807H34.229C34.0479 27.7448 33.8191 28.1137 33.5379 28.4683C33.5474 28.4163 33.557 28.3643 33.5617 28.3123L33.5665 28.317ZM37.1362 21.5641C37.1362 22.9875 36.8169 24.0941 36.4118 24.8223C36.4451 24.2217 36.3975 23.8245 36.3927 23.7819C36.3736 23.6448 36.3117 23.5266 36.2307 23.4273C36.6596 22.2781 36.6596 20.6183 36.1544 19.7056V17.9133C36.6787 18.5895 37.1362 19.8569 37.1362 21.5688V21.5641ZM31.0787 3.64603C32.3798 4.2135 33.8906 5.40993 34.229 9.01813C33.8191 7.89736 33.2281 6.80497 32.375 5.845C31.2312 4.55399 29.7299 3.61766 27.9046 3.01708C28.0285 2.99816 28.181 2.98397 28.3764 2.98397C28.915 2.98397 29.8205 3.09747 31.0787 3.65076V3.64603ZM12.0912 3.2819C13.0777 3.40012 13.8927 3.15895 14.9508 2.82319C16.085 2.46379 17.6435 1.97671 20.4221 1.59839C21.0702 1.51327 21.6898 1.46598 22.2665 1.46598C24.4254 1.46598 25.6503 2.07601 26.3128 2.60093C25.1403 2.36448 23.8726 2.22734 22.4809 2.22734C18.0438 2.22734 14.7172 3.44268 12.5964 5.84027C11.5908 6.97995 10.9474 8.28987 10.5423 9.63289C10.6233 8.56415 10.7758 7.49067 11.0046 6.38883C11.2857 5.0458 11.7909 3.88721 12.0864 3.2819H12.0912ZM7.83044 21.5641C7.83044 19.8522 8.28797 18.5895 8.81222 17.9133V19.7103C8.27844 20.6703 8.30227 22.4673 8.81222 23.6164V25.2195C8.28797 24.5433 7.83044 23.2759 7.83044 21.5688V21.5641ZM12.8871 28.1799C12.8537 27.8157 12.8108 27.357 12.7537 26.8274C12.7537 26.7896 12.7298 26.7565 12.7203 26.7234C12.9824 26.3876 13.1492 25.9525 13.1492 25.4702V17.6579C13.1492 17.2181 13.011 16.8162 12.787 16.4899C12.8728 15.1894 13.0396 13.9693 13.3589 13.156C13.9928 11.5434 15.7276 10.8104 17.0716 10.8104C17.6721 10.8104 18.1868 10.9617 18.449 11.2124C19.6833 12.3899 21.5325 12.5176 22.2712 12.5176C22.3713 12.5176 22.4428 12.5176 22.4905 12.5176C22.5334 12.5176 22.6096 12.5176 22.7049 12.5176C23.4437 12.5176 25.2928 12.3899 26.5272 11.2124C26.7893 10.9617 27.2993 10.8151 27.895 10.8151C29.0579 10.8151 30.2732 11.3495 31.0072 12.1818L31.4743 12.858C31.5267 12.9574 31.5791 13.0567 31.6172 13.1607C31.9366 13.9693 32.1034 15.1894 32.1892 16.4899C31.9652 16.8162 31.8269 17.2181 31.8269 17.6579V25.4702C31.8269 25.9525 31.9938 26.3876 32.2559 26.7234C32.2463 26.7612 32.2273 26.7896 32.2225 26.8274C32.1701 27.3523 32.1224 27.811 32.0891 28.1799C32.0366 28.7568 31.3837 29.66 30.5449 30.6058C29.7013 30.9463 28.7624 31.197 27.6949 31.3483C27.3851 30.8375 26.8275 30.4923 26.1841 30.4923H22.6859C21.7089 30.4923 20.9177 31.2821 20.9177 32.2799C20.9177 32.3272 20.9272 32.3745 20.932 32.4218H17.3909C17.186 32.4218 16.9906 32.5069 16.8476 32.6535C16.7761 32.7291 16.7237 32.819 16.6903 32.9136C15.1128 31.3861 13.0015 29.2344 12.9062 28.1799H12.8871ZM1.92544 46.8025C2.4068 43.6388 2.57361 42.5748 7.13461 42.0499L7.47299 42.0121C7.47299 42.0121 7.50635 42.0121 7.52065 42.0074C7.64457 41.9932 7.77801 41.979 7.91623 41.9648C8.21171 41.9317 8.5358 41.8939 8.87895 41.8513C9.28882 41.7993 9.72252 41.7473 10.1753 41.6811C10.7901 41.5959 11.424 41.4966 12.0578 41.3831L19.1352 51.6875L18.9208 52.5009H1.50127C1.52987 51.2808 1.62519 48.7887 1.92544 46.8072V46.8025ZM26.0459 52.4962L25.8314 51.6828L32.9088 41.3784C34.2147 41.6148 35.5539 41.7851 36.6167 41.9128C36.9408 41.9506 37.2411 41.9837 37.4984 42.0121L37.832 42.0499C42.3978 42.5748 42.5598 43.6388 43.046 46.8025C43.351 48.7792 43.4415 51.2714 43.4701 52.4962H26.0411H26.0459Z" fill="black"/>
</svg>
