<svg width="156" height="126" viewBox="0 0 156 126" fill="none" xmlns="http://www.w3.org/2000/svg">
<path d="M89.7249 115.775L94.8507 109.83L62.3923 82.9312C59.7249 80.6334 55.6756 80.9547 53.3457 83.6543C51.0157 86.3538 51.305 90.4031 53.9723 92.717L89.7249 115.775Z" fill="#FFB894"/>
<path d="M100.33 111.34C100.539 111.517 100.764 111.71 100.86 111.967C100.973 112.224 100.925 112.562 100.716 112.722C100.523 112.883 100.234 112.851 99.9928 112.835C99.0929 112.786 98.1931 112.915 97.3415 113.22C98.3698 115.02 100.394 115.968 102.194 117.029C102.644 117.302 103.174 117.8 102.917 118.282C102.708 118.684 102.114 118.651 101.664 118.539C100.571 118.234 99.5268 117.752 98.5948 117.109C99.6875 117.928 100.78 118.748 101.873 119.551C102.21 119.808 102.58 120.21 102.387 120.58C102.242 120.869 101.825 120.901 101.503 120.869C99.7678 120.724 98.0645 119.985 96.763 118.828C97.8396 119.808 98.9001 120.773 99.9767 121.753C100.105 121.865 100.25 122.01 100.266 122.187C100.298 122.428 100.089 122.637 99.8481 122.701C99.6071 122.765 99.3661 122.701 99.1411 122.637C97.5664 122.187 96.072 121.496 94.7223 120.58C95.124 121.11 95.5257 121.64 95.9114 122.171C96.1524 122.492 96.3774 122.942 96.1203 123.231C95.8792 123.504 95.4132 123.36 95.1079 123.167C93.5011 122.219 92.2477 120.74 91.3157 119.134C90.3838 117.511 89.741 115.743 89.0983 113.992C89.0019 113.702 88.8894 113.413 88.8894 113.108C88.8894 112.754 89.0501 112.433 89.2429 112.144C89.9017 111.131 90.9301 110.424 92.0549 109.991C94.8669 108.914 98.0003 109.412 100.346 111.324L100.33 111.34Z" fill="#FFB894"/>
<path d="M61.2515 92.1867L61.2997 92.1385C64.1117 89.9853 65.0276 86.8841 63.4529 84.5863L39.8964 49.846C37.0362 45.7003 31.3158 44.672 27.2826 47.7732L27.2022 47.8374C23.169 50.9387 24.9848 59.3747 28.2467 63.2151L53.3297 92.026C55.1294 94.147 58.4395 94.3399 61.2515 92.1706V92.1867Z" fill="#FFB894"/>
<path d="M32.0385 69.4336C32.0385 69.4336 23.4097 59.4068 24.2774 53.5257C25.1611 47.6446 30.978 41.9403 37.7589 46.7769C44.5398 51.5975 48.1553 59.7282 48.1553 59.7282L32.0385 69.4496V69.4336Z" fill="#904298"/>
<path d="M127.1 97.8428C124.947 102.23 122.392 106.407 119.87 110.617C128.675 115.325 134.846 118.475 134.846 118.475L141.787 107.645L127.1 97.8589V97.8428Z" fill="#F2A883"/>
<path d="M155.446 97.9393C155.574 97.7304 155.542 97.4411 155.349 97.3126C154.401 96.6377 153.035 96.6055 151.943 97.0555C150.705 97.5536 149.741 98.5659 148.938 99.6264C148.134 100.687 147.444 101.844 146.528 102.808C144.985 104.463 142.928 105.491 140.904 106.504C140.293 106.809 139.699 107.275 139.104 107.629C138.879 107.757 138.67 107.95 138.574 108.191C138.06 109.444 138.381 110.955 137.915 112.256C137.465 113.51 136.356 114.377 135.344 115.229C134.573 115.872 133.769 116.643 133.335 117.543C133.094 118.041 133.223 118.636 133.625 119.005C135.28 120.58 137.594 122.138 139.763 122.958C139.988 123.038 140.229 122.958 140.357 122.749L155.478 97.9393H155.446Z" fill="#793D7F"/>
<path d="M137.449 104.126L128.386 116.434L83.2655 91.8171C83.2655 91.8171 80.7749 93.7454 76.8381 96.5895C69.768 101.667 58.0379 109.637 47.5612 114.538C42.0497 117.125 36.8756 118.844 32.9067 118.861C27.4434 118.861 24.9849 115.647 24.1172 111.453C22.4942 103.644 26.3507 92.4277 26.3507 92.4277H40.2339C40.2339 92.4277 42.4032 91.1904 45.7776 89.3265C56.0936 83.6222 77.7058 72.0849 83.2655 72.3581C90.6249 72.6955 137.449 104.126 137.449 104.126Z" fill="#143C4A"/>
<g style="mix-blend-mode:multiply" opacity="0.3">
<path d="M76.8381 96.5895C69.768 101.667 58.0379 109.637 47.5612 114.538C46.5649 114.57 45.5848 114.57 44.6046 114.57C37.679 114.554 30.4803 114.024 24.1172 111.453C22.4942 103.644 26.3507 92.4277 26.3507 92.4277H40.2339C40.2339 92.4277 42.4032 91.1904 45.7776 89.3265C46.5489 89.6961 47.3362 90.0496 48.1397 90.3227C53.603 92.1706 59.3716 92.8295 65.0277 93.7293C68.1932 94.2435 71.3587 94.8058 74.4439 95.6896C75.2473 95.9146 76.0668 96.2039 76.8381 96.5895Z" fill="#143C4A"/>
</g>
<path d="M124.192 106.793C124.755 111.646 124.851 116.531 124.996 121.448C134.942 120.66 141.835 119.985 141.835 119.985V107.114L124.192 106.793Z" fill="#FFB894"/>
<path d="M148.118 91.5762C148.118 91.3352 147.925 91.1102 147.684 91.0941C146.511 91.0299 145.354 91.7369 144.664 92.7171C143.892 93.8097 143.635 95.1755 143.523 96.4932C143.41 97.8268 143.458 99.1606 143.217 100.478C142.816 102.696 141.643 104.688 140.486 106.616C140.132 107.195 139.891 107.918 139.57 108.529C139.457 108.77 139.377 109.027 139.425 109.3C139.666 110.617 140.759 111.726 141.064 113.076C141.353 114.377 140.887 115.695 140.502 116.965C140.196 117.929 139.939 119.005 140.068 119.985C140.132 120.532 140.566 120.966 141.096 121.062C143.33 121.496 146.126 121.56 148.407 121.078C148.632 121.03 148.793 120.821 148.793 120.58L148.134 91.5441L148.118 91.5762Z" fill="#793D7F"/>
<path d="M129.189 122.894C129.189 122.894 76.2914 123.842 60.6246 123.585C44.9577 123.312 15.1024 129.739 5.04345 121.48C-5.03154 113.221 5.04345 92.4278 5.04345 92.4278H40.2336L26.7521 102.696L126.779 103.612L128.418 116.691L128.611 118.298L129.189 122.894Z" fill="#143C4A"/>
<g style="mix-blend-mode:screen">
<path d="M128.611 118.298C116.977 118.619 77.4163 119.68 68.0322 119.68C67.4377 119.68 66.9717 119.68 66.6343 119.68C65.156 119.632 61.878 119.632 57.7484 119.648C42.8849 119.664 18.0108 119.664 12.2101 118.073C5.2845 116.193 7.4859 98.3731 8.41787 92.4438H10.0247C8.86779 99.7871 7.53411 115.133 12.6278 116.531C18.2197 118.041 43.9294 118.041 57.7323 118.041C61.8941 118.041 65.172 118.025 66.6825 118.073C72.2261 118.202 115.965 117.045 128.418 116.707L128.611 118.314V118.298Z" fill="#143C4A"/>
</g>
<path d="M16.0024 39.5944L23.6993 41.7154L29.2911 39.5944L28.6323 22.9473H16.9826L16.0024 39.5944Z" fill="#FFB894"/>
<path d="M28.9694 31.6887C28.9694 31.6887 22.4456 31.6083 19.9067 28.8124C19.9067 28.8124 23.6347 35.754 29.1301 35.4487L28.9855 31.6887H28.9694Z" fill="#F29272"/>
<path d="M3.62956 56.8199C3.82238 48.7374 16.0023 39.5944 16.0023 39.5944H29.291C29.291 39.5944 41.6317 48.9784 42.8368 56.5146C43.4635 60.4674 40.2498 92.4277 40.2498 92.4277L22.6547 92.0903L5.05966 92.4277C5.05966 92.4277 3.54922 60.8209 3.62956 56.8199Z" fill="#FFB894"/>
<path d="M40.2339 92.4275H5.04377C5.04377 92.4275 -2.37991 57.0285 6.87558 47.0981L13.7529 41.442L15.0223 40.3976L15.9865 39.6102L25.3705 48.5282L29.2752 39.6102C29.2752 39.6102 29.9822 40.1405 31.0588 40.9921C31.4444 41.2974 31.8783 41.6509 32.3443 42.0205C35.3009 44.3825 39.6072 47.9497 41.6158 50.1993C44.8295 53.8148 43.6726 80.8742 40.2339 92.4275Z" fill="#904298"/>
<g style="mix-blend-mode:screen" opacity="0.5">
<path d="M32.3443 42.0207L27.1862 52.8348L13.7529 41.4422L15.0223 40.3978L26.6238 50.2638L31.0588 40.9923C31.4444 41.2976 31.8783 41.6511 32.3443 42.0207Z" fill="#904298"/>
</g>
<path d="M11.0051 53.7829C7.13256 56.1129 5.7828 61.078 7.96812 65.0309C14.042 76.0218 25.6435 95.7379 30.0142 94.7738C36.056 93.4401 60.6569 61.303 60.6569 61.303L55.1293 55.7112L32.3923 79.0588L23.0083 57.6233C20.9837 52.9956 15.3436 51.1959 11.0051 53.799V53.7829Z" fill="#FFB894"/>
<path d="M59.3232 58.1215C60.2069 58.5553 61.2674 58.2018 61.7013 57.3341L68.8839 42.9688C69.3178 42.085 68.9643 41.0245 68.0966 40.5907C67.2128 40.1568 66.1523 40.5103 65.7184 41.378L58.5358 55.7433C58.102 56.6271 58.4554 57.6876 59.3232 58.1215Z" fill="#143C4A"/>
<path d="M58.1503 62.2833C58.1503 62.2833 73.094 55.888 70.0249 49.4605C70.0249 49.4605 70.0571 49.2356 68.7716 48.8499C68.7716 48.8499 68.4824 46.5361 67.6468 46.054C66.8112 45.5719 64.8991 53.2367 60.8659 52.6421C60.8659 52.6421 61.3961 49.5409 61.5568 48.9303C61.7014 48.3197 60.5124 47.9823 59.5161 49.1392C58.5199 50.2961 56.0292 52.6742 54.2456 57.5912L58.1503 62.2833Z" fill="#FFB894"/>
<path d="M10.2337 70.896C10.2337 70.896 2.92249 59.873 4.52935 54.1526C6.13621 48.4322 14.5079 43.708 20.6301 49.3481C26.7522 54.9881 27.4431 63.2795 27.4431 63.2795L10.2337 70.896Z" fill="#793D7F"/>
<g style="mix-blend-mode:multiply" opacity="0.5">
<path d="M6.24866 63.5044L10.2337 70.8959L11.1817 70.4782L17.2556 80.7781L13.2064 78.3357C8.46613 75.4755 5.73447 70.1889 6.15226 64.6774L6.24866 63.4883V63.5044Z" fill="#793D7F"/>
</g>
<path d="M35.4613 11.2332C35.3488 9.771 34.6578 8.42126 33.517 7.5857C28.4393 3.84172 21.2085 6.0913 17.3359 7.2161C15.7612 7.66602 14.5239 8.9676 14.074 10.6548C13.7205 12.0046 13.3831 13.4829 13.1902 15.0254C12.7564 15.0254 12.2904 15.1218 11.8405 15.4593C10.2015 16.6805 11.1817 21.0672 13.8491 22.433C14.2186 23.4453 14.7328 24.4416 15.4398 25.4057C20.2122 31.8814 31.3316 33.44 34.2401 30.0978C34.9631 29.2622 35.397 27.3661 35.638 25.004C35.7666 23.59 35.8469 21.9992 35.863 20.3602C35.9112 15.9735 35.638 13.8363 35.4452 11.2332H35.4613Z" fill="#FFB894"/>
<path d="M29.1782 16.3591C28.8247 16.9376 28.7443 17.6768 28.8407 18.3517C28.9211 19.0426 29.1782 19.6853 29.4835 20.2959C29.6442 20.6013 29.8209 20.8744 29.9013 21.1155C29.9977 21.3565 29.9655 21.5814 29.8531 21.8385C29.6281 22.3366 29.0336 22.642 28.3748 22.7223C29.0014 22.9312 29.8531 22.7866 30.319 22.1117C30.544 21.8064 30.6404 21.3404 30.5279 20.9387C30.4155 20.553 30.2226 20.2638 30.0941 19.9906C29.8049 19.4282 29.5478 18.8498 29.371 18.2553C29.1942 17.6607 29.1139 17.034 29.1782 16.3591Z" fill="#F29272"/>
<path d="M26.8165 15.1862C26.5594 14.9452 26.2541 14.8327 25.9327 14.7845C25.6114 14.7523 25.2739 14.7845 24.9525 14.8648C24.6312 14.9451 24.3259 15.1219 24.0848 15.3468C23.8277 15.5557 23.6671 15.845 23.5385 16.1181C23.4903 16.2146 23.5385 16.327 23.6189 16.3752C23.6831 16.4074 23.7635 16.3913 23.8278 16.3431H23.8438C24.0527 16.1503 24.2455 15.9896 24.4544 15.8771C24.6633 15.7646 24.8883 15.7004 25.1132 15.6682C25.5792 15.5879 26.0291 15.7647 26.5594 15.7325H26.6237C26.8004 15.7164 26.929 15.5718 26.9129 15.3951C26.9129 15.3147 26.8647 15.2505 26.8165 15.1862Z" fill="#523329"/>
<path d="M30.6568 15.7164C31.171 15.7485 31.637 15.5718 32.103 15.6521C32.3279 15.6842 32.5529 15.7485 32.7618 15.861C32.9706 15.9735 33.1795 16.1342 33.3724 16.3109H33.3884C33.4688 16.3913 33.5813 16.3913 33.6616 16.3109C33.7098 16.2467 33.7259 16.1663 33.6937 16.102C33.5652 15.8289 33.4045 15.5397 33.1474 15.3308C32.9064 15.1058 32.6011 14.929 32.2797 14.8487C31.9583 14.7683 31.6209 14.7362 31.2995 14.7684C30.9782 14.8166 30.6728 14.913 30.4157 15.1701C30.2872 15.2826 30.2872 15.4754 30.4157 15.6039C30.464 15.6682 30.5443 15.7003 30.6246 15.7003H30.6889L30.6568 15.7164Z" fill="#523329"/>
<path d="M29.0818 24.8111C28.2462 24.7951 27.4749 24.7469 26.8643 24.4576C26.559 24.313 26.2858 24.1041 26.0448 23.831C25.8038 23.5578 25.611 23.2203 25.3699 22.8508C25.3378 23.2686 25.3699 23.7185 25.5949 24.1202C25.7716 24.538 26.1412 24.8754 26.559 25.0682C26.9768 25.2611 27.4428 25.3253 27.8766 25.2611C28.3105 25.2128 28.7283 25.0682 29.0657 24.8111H29.0818Z" fill="#F29272"/>
<path d="M25.3701 18.9301C25.3701 19.6853 25.7397 20.312 26.1896 20.312C26.6395 20.312 27.0091 19.7014 27.0091 18.9301C27.0091 18.1588 26.6395 17.5482 26.1896 17.5482C25.7397 17.5482 25.3701 18.1588 25.3701 18.9301Z" fill="#523329"/>
<path d="M31.2031 18.9301C31.2031 19.6853 31.5727 20.312 32.0226 20.312C32.4725 20.312 32.8421 19.7014 32.8421 18.9301C32.8421 18.1588 32.4725 17.5482 32.0226 17.5482C31.5727 17.5482 31.2031 18.1588 31.2031 18.9301Z" fill="#523329"/>
<path d="M12.2423 17.9659C12.403 17.6606 12.7244 17.516 13.0136 17.4839C13.3189 17.4518 13.6082 17.5482 13.8653 17.7088C14.3795 18.0302 14.8455 18.5284 15.215 19.0426C15.3114 19.1711 15.4882 19.2033 15.6167 19.1068C15.7292 19.0265 15.7614 18.8658 15.6971 18.7373C15.44 18.2713 14.9579 18.0785 14.5402 17.9981C14.3152 17.966 14.0902 17.9499 13.8492 17.9981C13.6082 18.0463 13.3511 18.1749 13.2065 18.3998C12.9172 18.8497 13.0297 19.3961 13.335 19.7335C13.6403 20.0709 14.0581 20.1995 14.4598 20.2316C14.0902 20.0709 13.7528 19.8621 13.576 19.5568C13.3993 19.2836 13.4154 18.8819 13.576 18.6891C13.7367 18.4962 14.0742 18.4802 14.4116 18.5444C14.749 18.6087 15.0383 18.7854 15.1829 19.0265L15.6649 18.7212C15.2311 18.1588 14.733 17.6607 14.042 17.3393C13.7046 17.1947 13.3029 17.1304 12.9333 17.2429C12.5798 17.3554 12.2584 17.6446 12.2102 17.982L12.2423 17.9659Z" fill="#F29272"/>
<path d="M18.1232 20.8102C18.1232 20.8102 21.9315 18.8016 21.8029 11.6993C21.8029 11.6993 33.3241 15.379 36.2003 12.6313C39.0766 9.8836 37.9036 4.32386 35.879 3.72933C35.879 3.72933 31.428 -1.21978 27.218 1.38333C27.218 1.38333 20.0675 -0.834159 18.5892 4.46847C18.5892 4.46847 9.43012 4.29172 11.3744 16.0218C11.3744 16.0218 13.2544 13.981 15.0541 15.8129C16.8538 17.6447 18.1232 20.7941 18.1232 20.7941V20.8102Z" fill="#523329"/>
</svg>
