<svg width="215" height="228" viewBox="0 0 215 228" fill="none" xmlns="http://www.w3.org/2000/svg">
<path d="M83.9933 154.45C84.3792 153.512 85.0052 152.097 83.7499 150.751C82.9437 149.887 81.199 149.56 80.0405 150.644C79.2083 151.423 77.6592 155.839 77.1306 157.14C76.3887 158.971 71.1712 171.302 71.159 172.166C71.1263 174.432 73.688 175.95 75.6652 174.255C76.5239 173.52 82.9933 156.877 83.9929 154.449L83.9933 154.45Z" fill="white"/>
<path d="M151.553 173.835C150.613 172.525 149.284 172.809 147.996 173.353C144.718 174.733 121.521 184.336 120.466 185.081C118.179 186.697 119.503 190.89 123.514 189.19C126.788 187.801 150.21 178.114 151.186 177.404C152.229 176.646 152.478 175.121 151.553 173.835L151.553 173.835Z" fill="white"/>
<path d="M117.814 175.692C121.036 174.323 144.615 164.57 145.514 163.882C147.318 162.499 146.37 158.05 142.267 159.791C139.083 161.141 115.558 170.884 114.673 171.548C113.574 172.374 113.16 173.733 114.196 175.194C115.075 176.434 116.232 176.364 117.815 175.692L117.814 175.692Z" fill="white"/>
<path d="M146.249 188.51L151.237 179.967L123.989 191.445C125.286 191.967 127.146 192.289 128.644 192.638L133.5 193.851C136.79 195.252 137.646 199.706 142.645 197.578C147.583 195.474 145.052 191.76 146.249 188.51Z" fill="white"/>
<path d="M174.594 129.635C173.954 128.496 172.279 128.081 171.419 127.731L154.8 120.985C153.917 120.625 152.555 119.831 151.196 120.787C150.089 121.565 149.558 122.857 150.278 124.279C150.907 125.521 152.577 125.849 153.446 126.2L166.785 131.615C169.562 132.739 172.11 134.383 173.893 133.136C174.91 132.424 175.357 130.993 174.593 129.633L174.594 129.635Z" fill="white"/>
<path d="M172.466 70.5701C171.162 70.3247 166.806 72.5061 165.257 73.1608C163.085 74.0785 151.69 78.6302 150.738 79.4897C149.06 81.0058 149.781 83.6591 152.067 84.119C153.337 84.3741 157.666 82.2081 159.204 81.5586C161.374 80.6416 172.78 76.1083 173.771 75.2663C175.454 73.8356 174.818 71.013 172.466 70.5701Z" fill="white"/>
<path d="M124.976 54.052C125.513 53.5155 127.343 48.5947 127.769 47.544L133.181 34.2043C133.59 33.2091 134.212 31.9822 132.891 30.6618C132.019 29.7898 130.467 29.3917 129.172 30.6254C128.179 31.5714 121.892 47.8391 120.819 50.4532C119.087 54.6723 123.237 55.791 124.976 54.0506L124.976 54.052Z" fill="white"/>
<path d="M71.6802 129.36C76.6834 134.679 79.8389 136.701 85.2079 140.894C100.158 152.569 97.0066 158.13 102.998 164.519C105.54 167.228 106.623 166.845 108.554 167.776C109.195 168.086 109.822 168.436 110.486 168.667C113.066 169.565 111.799 170.039 115.034 168.671L142.566 157.051C143.756 156.546 143.429 156.356 143.914 155.344C144.494 154.132 144.663 152.863 145.431 151.377C145.909 150.451 145.974 150.43 146.211 149.396C147.66 143.037 142.948 136.299 141.913 129.444C140.206 118.151 145.061 107.622 142.533 93.143C141.265 85.8855 138.679 79.5193 133.843 74.1093C131.641 71.6434 129.452 69.8627 127.079 68.1817C124.776 66.5513 123.647 66.1156 121.504 64.9825C110.127 58.9682 95.1126 58.7377 82.8216 65.2547C69.6397 72.2459 63.814 83.3835 61.361 93.0478C58.1807 105.577 61.1571 118.173 71.6811 129.36L71.6802 129.36ZM63.9295 92.6896C66.7725 81.6202 74.2162 72.2095 84.6685 66.942C93.2795 62.6038 102.633 61.776 111.419 63.7798C113.201 64.1862 117.177 65.5343 118.909 66.3368C128.462 70.7601 137.757 78.4907 140.171 93.5882C142.4 107.533 138.284 117.265 139.239 127.341C140.134 136.793 143.886 140.81 144.139 146.393C144.355 151.134 142.223 151.207 138.713 152.69L118.115 161.393C116.148 162.224 109.639 165.404 108.109 165.101C103.196 164.131 100.552 154.622 97.2858 149.722C93.7607 144.431 89.3247 141.068 85.0512 137.824C80.5501 134.408 76.6693 131.388 72.4955 126.706C62.6536 115.67 60.9694 104.211 63.9282 92.6891L63.9295 92.6896Z" fill="white"/>
<path d="M39.2992 131.776C41.3325 130.917 53.1099 126.109 53.9924 125.47C55.6309 124.286 55.1879 121.359 53.0154 120.757C51.5582 120.352 47.7218 122.392 45.9723 123.131C44.0181 123.957 32.1755 128.808 31.3758 129.349C29.3546 130.72 29.9028 133.58 32.1529 134.194C33.6488 134.602 37.6223 132.484 39.2992 131.776Z" fill="white"/>
<path d="M78.2133 51.4882C78.7154 52.6766 79.0325 53.8762 80.0023 54.5829C80.7049 55.0932 81.9251 55.2817 83.0658 54.4981C85.1311 53.0815 83.671 50.5837 82.714 48.3187L76.4787 33.5617C75.9789 32.3789 75.6469 31.1363 74.6271 30.5034C73.9644 30.0925 72.7429 29.8957 71.7307 30.602C69.5429 32.1285 70.9715 34.3467 71.9789 36.7308L78.2142 51.4878L78.2133 51.4882Z" fill="white"/>
<path d="M145.268 166.467C142.133 167.759 118.559 177.573 117.573 178.234C115.327 179.739 116.635 184.112 120.511 182.513C123.746 181.179 147.154 171.452 148.242 170.714C150.393 169.253 149.045 164.913 145.268 166.467Z" fill="white"/>
<path d="M40.3045 79.9151C42.5786 80.8405 44.6963 81.6971 46.9723 82.6218C49.5501 83.669 52.2292 85.3325 53.9811 83.8125C54.8394 83.0693 55.2685 81.5566 54.4198 80.2877C53.7327 79.2586 52.0862 78.8061 51.2133 78.4533L34.5943 71.7062C33.6273 71.3098 32.2531 70.5985 30.8403 71.8205C29.8842 72.649 29.382 73.9809 30.41 75.4274C31.2439 76.6017 38.7776 79.2968 40.3035 79.9155L40.3045 79.9151Z" fill="white"/>
</svg>
