<svg width="63" height="33" viewBox="0 0 63 33" fill="none" xmlns="http://www.w3.org/2000/svg">
<path d="M16.7133 30.4027C22.1488 25.5945 27.2726 21.0606 32.5379 16.4022C27.298 11.7646 22.1519 7.20839 16.7197 2.39856C16.7197 3.86096 16.7753 4.98847 16.6895 6.10481C16.6593 6.48755 16.2761 6.84159 16.0536 7.20839C15.7753 6.84478 15.2762 6.49393 15.2555 6.11756C15.1681 4.45262 15.2269 2.77971 15.2157 1.10839C15.211 0.317383 15.5893 -0.025493 16.3604 0.0175658C16.5496 0.0287292 16.7403 0.0207554 16.9311 0.0207554C31.4839 0.0207554 46.0367 0.0398925 60.5896 2.32493e-05C61.9218 -0.00316629 62.4035 0.320572 62.3955 1.74311C62.3383 11.5254 62.3447 21.3078 62.3908 31.0901C62.3971 32.3978 62.0299 32.8029 60.6961 32.7997C46.0956 32.7566 31.4951 32.7582 16.8945 32.8013C15.5607 32.8061 15.1108 32.3914 15.1967 31.0789C15.2889 29.6532 15.1649 28.2131 15.2523 26.7874C15.2777 26.3743 15.707 25.9852 15.9518 25.5865C16.2062 25.9709 16.6402 26.3393 16.6799 26.7443C16.7833 27.8208 16.7149 28.9116 16.7149 30.4011L16.7133 30.4027ZM18.0312 1.5613C25.1105 7.82716 31.9354 13.8666 38.808 19.9506C45.7236 13.8299 52.5342 7.80164 59.5832 1.5613H18.0312ZM43.9557 17.4069C42.5392 18.6541 41.1561 19.8103 39.8509 21.0462C39.1085 21.7479 38.533 21.7655 37.7858 21.0622C36.4742 19.8278 35.0943 18.6636 33.6651 17.4006C28.4824 21.9887 23.3729 26.5131 18.1075 31.1762H59.5212C54.2209 26.4876 49.1273 21.9807 43.9557 17.4069ZM60.7915 30.2991V2.50222C55.4673 7.21158 50.326 11.7599 45.0813 16.3991C50.326 21.0382 55.4673 25.5865 60.7915 30.2975V30.2991Z" fill="white"/>
<path d="M14.3079 15.6382C17.2029 15.6382 20.0963 15.6079 22.9897 15.6701C23.4475 15.6797 23.8974 16.1007 24.3505 16.3303C23.8958 16.6078 23.4443 17.1213 22.9865 17.1261C17.2458 17.1819 11.5051 17.1787 5.76444 17.1325C5.30499 17.1293 4.84872 16.7003 4.39087 16.4691C4.85031 16.1916 5.3034 15.686 5.7692 15.6749C8.61331 15.5999 11.4622 15.6382 14.3079 15.6382Z" fill="white"/>
<path d="M9.88681 9.72995C12.8279 9.72995 15.7706 9.69965 18.7101 9.76503C19.1361 9.7746 19.5511 10.2467 19.9708 10.5034C19.5638 10.7378 19.1568 11.1716 18.7482 11.1748C12.9137 11.2179 7.07767 11.2195 1.24319 11.1684C0.828262 11.1652 0.4181 10.6741 0.00634766 10.4093C0.405381 10.1829 0.801236 9.76663 1.20504 9.75865C4.09843 9.70124 6.99182 9.72835 9.88522 9.72995H9.88681Z" fill="white"/>
<path d="M9.87728 21.595C12.7723 21.595 15.6672 21.5599 18.559 21.6317C19.036 21.6428 19.5002 22.1261 19.9708 22.3924C19.5193 22.6188 19.0694 23.0399 18.6163 23.0431C12.8756 23.0877 7.13333 23.0909 1.39423 23.0399C0.92684 23.0351 0.464215 22.5551 0 22.2951C0.492831 22.0623 0.982482 21.6381 1.48008 21.6269C4.27809 21.5615 7.07768 21.595 9.87728 21.595Z" fill="white"/>
</svg>
