<svg width="63" height="33" viewBox="0 0 63 33" fill="none" xmlns="http://www.w3.org/2000/svg">
<path d="M16.7136 30.4027C22.149 25.5945 27.2729 21.0606 32.5382 16.4022C27.2983 11.7646 22.1522 7.20839 16.7199 2.39856C16.7199 3.86096 16.7756 4.98847 16.6897 6.10481C16.6595 6.48755 16.2764 6.84159 16.0538 7.20839C15.7756 6.84478 15.2764 6.49393 15.2557 6.11756C15.1683 4.45262 15.2271 2.77971 15.216 1.10839C15.2112 0.317383 15.5896 -0.025493 16.3606 0.0175658C16.5498 0.0287292 16.7406 0.0207554 16.9314 0.0207554C31.4842 0.0207554 46.037 0.0398925 60.5898 2.32493e-05C61.922 -0.00316629 62.4037 0.320572 62.3958 1.74311C62.3386 11.5254 62.3449 21.3078 62.391 31.0901C62.3974 32.3978 62.0301 32.8029 60.6963 32.7997C46.0958 32.7566 31.4953 32.7582 16.8948 32.8013C15.561 32.8061 15.1111 32.3914 15.1969 31.0789C15.2891 29.6532 15.1651 28.2131 15.2526 26.7874C15.278 26.3743 15.7072 25.9852 15.9521 25.5865C16.2064 25.9709 16.6404 26.3393 16.6802 26.7443C16.7835 27.8208 16.7151 28.9116 16.7151 30.4011L16.7136 30.4027ZM18.0315 1.5613C25.1108 7.82716 31.9357 13.8666 38.8083 19.9506C45.7238 13.8299 52.5344 7.80164 59.5835 1.5613H18.0315ZM43.956 17.4069C42.5395 18.6541 41.1564 19.8103 39.8512 21.0462C39.1087 21.7479 38.5332 21.7655 37.786 21.0622C36.4745 19.8278 35.0946 18.6636 33.6653 17.4006C28.4827 21.9887 23.3731 26.5131 18.1078 31.1762H59.5215C54.2211 26.4876 49.1275 21.9807 43.956 17.4069ZM60.7917 30.2991V2.50222C55.4675 7.21158 50.3262 11.7599 45.0815 16.3991C50.3262 21.0382 55.4675 25.5865 60.7917 30.2975V30.2991Z" fill="black"/>
<path d="M14.3079 15.6382C17.2029 15.6382 20.0963 15.6079 22.9897 15.6701C23.4475 15.6797 23.8974 16.1007 24.3505 16.3303C23.8958 16.6078 23.4443 17.1213 22.9865 17.1261C17.2458 17.1819 11.5051 17.1787 5.76444 17.1325C5.30499 17.1293 4.84872 16.7003 4.39087 16.4691C4.85031 16.1916 5.3034 15.686 5.7692 15.6749C8.61331 15.5999 11.4622 15.6382 14.3079 15.6382Z" fill="black"/>
<path d="M9.88656 9.72995C12.8276 9.72995 15.7703 9.69965 18.7098 9.76503C19.1359 9.7746 19.5508 10.2467 19.9705 10.5034C19.5635 10.7378 19.1565 11.1716 18.748 11.1748C12.9135 11.2179 7.07743 11.2195 1.24295 11.1684C0.828018 11.1652 0.417855 10.6741 0.00610352 10.4093C0.405137 10.1829 0.800991 9.76663 1.20479 9.75865C4.09819 9.70124 6.99158 9.72835 9.88497 9.72995H9.88656Z" fill="black"/>
<path d="M9.87703 21.595C12.772 21.595 15.667 21.5599 18.5588 21.6317C19.0357 21.6428 19.5 22.1261 19.9705 22.3924C19.519 22.6188 19.0691 23.0399 18.616 23.0431C12.8754 23.0877 7.13308 23.0909 1.39399 23.0399C0.926595 23.0351 0.463971 22.5551 -0.000244141 22.2951C0.492586 22.0623 0.982237 21.6381 1.47984 21.6269C4.27784 21.5615 7.07744 21.595 9.87703 21.595Z" fill="black"/>
</svg>
