<svg width="88" height="101" viewBox="0 0 88 101" fill="none" xmlns="http://www.w3.org/2000/svg">
<path d="M85.9047 100H2.23278C1.55256 100 0.999878 99.4474 0.999878 98.7672V35.0098C0.999878 34.3295 1.55256 33.7769 2.23278 33.7769H85.9047C86.5849 33.7769 87.1376 34.3295 87.1376 35.0098V98.7672C87.1376 99.4474 86.5849 100 85.9047 100ZM2.23278 34.4481C1.924 34.4481 1.67115 34.6987 1.67115 35.0098V98.7672C1.67115 99.076 1.92176 99.3289 2.23278 99.3289H85.9047C86.2134 99.3289 86.4663 99.0782 86.4663 98.7672V35.0098C86.4663 34.701 86.2157 34.4481 85.9047 34.4481H2.23278Z" fill="white" stroke="white"/>
<path d="M69.8009 93.3613H9.01492C8.45329 93.3613 7.99683 92.9048 7.99683 92.3432V41.4339C7.99683 40.8722 8.45329 40.4158 9.01492 40.4158H69.8009C70.3625 40.4158 70.819 40.8722 70.819 41.4339V92.3432C70.819 92.9048 70.3625 93.3613 69.8009 93.3613ZM9.01492 41.087C8.82473 41.087 8.6681 41.2437 8.6681 41.4339V92.3432C8.6681 92.5334 8.82473 92.69 9.01492 92.69H69.8009C69.9911 92.69 70.1477 92.5334 70.1477 92.3432V41.4339C70.1477 41.2437 69.9911 41.087 69.8009 41.087H9.01492Z" fill="white" stroke="white"/>
<path d="M78.5025 49.8C76.2582 49.8 74.4324 47.9741 74.4324 45.7298C74.4324 43.4855 76.2582 41.6597 78.5025 41.6597C80.7468 41.6597 82.5727 43.4855 82.5727 45.7298C82.5727 47.9741 80.7468 49.8 78.5025 49.8ZM78.5025 42.3309C76.6297 42.3309 75.1036 43.8547 75.1036 45.7298C75.1036 47.6049 76.6274 49.1287 78.5025 49.1287C80.3776 49.1287 81.9014 47.6049 81.9014 45.7298C81.9014 43.8547 80.3776 42.3309 78.5025 42.3309Z" fill="white" stroke="white"/>
<path d="M78.5025 63.8029C76.2582 63.8029 74.4324 61.977 74.4324 59.7327C74.4324 57.4885 76.2582 55.6626 78.5025 55.6626C80.7468 55.6626 82.5727 57.4885 82.5727 59.7327C82.5727 61.977 80.7468 63.8029 78.5025 63.8029ZM78.5025 56.3339C76.6297 56.3339 75.1036 57.8577 75.1036 59.7327C75.1036 61.6078 76.6274 63.1316 78.5025 63.1316C80.3776 63.1316 81.9014 61.6078 81.9014 59.7327C81.9014 57.8577 80.3776 56.3339 78.5025 56.3339Z" fill="white" stroke="white"/>
<path d="M83.8169 81.2267H74.0186V80.8911C74.0186 79.9043 74.8196 79.1033 75.8064 79.1033H82.0291C83.0158 79.1033 83.8169 79.9043 83.8169 80.8911V81.2267ZM74.7413 80.5555H83.0942C82.9509 80.1035 82.5281 79.7745 82.0291 79.7745H75.8064C75.3074 79.7745 74.8845 80.1035 74.7413 80.5555Z" fill="white" stroke="white"/>
<path d="M83.8169 85.0641H74.0186V84.7285C74.0186 83.7417 74.8196 82.9407 75.8064 82.9407H82.0291C83.0158 82.9407 83.8169 83.7417 83.8169 84.7285V85.0641ZM74.7413 84.3929H83.0942C82.9509 83.9409 82.5281 83.6119 82.0291 83.6119H75.8064C75.3074 83.6119 74.8845 83.9409 74.7413 84.3929Z" fill="white" stroke="white"/>
<path d="M83.8169 88.9018H74.0186V88.5661C74.0186 87.5794 74.8196 86.7783 75.8064 86.7783H82.0291C83.0158 86.7783 83.8169 87.5794 83.8169 88.5661V88.9018ZM74.7413 88.2305H83.0942C82.9509 87.7785 82.5281 87.4496 82.0291 87.4496H75.8064C75.3074 87.4496 74.8845 87.7785 74.7413 88.2305Z" fill="white" stroke="white"/>
<path d="M83.8169 92.7389H74.0186V92.4033C74.0186 91.4165 74.8196 90.6155 75.8064 90.6155H82.0291C83.0158 90.6155 83.8169 91.4165 83.8169 92.4033V92.7389ZM74.7413 92.0677H83.0942C82.9509 91.6157 82.5281 91.2868 82.0291 91.2868H75.8064C75.3074 91.2868 74.8845 91.6157 74.7413 92.0677Z" fill="white" stroke="white"/>
<path d="M62.6495 31.1298H25.4878L25.7093 30.6532C26.5372 28.8788 27.5867 27.2543 28.8352 25.8267L17.6675 6.48513C16.6606 4.73982 17.2603 2.5 19.0056 1.4931C19.8491 1.00307 20.8337 0.873287 21.7779 1.12613C22.7199 1.37898 23.5098 1.98312 23.9976 2.82893L34.6171 21.224C37.5148 19.6935 40.7749 18.8858 44.0642 18.8858C47.3534 18.8858 50.6135 19.6935 53.5112 21.224L64.1307 2.82893C65.1376 1.08586 67.3775 0.483949 69.1228 1.49086C70.8681 2.49777 71.4677 4.73758 70.4608 6.48289L59.2931 25.8245C60.5417 27.2543 61.5933 28.8765 62.419 30.6509L62.6405 31.1275L62.6495 31.1298ZM26.5484 30.4585H61.5888C60.79 28.8542 59.801 27.3863 58.6397 26.0908L58.4764 25.9095L69.8858 6.14725C70.707 4.72192 70.2169 2.89382 68.7938 2.07263C67.3707 1.25144 65.5404 1.73923 64.717 3.16456L53.7685 22.1258L53.4799 21.9669C50.6091 20.3894 47.3534 19.5548 44.0664 19.5548C40.7794 19.5548 37.526 20.3894 34.6529 21.9669L34.3643 22.1258L23.4158 3.16456C23.0153 2.47539 22.3731 1.98089 21.6034 1.77279C20.8337 1.56694 20.0304 1.6721 19.3412 2.07263C17.9159 2.89382 17.4258 4.72192 18.2493 6.14725L29.6587 25.9095L29.4953 26.0908C28.334 27.3863 27.3428 28.8542 26.5462 30.4585H26.5484Z" fill="white" stroke="white"/>
</svg>
