<svg width="152" height="129" viewBox="0 0 152 129" fill="none" xmlns="http://www.w3.org/2000/svg">
<path d="M150.49 126.061H137.276V46.6399C137.276 44.3284 135.395 42.4476 133.083 42.4476H114.37V23.5739C114.37 21.2623 112.489 19.3816 110.178 19.3816H105.532C104.721 19.3816 104.063 20.0393 104.063 20.8506C104.063 21.6619 104.721 22.3197 105.532 22.3197H110.178C110.869 22.3197 111.431 22.8821 111.431 23.5736V126.061H98.165V102.41H102.898C103.71 102.41 104.367 101.752 104.367 100.941C104.367 100.129 103.71 99.4715 102.898 99.4715H49.0601C48.2488 99.4715 47.591 100.129 47.591 100.941C47.591 101.752 48.2488 102.41 49.0601 102.41H53.7934V126.061H40.5269V23.5741C40.5269 22.8826 41.0893 22.3202 41.7808 22.3202H46.426C47.2373 22.3202 47.895 21.6625 47.895 20.8512C47.895 20.0399 47.2373 19.3821 46.426 19.3821H41.7808C39.4693 19.3821 37.5885 21.2629 37.5885 23.5744V42.4481H18.875C16.5635 42.4481 14.6827 44.3289 14.6827 46.6404V126.062H1.46905C0.657748 126.062 0 126.72 0 127.531C0 128.342 0.657748 129 1.46905 129H150.49C151.301 129 151.959 128.342 151.959 127.531C151.959 126.72 151.301 126.062 150.49 126.062V126.061ZM37.5888 93.2849H29.3946V85.0907H37.5888V93.2849ZM37.5888 68.8974H29.3946V60.7033H37.5888V68.8974ZM17.6214 126.061V46.6399C17.6214 45.9484 18.1838 45.386 18.8753 45.386H37.5888V57.7649H27.9253C27.114 57.7649 26.4563 58.4227 26.4563 59.234V70.3665C26.4563 71.1778 27.114 71.8355 27.9253 71.8355H37.5888V82.1521H27.9253C27.114 82.1521 26.4563 82.8098 26.4563 83.6211V94.7536C26.4563 95.5649 27.114 96.2227 27.9253 96.2227H37.5888V126.061H17.6214V126.061ZM56.7317 102.41H74.51V126.062H56.7317V102.41ZM77.4483 126.061V102.41H95.2266V126.061H77.4483ZM114.37 60.7033H122.564V68.8974H114.37V60.7033ZM114.37 85.0907H122.564V93.2849H114.37V85.0907ZM114.37 96.2232H124.033C124.845 96.2232 125.502 95.5655 125.502 94.7542V83.6217C125.502 82.8104 124.845 82.1526 124.033 82.1526H114.37V71.836H124.033C124.845 71.836 125.502 71.1783 125.502 70.367V59.2345C125.502 58.4232 124.845 57.7654 124.033 57.7654H114.37V45.3865H133.083C133.775 45.3865 134.337 45.9489 134.337 46.6404V126.062H114.37V96.2235V96.2232Z" fill="white"/>
<path d="M68.7132 41.702H83.246V28.1175H96.8305V13.5847H83.246V0H68.7132V13.5844H55.1288V28.1172H68.7132V41.7017V41.702ZM58.0671 25.1792V16.5231H71.6516V2.93835H80.3077V16.5228H93.8921V25.1789H80.3077V38.7633H71.6516V25.1789H58.0671V25.1792Z" fill="white"/>
<path d="M49.6967 64.7676H60.8292C61.6405 64.7676 62.2983 64.1099 62.2983 63.2986V52.1661C62.2983 51.3548 61.6405 50.697 60.8292 50.697H49.6967C48.8854 50.697 48.2277 51.3548 48.2277 52.1661V63.2986C48.2277 64.1099 48.8854 64.7676 49.6967 64.7676ZM51.166 53.6351H59.3602V61.8293H51.166V53.6351Z" fill="white"/>
<path d="M83.0147 52.1661C83.0147 51.3548 82.3569 50.697 81.5457 50.697H70.4131C69.6018 50.697 68.9441 51.3548 68.9441 52.1661V63.2986C68.9441 64.1099 69.6018 64.7676 70.4131 64.7676H81.5457C82.3569 64.7676 83.0147 64.1099 83.0147 63.2986V52.1661ZM80.0766 61.8293H71.8824V53.6351H80.0766V61.8293Z" fill="white"/>
<path d="M89.6604 52.1661V63.2986C89.6604 64.1099 90.3181 64.7676 91.1294 64.7676H102.262C103.073 64.7676 103.731 64.1099 103.731 63.2986V52.1661C103.731 51.3548 103.073 50.697 102.262 50.697H91.1294C90.3181 50.697 89.6604 51.3548 89.6604 52.1661ZM92.5988 53.6351H100.793V61.8293H92.5988V53.6351Z" fill="white"/>
<path d="M49.6967 89.1551H60.8292C61.6405 89.1551 62.2983 88.4973 62.2983 87.686V76.5535C62.2983 75.7422 61.6405 75.0845 60.8292 75.0845H49.6967C48.8854 75.0845 48.2277 75.7422 48.2277 76.5535V87.686C48.2277 88.4973 48.8854 89.1551 49.6967 89.1551ZM51.166 78.0226H59.3602V86.2167H51.166V78.0226Z" fill="white"/>
<path d="M81.5457 75.0842H70.4131C69.6018 75.0842 68.9441 75.742 68.9441 76.5533V87.6858C68.9441 88.4971 69.6018 89.1548 70.4131 89.1548H81.5457C82.3569 89.1548 83.0147 88.4971 83.0147 87.6858V76.5533C83.0147 75.742 82.3569 75.0842 81.5457 75.0842ZM80.0766 86.2167H71.8824V78.0226H80.0766V86.2167Z" fill="white"/>
<path d="M102.262 75.0842H91.1299C90.3186 75.0842 89.6609 75.742 89.6609 76.5533V87.6858C89.6609 88.4971 90.3186 89.1548 91.1299 89.1548H102.262C103.074 89.1548 103.731 88.4971 103.731 87.6858V76.5533C103.731 75.742 103.074 75.0842 102.262 75.0842ZM100.793 86.2167H92.599V78.0226H100.793V86.2167Z" fill="white"/>
</svg>
