<svg width="158" height="158" viewBox="0 0 158 158" fill="none" xmlns="http://www.w3.org/2000/svg">
<path d="M113.399 56.9873C119.708 65.829 123.438 76.6508 123.438 88.3246C123.438 118.119 99.1926 142.365 69.398 142.365C39.6033 142.365 15.3578 118.119 15.3578 88.3246C15.3578 58.53 39.6033 34.2844 69.398 34.2844C81.0717 34.2844 91.8706 38.0145 100.735 44.3234L111.695 33.3634C99.9754 24.3145 85.3084 18.9266 69.398 18.9266C31.1301 18.9266 0 50.0567 0 88.3246C0 126.592 31.1301 157.723 69.398 157.723C107.666 157.723 138.796 126.592 138.796 88.3246C138.796 72.4142 133.408 57.7471 124.359 46.0273L113.399 56.9873Z" fill="#4C0A7C"/>
<path d="M105.317 65.0924L97.2119 73.1973C99.6756 77.6872 101.057 82.8448 101.057 88.3248C101.057 105.778 86.8505 119.961 69.4205 119.961C51.9904 119.961 37.7838 105.755 37.7838 88.3248C37.7838 70.8947 51.9904 56.6882 69.4205 56.6882C74.9005 56.6882 80.0351 58.0927 84.548 60.5334L92.6529 52.4285C85.9526 48.0998 77.9858 45.567 69.4205 45.567C45.7966 45.567 26.6396 64.724 26.6396 88.3478C26.6396 111.972 45.7966 131.129 69.4205 131.129C93.0443 131.129 112.201 111.972 112.201 88.3478C112.201 79.7825 109.669 71.8157 105.34 65.1154L105.317 65.0924Z" fill="#4C0A7C"/>
<path d="M69.3978 106.63C79.5074 106.63 87.7028 98.4343 87.7028 88.3247C87.7028 78.2151 79.5074 70.0197 69.3978 70.0197C59.2882 70.0197 51.0928 78.2151 51.0928 88.3247C51.0928 98.4343 59.2882 106.63 69.3978 106.63Z" fill="#4C0A7C"/>
<path d="M157.217 16.0946L144.99 12.3876L141.974 0L119.547 21.2292L121.988 31.1991L67.1421 86.0452L71.6781 90.5811L127.215 35.0213L134.79 37.3238L157.217 16.0946Z" fill="#4C0A7C"/>
</svg>
