<svg width="136" height="161" viewBox="0 0 136 161" fill="none" xmlns="http://www.w3.org/2000/svg">
<path d="M40.6203 94.674L58.1655 160.457L0.165039 94.674H40.6203Z" fill="#4C0A7C"/>
<path d="M40.9432 85.2795H0.142578L26.9669 58.4551C27.8419 57.5802 29.0392 57.0736 30.2826 57.0736H57.0378L40.9202 85.2565L40.9432 85.2795Z" fill="#4C0A7C"/>
<path d="M86.6943 85.2795H47.0679L67.8827 57.0967L86.6943 85.2795Z" fill="#4C0A7C"/>
<path d="M85.4054 94.9271L67.8601 160.71L50.3149 94.9271H85.3823H85.4054Z" fill="#4C0A7C"/>
<path d="M94.7993 85.2795L78.6816 57.0967H105.437C106.68 57.0967 107.878 57.5802 108.753 58.4782L135.554 85.3025H94.7533L94.7993 85.2795Z" fill="#4C0A7C"/>
<path d="M95.1453 94.9271H135.601L77.6001 160.71L95.1453 94.9271Z" fill="#4C0A7C"/>
<path d="M67.8827 26.9797C65.2809 26.9797 63.1855 24.8844 63.1855 22.2826V4.89854C63.1855 2.29669 65.2809 0.201416 67.8827 0.201416C70.4846 0.201416 72.5798 2.29669 72.5798 4.89854V22.2826C72.5798 24.8844 70.4846 26.9797 67.8827 26.9797Z" fill="#4C0A7C"/>
<path d="M21.1644 36.6735L12.4609 21.615C11.1715 19.3586 11.9313 16.5034 14.1878 15.191C16.4442 13.9016 19.2994 14.6614 20.6118 16.9179L29.3153 31.9764C30.6047 34.2328 29.8449 37.0879 27.5884 38.4004C25.355 39.6898 22.4768 38.93 21.1644 36.6735Z" fill="#4C0A7C"/>
<path d="M108.154 38.4004C105.898 37.111 105.138 34.2328 106.427 31.9764L115.131 16.9179C116.42 14.6614 119.298 13.9016 121.555 15.191C123.811 16.4804 124.571 19.3586 123.282 21.615L114.578 36.6735C113.266 38.93 110.411 39.6898 108.154 38.4004Z" fill="#4C0A7C"/>
</svg>
