<svg width="537" height="326" viewBox="0 0 537 326" fill="none" xmlns="http://www.w3.org/2000/svg">
<path d="M536.846 0.960083H0.638184V325.706H536.846V0.960083Z" fill="white"/>
<path d="M334.928 218.127H25.5444V296.365H334.928V218.127Z" fill="#B4CBDD"/>
<path d="M144.693 251.164H203.359V283.863C203.359 285.213 202.266 286.289 200.933 286.289H147.119C145.769 286.289 144.693 285.197 144.693 283.863V251.164Z" fill="white"/>
<path d="M199.175 230.307L143.582 244.519C143.238 244.607 143.031 244.957 143.119 245.301L144.679 251.404C144.767 251.748 145.117 251.955 145.461 251.867L201.054 237.655C201.398 237.567 201.605 237.217 201.517 236.873L199.957 230.771C199.869 230.427 199.519 230.219 199.175 230.307Z" fill="white"/>
<path d="M153.964 249.669L149.995 250.682L151.956 242.358L155.925 241.33L153.964 249.669Z" fill="#B4CBDD"/>
<path d="M166.835 246.375L162.866 247.404L164.827 239.064L168.796 238.052L166.835 246.375Z" fill="#B4CBDD"/>
<path d="M179.69 243.097L175.737 244.11L177.698 235.77L181.667 234.758L179.69 243.097Z" fill="#B4CBDD"/>
<path d="M192.561 239.803L188.592 240.815L190.552 232.476L194.521 231.464L192.561 239.803Z" fill="#B4CBDD"/>
<path d="M146.3 30.3013H25.5444V108.539H146.3V30.3013Z" fill="#AF2C93"/>
<path d="M61.4417 66.1824L85.3516 45.5182L109.631 66.1824L88.9992 88.0838H83.2145L61.4417 66.1824Z" fill="white"/>
<path d="M61.4417 66.1824V93.3222L77.4459 80.7566L61.4417 66.1824Z" fill="white" stroke="#B4CBDD" stroke-width="1.27" stroke-miterlimit="10"/>
<path d="M109.631 66.1824V93.3222L93.627 80.7566L109.631 66.1824Z" fill="white" stroke="#B4CBDD" stroke-width="1.27" stroke-miterlimit="10"/>
<path d="M61.4417 93.3222L77.4459 80.7566H93.4341L109.246 93.3222H61.4417Z" fill="white" stroke="#B4CBDD" stroke-width="1.27" stroke-miterlimit="10"/>
<path d="M511.956 124.206H432.368V202.444H511.956V124.206Z" fill="#B4CBDD"/>
<path d="M452.117 148.068C452.117 148.068 451.779 140.082 456.359 139.069C457.371 138.844 458.512 138.973 459.669 139.294C466.273 141.206 469.776 148.582 467.43 155.058C466.771 156.873 465.678 158.496 463.927 159.525C463.927 159.525 470.885 170.998 480.992 173.279L482.615 171.207C485.668 167.286 490.794 165.39 495.582 166.739C497.109 167.173 498.33 167.848 498.651 168.86C499.76 172.251 502.138 179.9 497.044 182.278C491.951 184.656 474.886 184.479 463.236 171.833C451.602 159.187 452.117 148.052 452.117 148.052V148.068Z" fill="white"/>
<path d="M418.308 124.206H157.885V202.444H418.308V124.206Z" fill="#4C0A7C"/>
<path d="M171.333 166.478C170.445 166.478 169.645 166.294 168.933 165.926C168.221 165.55 167.661 165.03 167.253 164.366C166.853 163.694 166.653 162.934 166.653 162.086C166.653 161.238 166.853 160.482 167.253 159.818C167.661 159.146 168.221 158.626 168.933 158.258C169.645 157.882 170.445 157.694 171.333 157.694C172.149 157.694 172.877 157.838 173.517 158.126C174.157 158.414 174.685 158.83 175.101 159.374L173.313 160.97C172.793 160.314 172.181 159.986 171.477 159.986C170.885 159.986 170.409 160.178 170.049 160.562C169.689 160.938 169.509 161.446 169.509 162.086C169.509 162.726 169.689 163.238 170.049 163.622C170.409 163.998 170.885 164.186 171.477 164.186C172.181 164.186 172.793 163.858 173.313 163.202L175.101 164.798C174.685 165.342 174.157 165.758 173.517 166.046C172.877 166.334 172.149 166.478 171.333 166.478ZM180.147 166.478C179.243 166.478 178.431 166.29 177.711 165.914C176.991 165.538 176.427 165.018 176.019 164.354C175.611 163.682 175.407 162.926 175.407 162.086C175.407 161.246 175.611 160.494 176.019 159.83C176.427 159.158 176.991 158.634 177.711 158.258C178.431 157.882 179.243 157.694 180.147 157.694C181.051 157.694 181.863 157.882 182.583 158.258C183.303 158.634 183.867 159.158 184.275 159.83C184.683 160.494 184.887 161.246 184.887 162.086C184.887 162.926 184.683 163.682 184.275 164.354C183.867 165.018 183.303 165.538 182.583 165.914C181.863 166.29 181.051 166.478 180.147 166.478ZM180.147 164.186C180.499 164.186 180.815 164.102 181.095 163.934C181.383 163.758 181.611 163.514 181.779 163.202C181.947 162.882 182.031 162.51 182.031 162.086C182.031 161.662 181.947 161.294 181.779 160.982C181.611 160.662 181.383 160.418 181.095 160.25C180.815 160.074 180.499 159.986 180.147 159.986C179.795 159.986 179.475 160.074 179.187 160.25C178.907 160.418 178.683 160.662 178.515 160.982C178.347 161.294 178.263 161.662 178.263 162.086C178.263 162.51 178.347 162.882 178.515 163.202C178.683 163.514 178.907 163.758 179.187 163.934C179.475 164.102 179.795 164.186 180.147 164.186ZM194.195 157.886V166.286H191.867L188.675 162.47V166.286H185.915V157.886H188.243L191.435 161.702V157.886H194.195ZM197.384 160.082H194.924V157.886H202.676V160.082H200.216V166.286H197.384V160.082ZM208.713 164.822H205.521L204.957 166.286H202.077L205.749 157.886H208.533L212.205 166.286H209.277L208.713 164.822ZM207.933 162.782L207.117 160.67L206.301 162.782H207.933ZM216.884 166.478C215.996 166.478 215.196 166.294 214.484 165.926C213.772 165.55 213.212 165.03 212.804 164.366C212.404 163.694 212.204 162.934 212.204 162.086C212.204 161.238 212.404 160.482 212.804 159.818C213.212 159.146 213.772 158.626 214.484 158.258C215.196 157.882 215.996 157.694 216.884 157.694C217.7 157.694 218.428 157.838 219.068 158.126C219.708 158.414 220.236 158.83 220.652 159.374L218.864 160.97C218.344 160.314 217.732 159.986 217.028 159.986C216.436 159.986 215.96 160.178 215.6 160.562C215.24 160.938 215.06 161.446 215.06 162.086C215.06 162.726 215.24 163.238 215.6 163.622C215.96 163.998 216.436 164.186 217.028 164.186C217.732 164.186 218.344 163.858 218.864 163.202L220.652 164.798C220.236 165.342 219.708 165.758 219.068 166.046C218.428 166.334 217.7 166.478 216.884 166.478ZM223.235 160.082H220.775V157.886H228.527V160.082H226.067V166.286H223.235V160.082ZM236.881 166.478C235.593 166.478 234.589 166.13 233.869 165.434C233.149 164.738 232.789 163.762 232.789 162.506V157.886H235.621V162.422C235.621 163.038 235.729 163.486 235.945 163.766C236.169 164.046 236.489 164.186 236.905 164.186C237.321 164.186 237.637 164.046 237.853 163.766C238.077 163.486 238.189 163.038 238.189 162.422V157.886H240.973V162.506C240.973 163.762 240.613 164.738 239.893 165.434C239.173 166.13 238.169 166.478 236.881 166.478ZM245.403 166.478C244.707 166.478 244.027 166.402 243.363 166.25C242.707 166.09 242.167 165.878 241.743 165.614L242.655 163.55C243.055 163.782 243.503 163.97 243.999 164.114C244.495 164.25 244.971 164.318 245.427 164.318C245.819 164.318 246.099 164.282 246.267 164.21C246.435 164.13 246.519 164.014 246.519 163.862C246.519 163.686 246.407 163.554 246.183 163.466C245.967 163.378 245.607 163.282 245.103 163.178C244.455 163.042 243.915 162.898 243.483 162.746C243.051 162.586 242.675 162.33 242.355 161.978C242.035 161.618 241.875 161.134 241.875 160.526C241.875 159.998 242.023 159.518 242.319 159.086C242.615 158.654 243.055 158.314 243.639 158.066C244.231 157.818 244.947 157.694 245.787 157.694C246.363 157.694 246.927 157.758 247.479 157.886C248.039 158.006 248.531 158.186 248.955 158.426L248.103 160.478C247.279 160.062 246.499 159.854 245.763 159.854C245.035 159.854 244.671 160.03 244.671 160.382C244.671 160.55 244.779 160.678 244.995 160.766C245.211 160.846 245.567 160.934 246.063 161.03C246.703 161.15 247.243 161.29 247.683 161.45C248.123 161.602 248.503 161.854 248.823 162.206C249.151 162.558 249.315 163.038 249.315 163.646C249.315 164.174 249.167 164.654 248.871 165.086C248.575 165.51 248.131 165.85 247.539 166.106C246.955 166.354 246.243 166.478 245.403 166.478Z" fill="white"/>
<path d="M146.3 124.206H25.5444V202.444H146.3V124.206Z" fill="#AF2C93"/>
<path d="M92.0151 170.92C100.124 167.538 103.956 158.223 100.574 150.114C97.1916 142.006 87.8766 138.174 79.768 141.556C71.6593 144.938 67.8276 154.253 71.2095 162.362C74.5915 170.47 83.9064 174.302 92.0151 170.92Z" fill="white"/>
<path d="M109.23 190.971C105.759 181.442 96.6479 174.629 85.9141 174.629C75.1803 174.629 66.0694 181.442 62.5986 190.971H109.23Z" fill="white"/>
<path d="M511.956 30.3013H157.885V108.539H511.956V30.3013Z" fill="#6C3491"/>
<path d="M219.621 93.9969C233.199 93.9969 244.206 82.9899 244.206 69.412C244.206 55.8342 233.199 44.8271 219.621 44.8271C206.043 44.8271 195.036 55.8342 195.036 69.412C195.036 82.9899 206.043 93.9969 219.621 93.9969Z" stroke="white" stroke-width="1.27" stroke-miterlimit="10"/>
<path d="M231.174 68.0463L215.266 58.8551C214.206 58.2445 212.888 59.0158 212.888 60.237V78.6194C212.888 79.8406 214.206 80.6119 215.266 80.0013L231.174 70.8101C232.235 70.1995 232.235 68.673 231.174 68.0624V68.0463Z" fill="white"/>
<path d="M352.155 51.4153H265.85V55.3039H352.155V51.4153Z" fill="white"/>
<path d="M496.097 62.117H265.85V66.0056H496.097V62.117Z" fill="white"/>
<path d="M496.097 72.8186H265.85V76.7072H496.097V72.8186Z" fill="white"/>
<path d="M308.994 83.5363H265.85V87.4248H308.994V83.5363Z" fill="white"/>
<path d="M511.956 218.127H349.246V296.365H511.956V218.127Z" fill="#AF2C93"/>
<path d="M401.436 257.238C401.436 261.833 397.708 265.545 393.129 265.545C388.549 265.545 384.821 261.817 384.821 257.238C384.821 252.658 388.549 248.93 393.129 248.93C397.708 248.93 401.436 252.658 401.436 257.238Z" fill="white"/>
<path d="M438.908 257.238C438.908 261.833 435.18 265.545 430.6 265.545C426.021 265.545 422.293 261.817 422.293 257.238C422.293 252.658 426.021 248.93 430.6 248.93C435.18 248.93 438.908 252.658 438.908 257.238Z" fill="white"/>
<path d="M476.395 257.238C476.395 261.833 472.668 265.545 468.088 265.545C463.508 265.545 459.781 261.817 459.781 257.238C459.781 252.658 463.508 248.93 468.088 248.93C472.668 248.93 476.395 252.658 476.395 257.238Z" fill="white"/>
</svg>
