<svg width="102" height="105" viewBox="0 0 102 105" fill="none" xmlns="http://www.w3.org/2000/svg">
<path d="M73.2789 104.769L72.1542 104.765L71.9744 104.681L50.9995 94.8639L29.8422 104.766H28.7193V98.1418L43.817 86.5771L43.2012 58.8678L0 79.1223V62.8419L0.35063 62.5738L42.5709 30.2729L42.1052 9.20605C42.1052 6.9487 42.9872 4.82986 44.5884 3.23827C46.2175 1.6449 48.3482 0.77002 50.5923 0.77002C50.711 0.77002 50.8494 0.77002 50.9995 0.785212C51.1515 0.77002 51.2899 0.77002 51.4077 0.77002C53.6517 0.77002 55.7816 1.6449 57.4062 3.23291C59.0128 4.82897 59.8939 6.9487 59.8948 9.20605V9.22571L59.4291 30.2729L102 62.8419V79.1223L58.7997 58.8687L58.1839 86.578L73.2807 98.1427V104.77L73.2789 104.769ZM30.5174 99.0212V102.474L50.9995 92.889L71.4808 102.474V99.0212L56.3642 87.4413L57.0618 56.0779L100.2 76.3029V63.7212L57.6103 31.1371L58.0958 9.19622C58.0931 7.41965 57.399 5.753 56.1394 4.50189C54.8592 3.24989 53.1762 2.55731 51.4068 2.55731C51.3052 2.55731 51.2099 2.55731 51.147 2.56804L50.9986 2.59306L50.8503 2.56804C50.7892 2.55821 50.6939 2.55821 50.5932 2.55731C48.822 2.55731 47.1399 3.24989 45.8534 4.50725C44.5992 5.75389 43.9051 7.42054 43.9024 9.19711L44.3879 31.1379L1.799 63.7212V76.3029L44.9373 56.0779L45.6349 87.4413L30.5183 99.0212H30.5174Z" fill="white"/>
</svg>
