<svg width="170" height="99" viewBox="0 0 170 99" fill="none" xmlns="http://www.w3.org/2000/svg">
<path d="M98.2852 27.0342C112.054 32.9977 121.702 46.6977 121.702 62.6542C121.702 78.6106 112.054 92.3106 98.2852 98.2741C146.937 92.8172 169.755 62.6542 169.755 62.6542C169.755 62.6542 146.937 32.4912 98.2852 27.0342Z" fill="#4C0A7C"/>
<path d="M44.1067 62.6539C44.1067 46.7205 53.7082 33.0435 67.4312 27.08C19.7 32.6751 0.381836 62.6539 0.381836 62.6539C0.381836 62.6539 19.723 92.6557 67.4312 98.2278C53.7082 92.2413 44.1067 78.5643 44.1067 62.6539Z" fill="#4C0A7C"/>
<path d="M82.9045 37.0039C68.744 37.0039 57.2544 48.4935 57.2544 62.654C57.2544 76.8145 68.744 88.304 82.9045 88.304C97.065 88.304 108.555 76.8145 108.555 62.654C108.555 48.4935 97.065 37.0039 82.9045 37.0039ZM82.9045 72.6699C77.3785 72.6699 72.8885 68.18 72.8885 62.654C72.8885 57.1279 77.3785 52.638 82.9045 52.638C88.4305 52.638 92.9204 57.1279 92.9204 62.654C92.9204 68.18 88.4305 72.6699 82.9045 72.6699ZM96.6045 50.9802C94.5782 50.9802 92.9435 49.3454 92.9435 47.3192C92.9435 45.293 94.5782 43.6582 96.6045 43.6582C98.6307 43.6582 100.265 45.293 100.265 47.3192C100.265 49.3454 98.6307 50.9802 96.6045 50.9802Z" fill="#4C0A7C"/>
<path d="M36.2317 24.3401C39.3631 23.3501 42.6328 22.4291 46.0635 21.6001L30.4754 6.01208C27.0677 6.84099 23.7751 7.73897 20.5977 8.68301L36.2548 24.3401H36.2317Z" fill="#4C0A7C"/>
<path d="M81.5924 0.140625C80.5332 0.140625 79.4971 0.140626 78.4609 0.163651V17.5707C79.7734 17.5477 81.0858 17.5016 82.4213 17.5016C84.0791 17.5016 85.7139 17.5477 87.3487 17.5937V0.232726C85.4376 0.186675 83.5265 0.163651 81.5924 0.163651V0.140625Z" fill="#4C0A7C"/>
<path d="M134.987 6.40332L119.698 21.6921C123.129 22.4979 126.399 23.3959 129.576 24.386L144.888 9.07424C141.687 8.13021 138.395 7.23223 135.01 6.40332H134.987Z" fill="#4C0A7C"/>
</svg>
